{
.appVersion = "1266";
classes = (
{
automatic = 1;
code = "A B C D E F G H I J K L M N O P Q R S T U V W X Y Z Aacute Abreve Acircumflex Adieresis Adotbelow Agrave Amacron Aogonek Aring Aringacute Atilde AE AEacute Cacute Ccaron Ccedilla Ccircumflex Cdotaccent Eth Dcaron Dcroat Eacute Ebreve Ecaron Ecircumflex Edieresis Edotaccent Edotbelow Egrave Emacron Eogonek Etilde Gbreve Gcaron Gcircumflex Gcommaaccent Gdotaccent Hbar Hcircumflex IJ Iacute Ibreve Icircumflex Idieresis Idotaccent Idotbelow Igrave Imacron Iogonek Itilde Jcircumflex Kcommaaccent Lacute Lcaron Lcommaaccent Ldot Lslash Nacute Ncaron Ncommaaccent Eng Nhookleft Ntilde Oacute Obreve Ocircumflex Odieresis Odotbelow Ograve Ohungarumlaut Omacron Oogonek Oslash Oslashacute Otilde OE Thorn Racute Rcaron Rcommaaccent Sacute Scaron Scedilla Scircumflex Scommaaccent Germandbls Schwa Tbar Tcaron Tcedilla Tcommaaccent Uacute Ubreve Ucircumflex Udieresis Udotbelow Ugrave Uhungarumlaut Umacron Uogonek Uring Utilde Wacute Wcircumflex Wdieresis Wgrave Yacute Ycircumflex Ydieresis Ygrave Ymacron Ytilde Zacute Zcaron Zdotaccent Iacute_J.loclNLD Cacute.loclPLK Nacute.loclPLK Oacute.loclPLK Sacute.loclPLK Zacute.loclPLK";
name = Uppercase;
},
{
automatic = 1;

glyphs = (
{
glyphname = A;
lastChange = "2019-09-21 23:36:47 +0000";
layers = (
{
anchors = (
{
name = bottom;
position = "{600, 0}";
},
{
name = ogonek;
position = "{1080, 10}";
},
{
name = top;
position = "{600, 1420}";
}
);
layerId = "BBAB2DB2-7554-4FB8-925D-17003E4845F8";
paths = (
{
closed = 1;
nodes = (
"252 0 LINE",
"588 1248 LINE",
"606 1248 LINE",
"942 0 LINE",
"1152 0 LINE",
"742 1420 LINE",
"452 1420 LINE",
"42 0 LINE"
);
},
{
closed = 1;
nodes = (
"952 346 LINE",
"952 536 LINE",
"232 536 LINE",
"232 346 LINE"
);
}
);
width = 1200;
}
);
unicode = 0041;
},
{
glyphname = Abreve;
lastChange = "2019-09-22 01:11:06 +0000";
layers = (
{
background = {
paths = (
{
closed = 1;
nodes = (
"844 530 LINE",
"844 300 OFFCURVE",
"756 170 OFFCURVE",
"600 170 CURVE SMOOTH",
"444 170 OFFCURVE",
"356 300 OFFCURVE",
"356 530 CURVE",
"136 530 LINE",
"136 180 OFFCURVE",
"306 -20 OFFCURVE",
"600 -20 CURVE SMOOTH",
"894 -20 OFFCURVE",
"1064 180 OFFCURVE",
"1064 530 CURVE"
);
}
);
};
components = (
{
name = A;
},
{
name = brevecomb.case;
}
);
layerId = "BBAB2DB2-7554-4FB8-925D-17003E4845F8";
width = 1200;
}
);
unicode = 0102;
},
{
glyphname = Aogonek;
lastChange = "2019-09-25 06:47:48 +0000";
layers = (
{
background = {
paths = (
{
closed = 1;
nodes = (
"1152 32 LINE",
"912 30 LINE",
"912 -40 LINE",
"827 -64 OFFCURVE",
"778 -134 OFFCURVE",
"778 -232 CURVE SMOOTH",
"778 -354 OFFCURVE",
"865 -424 OFFCURVE",
"1018 -424 CURVE SMOOTH",
"1044 -424 OFFCURVE",
"1078 -421 OFFCURVE",
"1108 -415 CURVE",
"1126 -245 LINE",
"1096 -252 OFFCURVE",
"1067 -256 OFFCURVE",
"1044 -256 CURVE SMOOTH",
"970 -256 OFFCURVE",
"928 -224 OFFCURVE",
"928 -168 CURVE SMOOTH",
"928 -61 OFFCURVE",
"1010 0 OFFCURVE",
"1152 0 CURVE"
);
}
);
};
components = (
{
name = A;
}
);
layerId = "BBAB2DB2-7554-4FB8-925D-17003E4845F8";
paths = (
{
closed = 1;
nodes = (
"1132 32 LINE",
"962 50 LINE",
"942 0 LINE",
"838 -29 OFFCURVE",
"778 -114 OFFCURVE",
"778 -232 CURVE SMOOTH",
"778 -354 OFFCURVE",
"865 -424 OFFCURVE",
"1018 -424 CURVE SMOOTH",
"1044 -424 OFFCURVE",
"1077 -421 OFFCURVE",
"1108 -415 CURVE",
"1126 -245 LINE",
"1096 -252 OFFCURVE",
"1067 -256 OFFCURVE",
"1044 -256 CURVE SMOOTH",
"970 -256 OFFCURVE",
"928 -224 OFFCURVE",
"928 -168 CURVE SMOOTH",
"928 -61 OFFCURVE",
"1010 0 OFFCURVE",
"1152 0 CURVE"
);
}
);
width = 1200;
}
);
unicode = 0104;
},
{
glyphname = Aring;
lastChange = "2019-09-25 07:08:46 +0000";
layers = (
{
background = {
paths = (
{
closed = 1;
nodes = (
"757 1378 OFFCURVE",
"848 1453 OFFCURVE",
"848 1584 CURVE SMOOTH",
"848 1715 OFFCURVE",
"757 1790 OFFCURVE",
"600 1790 CURVE SMOOTH",
"443 1790 OFFCURVE",
"352 1715 OFFCURVE",
"352 1584 CURVE SMOOTH",
"352 1453 OFFCURVE",
"443 1378 OFFCURVE",
"600 1378 CURVE SMOOTH"
);
},
{
closed = 1;
nodes = (
"532 1484 OFFCURVE",
"494 1520 OFFCURVE",
"494 1584 CURVE SMOOTH",
"494 1648 OFFCURVE",
"532 1685 OFFCURVE",
"600 1685 CURVE SMOOTH",
"668 1685 OFFCURVE",
"706 1648 OFFCURVE",
"706 1584 CURVE SMOOTH",
"706 1520 OFFCURVE",
"668 1484 OFFCURVE",
"600 1484 CURVE SMOOTH"
);
}
);
};
components = (
{
name = A;
},
{
name = ringcomb.case;
}
);
layerId = "BBAB2DB2-7554-4FB8-925D-17003E4845F8";
width = 1200;
}
);
unicode = 00C5;
},
{
glyphname = AE;
lastChange = "2019-09-23 22:56:11 +0000";
layers = (
{
anchors = (
{
name = bottom;
position = "{640, 0}";
},
{
name = ogonek;
position = "{1080, 10}";
},
{
name = top;
position = "{640, 1420}";
}
);
background = {
anchors = (
{
name = bottom;
position = "{600, 0}";
},
{
name = ogonek;
position = "{1080, 10}";
},
{
name = top;
position = "{600, 1420}";
}
);
paths = (
{
closed = 1;
nodes = (
"770 0 LINE",
"770 1420 LINE",
"570 1420 LINE",
"570 0 LINE"
);
},
{
closed = 1;
nodes = (
"1000 616 LINE",
"1000 806 LINE",
"590 806 LINE",
"590 616 LINE"
);
}
);
};
layerId = "BBAB2DB2-7554-4FB8-925D-17003E4845F8";
paths = (
{
closed = 1;
nodes = (
"780 0 LINE",
"780 1420 LINE",
"600 1420 LINE",
"600 0 LINE"
);
},
{
closed = 1;
nodes = (
"1100 0 LINE",
"1100 180 LINE",
"600 180 LINE",
"600 0 LINE"
);
},
{
closed = 1;
nodes = (
"1040 621 LINE",
"1040 801 LINE",
"600 801 LINE",
"600 621 LINE"
);
},
{
closed = 1;
nodes = (
"1100 1240 LINE",
"1100 1420 LINE",
"600 1420 LINE",
"600 1240 LINE"
);
},
{
closed = 1;
nodes = (
"232 0 LINE",
"583 1248 LINE",
"717 1248 LINE",
"717 1420 LINE",
"442 1420 LINE",
"42 0 LINE"
);
},
{
closed = 1;
nodes = (
"702 246 LINE",
"702 411 LINE",
"232 411 LINE",
"232 246 LINE"
);
}
);
width = 1200;
}
);
unicode = 00C6;
},
{
glyphname = B;
lastChange = "2019-09-22 01:06:14 +0000";
layers = (
{
anchors = (
{
name = bottom;
position = "{560, 0}";
},
{
name = top;
position = "{560, 1420}";
}
);
background = {
paths = (
{
closed = 1;
nodes = (
"286 810 LINE",
"286 680 LINE",
"664 680 LINE SMOOTH",
"938 680 OFFCURVE",
"1094 810 OFFCURVE",
"1094 1040 CURVE SMOOTH",
"1094 1282 OFFCURVE",
"930 1420 OFFCURVE",
"642 1420 CURVE SMOOTH",
"266 1420 LINE",
"290 1230 LINE",
"592 1230 LINE SMOOTH",
"772 1230 OFFCURVE",
"874 1154 OFFCURVE",
"874 1020 CURVE SMOOTH",
"874 886 OFFCURVE",
"776 810 OFFCURVE",
"606 810 CURVE SMOOTH"
);
},
{
closed = 1;
nodes = (
"286 190 LINE",
"286 0 LINE",
"664 0 LINE SMOOTH",
"938 0 OFFCURVE",
"1094 138 OFFCURVE",
"1094 380 CURVE SMOOTH",
"1094 610 OFFCURVE",
"930 740 OFFCURVE",
"642 740 CURVE SMOOTH",
"266 740 LINE",
"290 610 LINE",
"592 610 LINE SMOOTH",
"772 610 OFFCURVE",
"874 534 OFFCURVE",
"874 400 CURVE SMOOTH",
"874 266 OFFCURVE",
"776 190 OFFCURVE",
"606 190 CURVE SMOOTH"
);
}
);
};
layerId = "BBAB2DB2-7554-4FB8-925D-17003E4845F8";
paths = (
{
closed = 1;
nodes = (
"704 0 LINE SMOOTH",
"978 0 OFFCURVE",
"1134 146 OFFCURVE",
"1134 400 CURVE SMOOTH",
"1134 620 OFFCURVE",
"970 746 OFFCURVE",
"682 746 CURVE SMOOTH",
"326 746 LINE",
"350 655 LINE",
"632 655 LINE SMOOTH",
"818 655 OFFCURVE",
"924 569 OFFCURVE",
"924 420 CURVE SMOOTH",
"924 274 OFFCURVE",
"822 190 OFFCURVE",
"646 190 CURVE SMOOTH",
"346 190 LINE",
"346 0 LINE"
);
},
{
closed = 1;
nodes = (
"360 0 LINE",
"360 1420 LINE",
"160 1420 LINE",
"160 0 LINE"
);
},
{
closed = 1;
nodes = (
"694 698 LINE",
"694 796 LINE",
"278 796 LINE",
"278 698 LINE"
);
},
{
closed = 1;
nodes = (
"604 754 LINE SMOOTH",
"878 754 OFFCURVE",
"1034 864 OFFCURVE",
"1034 1060 CURVE SMOOTH",
"1034 1290 OFFCURVE",
"870 1420 OFFCURVE",
"582 1420 CURVE SMOOTH",
"326 1420 LINE",
"350 1230 LINE",
"532 1230 LINE SMOOTH",
"718 1230 OFFCURVE",
"824 1162 OFFCURVE",
"824 1040 CURVE SMOOTH",
"824 915 OFFCURVE",
"722 845 OFFCURVE",
"546 845 CURVE SMOOTH",
"346 845 LINE",
"346 754 LINE"
);
}
);
width = 1200;
}
);
unicode = 0042;
},
{
glyphname = C;
lastChange = "2019-09-28 19:14:13 +0000";
layers = (
{
anchors = (
{
name = bottom;
position = "{675, 0}";
},
{
name = top;
position = "{705, 1420}";
}
);
layerId = "BBAB2DB2-7554-4FB8-925D-17003E4845F8";
paths = (
{
closed = 1;
nodes = (
"1149 1261 LINE",
"1082 1375 OFFCURVE",
"930 1440 OFFCURVE",
"734 1440 CURVE SMOOTH",
"328 1440 OFFCURVE",
"96 1174 OFFCURVE",
"96 712 CURVE SMOOTH",
"96 224 OFFCURVE",
"318 -20 OFFCURVE",
"758 -20 CURVE SMOOTH",
"884 -20 OFFCURVE",
"1006 2 OFFCURVE",
"1124 48 CURVE",
"1078 224 LINE",
"984 184 OFFCURVE",
"890 164 OFFCURVE",
"792 164 CURVE SMOOTH",
"472 164 OFFCURVE",
"310 350 OFFCURVE",
"310 722 CURVE SMOOTH",
"310 1063 OFFCURVE",
"478 1256 OFFCURVE",
"736 1256 CURVE SMOOTH",
"844 1256 OFFCURVE",
"941 1204 OFFCURVE",
"1001 1114 CURVE"
);
}
);
width = 1200;
}
);
unicode = 0043;
},
{
glyphname = D;
lastChange = "2019-09-22 01:06:32 +0000";
layers = (
{
anchors = (
{
name = bottom;
position = "{550, 0}";
},
{
name = center;
position = "{550, 710}";
},
{
name = top;
position = "{550, 1420}";
}
);
layerId = "BBAB2DB2-7554-4FB8-925D-17003E4845F8";
paths = (
{
closed = 1;
nodes = (
"504 0 LINE SMOOTH",
"938 0 OFFCURVE",
"1154 222 OFFCURVE",
"1154 670 CURVE SMOOTH",
"1154 1172 OFFCURVE",
"938 1420 OFFCURVE",
"504 1420 CURVE SMOOTH",
"326 1420 LINE",
"350 1230 LINE",
"504 1230 LINE SMOOTH",
"796 1230 OFFCURVE",
"944 1051 OFFCURVE",
"944 690 CURVE SMOOTH",
"944 357 OFFCURVE",
"796 190 OFFCURVE",
"504 190 CURVE SMOOTH",
"346 190 LINE",
"346 0 LINE"
);
},
{
closed = 1;
nodes = (
"360 0 LINE",
"360 1420 LINE",
"160 1420 LINE",
"160 0 LINE"
);
}
);
width = 1200;
}
);
unicode = 0044;
},
{
glyphname = Eth;
lastChange = "2019-09-22 01:31:26 +0000";
layers = (
{
components = (
{
name = D;
}
);
layerId = "BBAB2DB2-7554-4FB8-925D-17003E4845F8";
paths = (
{
closed = 1;
nodes = (
"681 612 LINE",
"681 802 LINE",
"42 802 LINE",
"42 612 LINE"
);
}
);
width = 1200;
}
);
unicode = 00D0;
},
{
glyphname = E;
lastChange = "2019-09-23 15:46:50 +0000";
layers = (
{
anchors = (
{
name = bottom;
position = "{630, 0}";
},
{
name = ogonek;
position = "{1080, 10}";
},
{
name = top;
position = "{630, 1420}";
},
{
name = topleft;
position = "{20, 1420}";
}
);
layerId = "BBAB2DB2-7554-4FB8-925D-17003E4845F8";
paths = (
{
closed = 1;
nodes = (
"360 0 LINE",
"360 1420 LINE",
"160 1420 LINE",
"160 0 LINE"
);
},
{
closed = 1;
nodes = (
"1100 0 LINE",
"1100 190 LINE",
"160 190 LINE",
"160 0 LINE"
);
},
{
closed = 1;
nodes = (
"920 616 LINE",
"920 806 LINE",
"160 806 LINE",
"160 616 LINE"
);
},
{
closed = 1;
nodes = (
"1100 1230 LINE",
"1100 1420 LINE",
"160 1420 LINE",
"160 1230 LINE"
);
}
);
width = 1200;
}
);
unicode = 0045;
},
{
glyphname = Eogonek;
lastChange = "2019-09-25 06:48:05 +0000";
layers = (
{
background = {
paths = (
{
closed = 1;
nodes = (
"1100 32 LINE",
"860 30 LINE",
"860 -40 LINE",
"775 -64 OFFCURVE",
"726 -134 OFFCURVE",
"726 -232 CURVE SMOOTH",
"726 -354 OFFCURVE",
"813 -424 OFFCURVE",
"966 -424 CURVE SMOOTH",
"992 -424 OFFCURVE",
"1026 -421 OFFCURVE",
"1056 -415 CURVE",
"1074 -245 LINE",
"1044 -252 OFFCURVE",
"1015 -256 OFFCURVE",
"992 -256 CURVE SMOOTH",
"918 -256 OFFCURVE",
"876 -224 OFFCURVE",
"876 -168 CURVE SMOOTH",
"876 -61 OFFCURVE",
"958 0 OFFCURVE",
"1100 0 CURVE"
);
}
);
};
components = (
{
name = E;
}
);
layerId = "BBAB2DB2-7554-4FB8-925D-17003E4845F8";
paths = (
{
closed = 1;
nodes = (
"1080 32 LINE",
"880 30 LINE",
"880 -20 LINE",
"782 -47 OFFCURVE",
"726 -124 OFFCURVE",
"726 -232 CURVE SMOOTH",
"726 -354 OFFCURVE",
"813 -424 OFFCURVE",
"966 -424 CURVE SMOOTH",
"992 -424 OFFCURVE",
"1025 -421 OFFCURVE",
"1056 -415 CURVE",
"1074 -245 LINE",
"1044 -252 OFFCURVE",
"1015 -256 OFFCURVE",
"992 -256 CURVE SMOOTH",
"918 -256 OFFCURVE",
"876 -224 OFFCURVE",
"876 -168 CURVE SMOOTH",
"876 -61 OFFCURVE",
"958 0 OFFCURVE",
"1100 0 CURVE"
);
}
);
width = 1200;
}
);
unicode = 0118;
},
{
glyphname = F;
lastChange = "2019-09-22 01:06:48 +0000";
layers = (
{
anchors = (
{
name = bottom;
position = "{660, 0}";
},
{
name = top;
position = "{660, 1420}";
}
);
background = {
paths = (
{
closed = 1;
nodes = (
"368 0 LINE",
"372 1420 LINE",
"160 1420 LINE",
"160 0 LINE"
);
},
{
closed = 1;
nodes = (
"1040 1244 LINE",
"1040 1420 LINE",
"162 1420 LINE",
"160 1244 LINE"
);
},
{
closed = 1;
nodes = (
"860 522 LINE",
"860 698 LINE",
"202 698 LINE",
"200 522 LINE"
);
}
);
};
layerId = "BBAB2DB2-7554-4FB8-925D-17003E4845F8";
paths = (
{
closed = 1;
nodes = (
"360 0 LINE",
"360 1420 LINE",
"160 1420 LINE",
"160 0 LINE"
);
},
{
closed = 1;
nodes = (
"920 556 LINE",
"920 746 LINE",
"160 746 LINE",
"160 556 LINE"
);
},
{
closed = 1;
nodes = (
"1100 1230 LINE",
"1100 1420 LINE",
"160 1420 LINE",
"160 1230 LINE"
);
}
);
width = 1200;
}
);
unicode = 0046;
},
{
glyphname = G;
lastChange = "2019-09-28 19:14:26 +0000";
layers = (
{
anchors = (
{
name = bottom;
position = "{715, 0}";
},
{
name = top;
position = "{705, 1420}";
}
);
background = {
components = (
{
name = C;
}
);
};
layerId = "BBAB2DB2-7554-4FB8-925D-17003E4845F8";
paths = (
{
closed = 1;
nodes = (
"912 -20 OFFCURVE",
"1064 22 OFFCURVE",
"1120 40 CURVE",
"1042 214 LINE",
"980 196 OFFCURVE",
"882 164 OFFCURVE",
"756 164 CURVE SMOOTH",
"460 164 OFFCURVE",
"310 350 OFFCURVE",
"310 722 CURVE SMOOTH",
"310 1062 OFFCURVE",
"467 1256 OFFCURVE",
"736 1256 CURVE SMOOTH",
"842 1256 OFFCURVE",
"939 1204 OFFCURVE",
"1001 1114 CURVE",
"1150 1262 LINE",
"1079 1375 OFFCURVE",
"923 1440 OFFCURVE",
"724 1440 CURVE SMOOTH",
"326 1440 OFFCURVE",
"96 1174 OFFCURVE",
"96 712 CURVE SMOOTH",
"96 224 OFFCURVE",
"308 -20 OFFCURVE",
"732 -20 CURVE SMOOTH"
);
},
{
closed = 1;
nodes = (
"1120 40 LINE",
"1120 710 LINE",
"930 710 LINE",
"930 40 LINE"
);
},
{
closed = 1;
nodes = (
"1114 520 LINE",
"1114 710 LINE",
"640 710 LINE",
"640 520 LINE"
);
}
);
width = 1200;
}
);
unicode = 0047;
},
{
glyphname = H;
lastChange = "2019-09-22 01:05:09 +0000";
layers = (
{
anchors = (
{
name = bottom;
position = "{600, 0}";
},
{
name = center;
position = "{600, 710}";
},
{
name = top;
position = "{600, 1420}";
},
{
name = topleft;
position = "{20, 1420}";
}
);
layerId = "BBAB2DB2-7554-4FB8-925D-17003E4845F8";
paths = (
{
closed = 1;
nodes = (
"1058 0 LINE",
"1058 1420 LINE",
"858 1420 LINE",
"858 0 LINE"
);
},
{
closed = 1;
nodes = (
"340 0 LINE",
"340 1420 LINE",
"140 1420 LINE",
"140 0 LINE"
);
},
{
closed = 1;
nodes = (
"1021 612 LINE",
"1021 802 LINE",
"182 802 LINE",
"182 612 LINE"
);
}
);
width = 1200;
}
);
unicode = 0048;
},
{
glyphname = Hbar;
lastChange = "2019-09-23 17:08:54 +0000";
layers = (
{
components = (
{
name = H;
}
);
layerId = "BBAB2DB2-7554-4FB8-925D-17003E4845F8";
paths = (
{
closed = 1;
nodes = (
"1138 1002 LINE",
"1138 1192 LINE",
"62 1192 LINE",
"62 1002 LINE"
);
}
);
width = 1200;
}
);
unicode = 0126;
},
{
glyphname = I;
lastChange = "2019-09-22 01:05:09 +0000";
layers = (
{
anchors = (
{
name = bottom;
position = "{600, 0}";
},
{
name = ogonek;
position = "{1080, 10}";
},
{
name = top;
position = "{600, 1420}";
},
{
name = topleft;
position = "{20, 1420}";
}
);
layerId = "BBAB2DB2-7554-4FB8-925D-17003E4845F8";
paths = (
{
closed = 1;
nodes = (
"699 0 LINE",
"699 1420 LINE",
"499 1420 LINE",
"499 0 LINE"
);
},
{
closed = 1;
nodes = (
"1032 0 LINE",
"1032 190 LINE",
"168 190 LINE",
"168 0 LINE"
);
},
{
closed = 1;
nodes = (
"1032 1230 LINE",
"1032 1420 LINE",
"168 1420 LINE",
"168 1230 LINE"
);
}
);
width = 1200;
}
);
unicode = 0049;
},
{
glyphname = IJ;
lastChange = "2019-09-26 20:17:03 +0000";
layers = (
{
background = {
anchors = (
{
name = bottom;
position = "{258, 0}";
},
{
name = ogonek;
position = "{738, 10}";
},
{
name = top;
position = "{258, 1420}";
},
{
name = topleft;
position = "{-322, 1420}";
}
);
paths = (
{
closed = 1;
nodes = (
"417 597 LINE",
"417 1420 LINE",
"217 1420 LINE",
"217 597 LINE"
);
},
{
closed = 1;
nodes = (
"590 597 LINE",
"590 787 LINE",
"46 787 LINE",
"46 597 LINE"
);
},
{
closed = 1;
nodes = (
"590 1230 LINE",
"590 1420 LINE",
"46 1420 LINE",
"46 1230 LINE"
);
}
);
};
layerId = "BBAB2DB2-7554-4FB8-925D-17003E4845F8";
paths = (
{
closed = 1;
nodes = (
"924 0 OFFCURVE",
"1072 151 OFFCURVE",
"1072 456 CURVE SMOOTH",
"1072 1420 LINE",
"872 1420 LINE",
"872 456 LINE SMOOTH",
"872 271 OFFCURVE",
"791 180 OFFCURVE",
"629 180 CURVE SMOOTH",
"487 180 OFFCURVE",
"416 245 OFFCURVE",
"416 376 CURVE",
"216 376 LINE",
"216 125 OFFCURVE",
"351 0 OFFCURVE",
"624 0 CURVE SMOOTH"
);
},
{
closed = 1;
nodes = (
"966 1230 LINE",
"966 1420 LINE",
"680 1420 LINE",
"680 1230 LINE"
);
},
{
closed = 1;
nodes = (
"411 517 LINE",
"411 1420 LINE",
"221 1420 LINE",
"221 517 LINE"
);
},
{
closed = 1;
nodes = (
"589 517 LINE",
"589 707 LINE",
"45 707 LINE",
"45 517 LINE"
);
},
{
closed = 1;
nodes = (
"569 1230 LINE",
"569 1420 LINE",
"45 1420 LINE",
"45 1230 LINE"
);
}
);
width = 1200;
}
);
rightMetricsKey = J;
unicode = 0132;
},
{
glyphname = Iogonek;
lastChange = "2019-09-25 06:48:27 +0000";
layers = (
{
background = {
paths = (
{
closed = 1;
nodes = (
"769 32 LINE",
"529 30 LINE",
"529 -40 LINE",
"444 -64 OFFCURVE",
"395 -134 OFFCURVE",
"395 -232 CURVE SMOOTH",
"395 -354 OFFCURVE",
"482 -424 OFFCURVE",
"635 -424 CURVE SMOOTH",
"661 -424 OFFCURVE",
"695 -421 OFFCURVE",
"725 -415 CURVE",
"743 -245 LINE",
"713 -252 OFFCURVE",
"684 -256 OFFCURVE",
"661 -256 CURVE SMOOTH",
"587 -256 OFFCURVE",
"545 -224 OFFCURVE",
"545 -168 CURVE SMOOTH",
"545 -61 OFFCURVE",
"627 0 OFFCURVE",
"769 0 CURVE"
);
}
);
};
components = (
{
name = I;
}
);
layerId = "BBAB2DB2-7554-4FB8-925D-17003E4845F8";
paths = (
{
closed = 1;
nodes = (
"749 32 LINE",
"549 30 LINE",
"549 -20 LINE",
"451 -47 OFFCURVE",
"395 -124 OFFCURVE",
"395 -232 CURVE SMOOTH",
"395 -354 OFFCURVE",
"482 -424 OFFCURVE",
"635 -424 CURVE SMOOTH",
"661 -424 OFFCURVE",
"694 -421 OFFCURVE",
"725 -415 CURVE",
"743 -244 LINE",
"713 -252 OFFCURVE",
"684 -256 OFFCURVE",
"661 -256 CURVE SMOOTH",
"587 -256 OFFCURVE",
"545 -224 OFFCURVE",
"545 -168 CURVE SMOOTH",
"545 -61 OFFCURVE",
"627 0 OFFCURVE",
"769 0 CURVE"
);
}
);
width = 1200;
}
);
unicode = 012E;
},
{
glyphname = J;
lastChange = "2019-09-23 16:07:58 +0000";
layers = (
{
anchors = (
{
name = bottom;
position = "{600, 0}";
},
{
name = top;
position = "{780, 1420}";
}
);
layerId = "BBAB2DB2-7554-4FB8-925D-17003E4845F8";
paths = (
{
closed = 1;
nodes = (
"890 -20 OFFCURVE",
"1072 146 OFFCURVE",
"1072 436 CURVE SMOOTH",
"1072 1420 LINE",
"872 1420 LINE",
"872 436 LINE SMOOTH",
"872 260 OFFCURVE",
"770 160 OFFCURVE",
"589 160 CURVE SMOOTH",
"402 160 OFFCURVE",
"296 276 OFFCURVE",
"296 476 CURVE",
"96 476 LINE",
"96 162 OFFCURVE",
"272 -20 OFFCURVE",
"584 -20 CURVE SMOOTH"
);
},
{
closed = 1;
nodes = (
"966 1230 LINE",
"966 1420 LINE",
"500 1420 LINE",
"500 1230 LINE"
);
}
);
width = 1200;
}
);
unicode = 004A;
},
{
glyphname = K;
lastChange = "2019-09-28 19:14:32 +0000";
layers = (
{
anchors = (
{
name = bottom;
position = "{640, 0}";
},
{
name = top;
position = "{600, 1420}";
}
);
background = {
paths = (
{
closed = 1;
nodes = (
"380 1420 LINE",
"168 1420 LINE",
"172 0 LINE",
"380 0 LINE"
);
},
{
closed = 1;
nodes = (
"302 676 LINE",
"302 486 LINE",
"324 486 LINE SMOOTH",
"806 486 OFFCURVE",
"1084 828 OFFCURVE",
"1084 1420 CURVE",
"864 1420 LINE",
"864 948 OFFCURVE",
"668 676 OFFCURVE",
"326 676 CURVE SMOOTH"
);
},
{
closed = 1;
nodes = (
"930 0 LINE",
"1192 0 LINE",
"762 750 LINE",
"562 668 LINE"
);
}
);
};
layerId = "BBAB2DB2-7554-4FB8-925D-17003E4845F8";
paths = (
{
closed = 1;
nodes = (
"804 452 OFFCURVE",
"1104 915 OFFCURVE",
"1104 1420 CURVE",
"898 1420 LINE",
"898 1024 OFFCURVE",
"714 640 OFFCURVE",
"304 640 CURVE",
"286 452 LINE"
);
},
{
closed = 1;
nodes = (
"360 0 LINE",
"360 1420 LINE",
"160 1420 LINE",
"160 0 LINE"
);
},
{
closed = 1;
nodes = (
"1172 0 LINE",
"750 794 LINE",
"570 692 LINE",
"930 0 LINE"
);
}
);
width = 1200;
}
);
unicode = 004B;
},
{
glyphname = L;
lastChange = "2019-09-23 16:45:26 +0000";
layers = (
{
anchors = (
{
name = bottom;
position = "{620, 0}";
},
{
name = center;
position = "{600, 710}";
},
{
name = top;
position = "{260, 1420}";
},
{
name = topright;
position = "{1180, 1420}";
}
);
background = {
paths = (
{
closed = 1;
nodes = (
"376 0 LINE",
"380 1420 LINE",
"168 1420 LINE",
"168 0 LINE"
);
},
{
closed = 1;
nodes = (
"1120 1220 LINE",
"1120 1420 LINE",
"170 1420 LINE",
"168 1220 LINE"
);
},
{
closed = 1;
nodes = (
"1120 0 LINE",
"1120 196 LINE",
"170 196 LINE",
"168 0 LINE"
);
},
{
closed = 1;
nodes = (
"940 610 LINE",
"940 810 LINE",
"190 810 LINE",
"188 610 LINE"
);
}
);
};
layerId = "BBAB2DB2-7554-4FB8-925D-17003E4845F8";
paths = (
{
closed = 1;
nodes = (
"360 0 LINE",
"360 1420 LINE",
"160 1420 LINE",
"160 0 LINE"
);
},
{
closed = 1;
nodes = (
"1100 0 LINE",
"1100 190 LINE",
"160 190 LINE",
"160 0 LINE"
);
}
);
width = 1200;
}
);
unicode = 004C;
},
{
glyphname = Lcaron;
lastChange = "2019-09-23 19:22:20 +0000";
layers = (
{
components = (
{
name = L;
}
);
layerId = "BBAB2DB2-7554-4FB8-925D-17003E4845F8";
paths = (
{
closed = 1;
nodes = (
"934 1188 LINE",
"1024 1568 LINE",
"812 1568 LINE",
"762 1188 LINE"
);
}
);
width = 1200;
}
);
unicode = 013D;
},
{
glyphname = Lslash;
lastChange = "2019-09-25 07:28:38 +0000";
layers = (
{
components = (
{
name = L;
}
);
layerId = "BBAB2DB2-7554-4FB8-925D-17003E4845F8";
paths = (
{
closed = 1;
nodes = (
"835 881 LINE",
"748 1035 LINE",
"-54 616 LINE",
"34 462 LINE"
);
}
);
width = 1200;
}
);
unicode = 0141;
},
{
glyphname = M;
lastChange = "2019-09-22 01:05:09 +0000";
layers = (
{
anchors = (
{
name = bottom;
position = "{600, 0}";
},
{
name = top;
position = "{600, 1420}";
}
);
layerId = "BBAB2DB2-7554-4FB8-925D-17003E4845F8";
paths = (
{
closed = 1;
nodes = (
"702 580 LINE",
"854 1168 LINE",
"912 1168 LINE",
"912 1420 LINE",
"760 1420 LINE",
"608 810 LINE",
"596 810 LINE",
"566 580 LINE"
);
},
{
closed = 1;
nodes = (
"320 0 LINE",
"320 1420 LINE",
"128 1420 LINE",
"128 0 LINE"
);
},
{
closed = 1;
nodes = (
"620 580 LINE",
"600 810 LINE",
"592 810 LINE",
"440 1420 LINE",
"288 1420 LINE",
"288 1168 LINE",
"346 1168 LINE",
"498 580 LINE"
);
},
{
closed = 1;
nodes = (
"1072 0 LINE",
"1072 1420 LINE",
"880 1420 LINE",
"880 0 LINE"
);
}
);
width = 1200;
}
);
unicode = 004D;
},
{
glyphname = N;
lastChange = "2019-09-22 01:05:09 +0000";
layers = (
{
anchors = (
{
name = bottom;
position = "{600, 0}";
},
{
name = top;
position = "{600, 1420}";
}
);
background = {
components = (
{
name = H;
}
);
};
layerId = "BBAB2DB2-7554-4FB8-925D-17003E4845F8";
paths = (
{
closed = 1;
nodes = (
"890 0 LINE",
"890 322 LINE",
"840 322 LINE",
"400 1420 LINE",
"268 1420 LINE",
"268 1050 LINE",
"360 1050 LINE",
"800 0 LINE"
);
},
{
closed = 1;
nodes = (
"340 0 LINE",
"340 1420 LINE",
"148 1420 LINE",
"148 0 LINE"
);
},
{
closed = 1;
nodes = (
"1052 0 LINE",
"1052 1420 LINE",
"860 1420 LINE",
"860 0 LINE"
);
}
);
width = 1200;
}
);
unicode = 004E;
},
{
glyphname = Eng;
lastChange = "2019-09-22 01:13:36 +0000";
layers = (
{
background = {
paths = (
{
closed = 1;
nodes = (
"514 -468 LINE SMOOTH",
"890 -438 OFFCURVE",
"1052 -284 OFFCURVE",
"1052 94 CURVE SMOOTH",
"1052 384 LINE",
"840 384 LINE",
"840 62 LINE SMOOTH",
"840 -156 OFFCURVE",
"748 -254 OFFCURVE",
"534 -274 CURVE SMOOTH",
"334 -292 LINE",
"344 -480 LINE"
);
},
{
closed = 1;
nodes = (
"856 884 LINE",
"856 1060 LINE",
"428 1060 LINE",
"428 884 LINE"
);
},
{
closed = 1;
nodes = (
"1052 350 LINE",
"1052 1060 LINE",
"840 1060 LINE",
"840 350 LINE"
);
},
{
closed = 1;
nodes = (
"1006 1228 OFFCURVE",
"1072 1294 OFFCURVE",
"1072 1376 CURVE SMOOTH",
"1072 1458 OFFCURVE",
"1006 1524 OFFCURVE",
"924 1524 CURVE SMOOTH",
"842 1524 OFFCURVE",
"776 1458 OFFCURVE",
"776 1376 CURVE SMOOTH",
"776 1294 OFFCURVE",
"842 1228 OFFCURVE",
"924 1228 CURVE SMOOTH"
);
}
);
};
components = (
{
name = N;
}
);
guideLines = (
{
angle = 90;
position = "{860, 123}";
}
);
layerId = "BBAB2DB2-7554-4FB8-925D-17003E4845F8";
paths = (
{
closed = 1;
nodes = (
"723 -468 LINE SMOOTH",
"932 -449 OFFCURVE",
"1052 -313 OFFCURVE",
"1052 -96 CURVE SMOOTH",
"1052 184 LINE",
"859 184 LINE",
"859 -88 LINE SMOOTH",
"859 -214 OFFCURVE",
"807 -278 OFFCURVE",
"703 -294 CURVE SMOOTH",
"583 -312 LINE",
"593 -480 LINE"
);
}
);
width = 1200;
}
);
unicode = 014A;
},
{
glyphname = Nhookleft;
lastChange = "2019-09-22 01:13:38 +0000";
layers = (
{
components = (
{
name = N;
}
);
layerId = "BBAB2DB2-7554-4FB8-925D-17003E4845F8";
paths = (
{
closed = 1;
nodes = (
"12 -468 LINE SMOOTH",
"221 -452 OFFCURVE",
"341 -316 OFFCURVE",
"341 -96 CURVE SMOOTH",
"341 184 LINE",
"148 184 LINE",
"148 -88 LINE SMOOTH",
"148 -214 OFFCURVE",
"96 -282 OFFCURVE",
"-8 -294 CURVE SMOOTH",
"-128 -312 LINE",
"-118 -480 LINE"
);
}
);
width = 1200;
}
);
unicode = 019D;
},
{
glyphname = O;
lastChange = "2019-09-22 01:05:09 +0000";
layers = (
{
anchors = (
{
name = bottom;
position = "{600, 0}";
},
{
name = center;
position = "{600, 710}";
},
{
name = ogonek;
position = "{1080, 10}";
},
{
name = top;
position = "{600, 1420}";
},
{
name = topleft;
position = "{20, 1420}";
},
{
name = topright;
position = "{1180, 1420}";
}
);
layerId = "BBAB2DB2-7554-4FB8-925D-17003E4845F8";
paths = (
{
closed = 1;
nodes = (
"948 -20 OFFCURVE",
"1124 218 OFFCURVE",
"1124 700 CURVE SMOOTH",
"1124 1194 OFFCURVE",
"948 1440 OFFCURVE",
"600 1440 CURVE SMOOTH",
"252 1440 OFFCURVE",
"76 1194 OFFCURVE",
"76 700 CURVE SMOOTH",
"76 218 OFFCURVE",
"252 -20 OFFCURVE",
"600 -20 CURVE SMOOTH"
);
},
{
closed = 1;
nodes = (
"391 164 OFFCURVE",
"286 342 OFFCURVE",
"286 700 CURVE SMOOTH",
"286 1072 OFFCURVE",
"391 1256 OFFCURVE",
"600 1256 CURVE SMOOTH",
"809 1256 OFFCURVE",
"914 1072 OFFCURVE",
"914 700 CURVE SMOOTH",
"914 342 OFFCURVE",
"809 164 OFFCURVE",
"600 164 CURVE SMOOTH"
);
}
);
width = 1200;
}
);
unicode = 004F;
},
{
glyphname = Oogonek;
lastChange = "2019-09-25 06:48:45 +0000";
layers = (
{
background = {
paths = (
{
closed = 1;
nodes = (
"782 32 LINE",
"542 30 LINE",
"542 -40 LINE",
"457 -64 OFFCURVE",
"408 -134 OFFCURVE",
"408 -232 CURVE SMOOTH",
"408 -354 OFFCURVE",
"495 -424 OFFCURVE",
"648 -424 CURVE SMOOTH",
"674 -424 OFFCURVE",
"708 -421 OFFCURVE",
"738 -415 CURVE",
"756 -245 LINE",
"726 -252 OFFCURVE",
"697 -256 OFFCURVE",
"674 -256 CURVE SMOOTH",
"600 -256 OFFCURVE",
"558 -224 OFFCURVE",
"558 -168 CURVE SMOOTH",
"558 -61 OFFCURVE",
"640 0 OFFCURVE",
"782 0 CURVE"
);
}
);
};
components = (
{
name = O;
}
);
layerId = "BBAB2DB2-7554-4FB8-925D-17003E4845F8";
paths = (
{
closed = 1;
nodes = (
"742 40 LINE",
"542 30 LINE",
"542 -40 LINE",
"457 -64 OFFCURVE",
"408 -134 OFFCURVE",
"408 -232 CURVE SMOOTH",
"408 -354 OFFCURVE",
"495 -424 OFFCURVE",
"648 -424 CURVE SMOOTH",
"674 -424 OFFCURVE",
"704 -421 OFFCURVE",
"738 -415 CURVE",
"756 -245 LINE",
"723 -253 OFFCURVE",
"696 -256 OFFCURVE",
"674 -256 CURVE SMOOTH",
"581 -256 OFFCURVE",
"558 -203 OFFCURVE",
"558 -168 CURVE SMOOTH",
"558 -55 OFFCURVE",
"682 -27 OFFCURVE",
"786 8 CURVE"
);
}
);
width = 1200;
}
);
unicode = 01EA;
},
{
glyphname = Oslash;
lastChange = "2019-09-23 22:44:29 +0000";
layers = (
{
components = (
{
name = O;
}
);
layerId = "BBAB2DB2-7554-4FB8-925D-17003E4845F8";
paths = (
{
closed = 1;
nodes = (
"1114 1457 LINE",
"979 1532 LINE",
"66 -59 LINE",
"201 -134 LINE"
);
}
);
width = 1200;
}
);
unicode = 00D8;
},
{
glyphname = OE;
lastChange = "2019-09-23 22:57:47 +0000";
layers = (
{
anchors = (
{
name = bottom;
position = "{640, 0}";
},
{
name = top;
position = "{640, 1420}";
}
);
background = {
components = (
{
name = AE;
}
);
};
layerId = "BBAB2DB2-7554-4FB8-925D-17003E4845F8";
paths = (
{
closed = 1;
nodes = (
"649 181 LINE",
"615 170 OFFCURVE",
"560 164 OFFCURVE",
"500 164 CURVE SMOOTH",
"364 164 OFFCURVE",
"286 359 OFFCURVE",
"286 700 CURVE SMOOTH",
"286 1053 OFFCURVE",
"364 1256 OFFCURVE",
"500 1256 CURVE SMOOTH",
"541 1256 OFFCURVE",
"580 1247 OFFCURVE",
"607 1230 CURVE",
"700 1420 LINE",
"638 1420 OFFCURVE",
"592 1440 OFFCURVE",
"520 1440 CURVE SMOOTH",
"238 1440 OFFCURVE",
"76 1170 OFFCURVE",
"76 700 CURVE SMOOTH",
"76 242 OFFCURVE",
"238 -20 OFFCURVE",
"520 -20 CURVE SMOOTH",
"595 -20 OFFCURVE",
"653 0 OFFCURVE",
"700 0 CURVE"
);
},
{
closed = 1;
nodes = (
"780 0 LINE",
"780 1420 LINE",
"600 1420 LINE",
"600 0 LINE"
);
},
{
closed = 1;
nodes = (
"1100 0 LINE",
"1100 180 LINE",
"600 180 LINE",
"600 0 LINE"
);
},
{
closed = 1;
nodes = (
"1040 621 LINE",
"1040 801 LINE",
"630 801 LINE",
"630 621 LINE"
);
},
{
closed = 1;
nodes = (
"1100 1240 LINE",
"1100 1420 LINE",
"600 1420 LINE",
"590 1240 LINE"
);
}
);
width = 1200;
}
);
unicode = 0152;
},
{
glyphname = P;
lastChange = "2019-09-22 01:10:41 +0000";
layers = (
{
anchors = (
{
name = bottom;
position = "{560, 0}";
},
{
name = top;
position = "{560, 1420}";
}
);
layerId = "BBAB2DB2-7554-4FB8-925D-17003E4845F8";
paths = (
{
closed = 1;
nodes = (
"578 440 LINE SMOOTH",
"922 440 OFFCURVE",
"1120 622 OFFCURVE",
"1120 940 CURVE SMOOTH",
"1120 1246 OFFCURVE",
"922 1420 OFFCURVE",
"578 1420 CURVE SMOOTH",
"316 1420 LINE",
"340 1230 LINE",
"578 1230 LINE SMOOTH",
"789 1230 OFFCURVE",
"910 1118 OFFCURVE",
"910 920 CURVE SMOOTH",
"910 736 OFFCURVE",
"789 630 OFFCURVE",
"578 630 CURVE SMOOTH",
"336 630 LINE",
"336 440 LINE"
);
},
{
closed = 1;
nodes = (
"360 0 LINE",
"360 1420 LINE",
"160 1420 LINE",
"160 0 LINE"
);
}
);
width = 1200;
}
);
unicode = 0050;
},
{
glyphname = Thorn;
lastChange = "2019-09-22 01:25:25 +0000";
layers = (
{
anchors = (
{
name = bottom;
position = "{560, 0}";
},
{
name = top;
position = "{560, 1420}";
}
);
layerId = "BBAB2DB2-7554-4FB8-925D-17003E4845F8";
paths = (
{
closed = 1;
nodes = (
"578 220 LINE SMOOTH",
"922 220 OFFCURVE",
"1120 402 OFFCURVE",
"1120 720 CURVE SMOOTH",
"1120 1026 OFFCURVE",
"922 1200 OFFCURVE",
"578 1200 CURVE SMOOTH",
"316 1200 LINE",
"340 1010 LINE",
"578 1010 LINE SMOOTH",
"789 1010 OFFCURVE",
"910 898 OFFCURVE",
"910 700 CURVE SMOOTH",
"910 516 OFFCURVE",
"789 410 OFFCURVE",
"578 410 CURVE SMOOTH",
"336 410 LINE",
"336 220 LINE"
);
},
{
closed = 1;
nodes = (
"360 0 LINE",
"360 1420 LINE",
"160 1420 LINE",
"160 0 LINE"
);
}
);
width = 1200;
}
);
unicode = 00DE;
},
{
glyphname = Q;
lastChange = "2019-09-22 01:05:09 +0000";
layers = (
{
anchors = (
{
name = bottom;
position = "{600, 0}";
},
{
name = top;
position = "{600, 1420}";
}
);
components = (
{
name = O;
}
);
layerId = "BBAB2DB2-7554-4FB8-925D-17003E4845F8";
paths = (
{
closed = 1;
nodes = (
"1012 -460 LINE",
"1032 -280 LINE",
"930 -280 LINE SMOOTH",
"772 -280 OFFCURVE",
"694 -194 OFFCURVE",
"694 -22 CURVE SMOOTH",
"694 62 LINE",
"496 62 LINE",
"496 -20 LINE SMOOTH",
"496 -314 OFFCURVE",
"642 -460 OFFCURVE",
"930 -460 CURVE SMOOTH"
);
}
);
width = 1200;
}
);
unicode = 0051;
},
{
glyphname = R;
lastChange = "2019-09-28 19:14:38 +0000";
layers = (
{
anchors = (
{
name = bottom;
position = "{610, 0}";
},
{
name = top;
position = "{560, 1420}";
}
);
background = {
paths = (
{
closed = 1;
nodes = (
"786 662 LINE",
"596 662 LINE",
"596 520 LINE SMOOTH",
"596 190 OFFCURVE",
"792 0 OFFCURVE",
"1130 0 CURVE",
"1130 220 LINE",
"912 220 OFFCURVE",
"786 328 OFFCURVE",
"786 518 CURVE SMOOTH"
);
}
);
};
layerId = "BBAB2DB2-7554-4FB8-925D-17003E4845F8";
paths = (
{
closed = 1;
nodes = (
"628 540 LINE SMOOTH",
"922 540 OFFCURVE",
"1090 704 OFFCURVE",
"1090 990 CURVE SMOOTH",
"1090 1264 OFFCURVE",
"922 1420 OFFCURVE",
"628 1420 CURVE SMOOTH",
"304 1420 LINE",
"328 1230 LINE",
"628 1230 LINE SMOOTH",
"787 1230 OFFCURVE",
"880 1136 OFFCURVE",
"880 970 CURVE SMOOTH",
"880 818 OFFCURVE",
"787 730 OFFCURVE",
"628 730 CURVE SMOOTH",
"324 730 LINE",
"324 540 LINE"
);
},
{
closed = 1;
nodes = (
"338 0 LINE",
"338 1420 LINE",
"138 1420 LINE",
"138 0 LINE"
);
},
{
closed = 1;
nodes = (
"1142 0 LINE",
"804 668 LINE",
"582 668 LINE",
"900 0 LINE"
);
}
);
width = 1200;
}
);
unicode = 0052;
},
{
glyphname = S;
lastChange = "2019-09-28 19:14:44 +0000";
layers = (
{
anchors = (
{
name = bottom;
position = "{610, 0}";
},
{
name = top;
position = "{600, 1420}";
}
);
background = {
paths = (
{
closed = 1;
nodes = (
"555 1244 LINE",
"575 1247 OFFCURVE",
"595 1248 OFFCURVE",
"616 1248 CURVE SMOOTH",
"720 1248 OFFCURVE",
"813 1192 OFFCURVE",
"871 1094 CURVE",
"1039 1221 LINE",
"970 1360 OFFCURVE",
"815 1440 OFFCURVE",
"614 1440 CURVE SMOOTH",
"597 1440 OFFCURVE",
"581 1440 OFFCURVE",
"565 1439 CURVE"
);
},
{
closed = 1;
nodes = (
"565 1439 LINE",
"195 1418 OFFCURVE",
"-14 1155 OFFCURVE",
"-14 712 CURVE SMOOTH",
"-14 224 OFFCURVE",
"208 -20 OFFCURVE",
"648 -20 CURVE SMOOTH",
"774 -20 OFFCURVE",
"896 2 OFFCURVE",
"1014 48 CURVE",
"968 224 LINE",
"874 184 OFFCURVE",
"780 164 OFFCURVE",
"682 164 CURVE SMOOTH",
"362 164 OFFCURVE",
"200 350 OFFCURVE",
"200 722 CURVE SMOOTH",
"200 1030 OFFCURVE",
"338 1215 OFFCURVE",
"555 1244 CURVE"
);
}
);
};
layerId = "BBAB2DB2-7554-4FB8-925D-17003E4845F8";
paths = (
{
closed = 1;
nodes = (
"891 -20 OFFCURVE",
"1057 109 OFFCURVE",
"1057 366 CURVE SMOOTH",
"1057 560 OFFCURVE",
"945 673 OFFCURVE",
"735 772 CURVE SMOOTH",
"527 870 LINE SMOOTH",
"431 915 OFFCURVE",
"381 968 OFFCURVE",
"381 1060 CURVE SMOOTH",
"381 1189 OFFCURVE",
"471 1256 OFFCURVE",
"627 1256 CURVE",
"627 1440 LINE",
"335 1440 OFFCURVE",
"167 1298 OFFCURVE",
"167 1050 CURVE SMOOTH",
"167 866 OFFCURVE",
"273 748 OFFCURVE",
"467 660 CURVE SMOOTH",
"713 548 LINE SMOOTH",
"797 510 OFFCURVE",
"843 450 OFFCURVE",
"843 362 CURVE SMOOTH",
"843 229 OFFCURVE",
"753 164 OFFCURVE",
"567 164 CURVE",
"551 -20 LINE"
);
},
{
closed = 1;
nodes = (
"567 164 LINE",
"437 164 OFFCURVE",
"301 197 OFFCURVE",
"155 260 CURVE",
"129 58 LINE",
"249 6 OFFCURVE",
"389 -20 OFFCURVE",
"551 -20 CURVE"
);
},
{
closed = 1;
nodes = (
"627 1256 LINE",
"727 1256 OFFCURVE",
"817 1197 OFFCURVE",
"873 1094 CURVE",
"1041 1221 LINE",
"974 1360 OFFCURVE",
"822 1440 OFFCURVE",
"626 1440 CURVE"
);
}
);
width = 1200;
}
);
unicode = 0053;
},
{
glyphname = Germandbls;
lastChange = "2019-09-24 04:51:16 +0000";
layers = (
{
background = {
anchors = (
{
name = bottom;
position = "{600, 0}";
},
{
name = top;
position = "{600, 1420}";
}
);
paths = (
{
closed = 1;
nodes = (
"588 839 LINE",
"494 645 LINE",
"708 548 LINE SMOOTH",
"792 510 OFFCURVE",
"838 450 OFFCURVE",
"838 362 CURVE SMOOTH",
"838 234 OFFCURVE",
"774 172 OFFCURVE",
"642 172 CURVE SMOOTH",
"575 172 OFFCURVE",
"505 185 OFFCURVE",
"430 210 CURVE",
"404 8 LINE",
"467 -11 OFFCURVE",
"541 -20 OFFCURVE",
"626 -20 CURVE SMOOTH",
"912 -20 OFFCURVE",
"1052 109 OFFCURVE",
"1052 366 CURVE SMOOTH",
"1052 560 OFFCURVE",
"940 674 OFFCURVE",
"730 772 CURVE SMOOTH"
);
}
);
};
layerId = "BBAB2DB2-7554-4FB8-925D-17003E4845F8";
paths = (
{
closed = 1;
nodes = (
"976 -20 OFFCURVE",
"1157 150 OFFCURVE",
"1157 446 CURVE SMOOTH",
"1157 678 OFFCURVE",
"1021 834 OFFCURVE",
"783 876 CURVE",
"811 847 LINE",
"1105 1270 LINE",
"879 1270 LINE",
"546 754 LINE",
"721 704 LINE SMOOTH",
"862 659 OFFCURVE",
"943 560 OFFCURVE",
"943 432 CURVE SMOOTH",
"943 267 OFFCURVE",
"846 172 OFFCURVE",
"677 172 CURVE SMOOTH",
"615 172 OFFCURVE",
"545 179 OFFCURVE",
"485 190 CURVE",
"459 3 LINE",
"509 -11 OFFCURVE",
"583 -20 OFFCURVE",
"661 -20 CURVE SMOOTH"
);
},
{
closed = 1;
nodes = (
"294 1440 OFFCURVE",
"140 1288 OFFCURVE",
"140 930 CURVE SMOOTH",
"140 0 LINE",
"340 0 LINE",
"340 930 LINE SMOOTH",
"340 1154 OFFCURVE",
"434 1251 OFFCURVE",
"656 1250 CURVE SMOOTH",
"749 1250 OFFCURVE",
"840 1210 OFFCURVE",
"933 1130 CURVE",
"1104 1270 LINE",
"974 1384 OFFCURVE",
"826 1440 OFFCURVE",
"656 1440 CURVE SMOOTH"
);
}
);
width = 1200;
}
);
unicode = 1E9E;
},
{
glyphname = Schwa;
lastChange = "2019-09-23 16:30:35 +0000";
layers = (
{
background = {
components = (
{
name = e;
transform = "{-1, 0, 0, -1, 1200, 1060}";
}
);
};
layerId = "BBAB2DB2-7554-4FB8-925D-17003E4845F8";
paths = (
{
closed = 1;
nodes = (
"80 798 LINE",
"77 761 OFFCURVE",
"76 721 OFFCURVE",
"76 680 CURVE SMOOTH",
"76 211 OFFCURVE",
"252 -20 OFFCURVE",
"600 -20 CURVE SMOOTH",
"948 -20 OFFCURVE",
"1124 218 OFFCURVE",
"1124 700 CURVE SMOOTH",
"1124 1194 OFFCURVE",
"914 1440 OFFCURVE",
"500 1440 CURVE SMOOTH",
"385 1440 OFFCURVE",
"273 1425 OFFCURVE",
"168 1394 CURVE",
"196 1217 LINE",
"290 1243 OFFCURVE",
"393 1256 OFFCURVE",
"500 1256 CURVE SMOOTH",
"776 1256 OFFCURVE",
"914 1072 OFFCURVE",
"914 700 CURVE SMOOTH",
"914 342 OFFCURVE",
"809 164 OFFCURVE",
"600 164 CURVE SMOOTH",
"391 164 OFFCURVE",
"286 335 OFFCURVE",
"286 680 CURVE SMOOTH",
"286 716 OFFCURVE",
"287 749 OFFCURVE",
"289 782 CURVE"
);
},
{
closed = 1;
nodes = (
"1021 608 LINE",
"1021 798 LINE",
"80 798 LINE",
"80 608 LINE"
);
}
);
width = 1200;
}
);
unicode = 018F;
},
{
glyphname = T;
lastChange = "2019-09-23 16:45:21 +0000";
layers = (
{
anchors = (
{
name = bottom;
position = "{595, 0}";
},
{
name = center;
position = "{600, 710}";
},
{
name = top;
position = "{600, 1420}";
}
);
layerId = "BBAB2DB2-7554-4FB8-925D-17003E4845F8";
paths = (
{
closed = 1;
nodes = (
"700 0 LINE",
"700 1420 LINE",
"500 1420 LINE",
"500 0 LINE"
);
},
{
closed = 1;
nodes = (
"1120 1230 LINE",
"1120 1420 LINE",
"80 1420 LINE",
"80 1230 LINE"
);
}
);
width = 1200;
}
);
unicode = 0054;
},
{
glyphname = Tbar;
lastChange = "2019-09-24 04:52:10 +0000";
layers = (
{
components = (
{
name = T;
}
);
layerId = "BBAB2DB2-7554-4FB8-925D-17003E4845F8";
paths = (
{
closed = 1;
nodes = (
"1008 562 LINE",
"1008 742 LINE",
"192 742 LINE",
"192 562 LINE"
);
}
);
width = 1200;
}
);
unicode = 0166;
},
{
glyphname = U;
lastChange = "2019-09-23 17:10:38 +0000";
layers = (
{
anchors = (
{
name = bottom;
position = "{600, 0}";
},
{
name = ogonek;
position = "{1080, 10}";
},
{
name = top;
position = "{600, 1420}";
},
{
name = topright;
position = "{1180, 1420}";
}
);
layerId = "BBAB2DB2-7554-4FB8-925D-17003E4845F8";
paths = (
{
closed = 1;
nodes = (
"900 -20 OFFCURVE",
"1060 138 OFFCURVE",
"1060 456 CURVE SMOOTH",
"1060 1420 LINE",
"860 1420 LINE",
"860 456 LINE SMOOTH",
"860 266 OFFCURVE",
"772 170 OFFCURVE",
"600 170 CURVE SMOOTH",
"420 170 OFFCURVE",
"340 266 OFFCURVE",
"340 456 CURVE SMOOTH",
"340 1420 LINE",
"140 1420 LINE",
"140 456 LINE SMOOTH",
"140 138 OFFCURVE",
"292 -20 OFFCURVE",
"596 -20 CURVE SMOOTH"
);
}
);
width = 1200;
}
);
unicode = 0055;
},
{
glyphname = Uogonek;
lastChange = "2019-09-25 06:48:58 +0000";
layers = (
{
background = {
paths = (
{
closed = 1;
nodes = (
"802 32 LINE",
"562 30 LINE",
"562 -40 LINE",
"477 -64 OFFCURVE",
"428 -134 OFFCURVE",
"428 -232 CURVE SMOOTH",
"428 -354 OFFCURVE",
"515 -424 OFFCURVE",
"668 -424 CURVE SMOOTH",
"694 -424 OFFCURVE",
"728 -421 OFFCURVE",
"758 -415 CURVE",
"776 -245 LINE",
"746 -252 OFFCURVE",
"717 -256 OFFCURVE",
"694 -256 CURVE SMOOTH",
"620 -256 OFFCURVE",
"578 -224 OFFCURVE",
"578 -168 CURVE SMOOTH",
"578 -61 OFFCURVE",
"660 0 OFFCURVE",
"802 0 CURVE"
);
}
);
};
components = (
{
name = U;
}
);
layerId = "BBAB2DB2-7554-4FB8-925D-17003E4845F8";
paths = (
{
closed = 1;
nodes = (
"762 40 LINE",
"562 30 LINE",
"562 -40 LINE",
"477 -64 OFFCURVE",
"428 -134 OFFCURVE",
"428 -232 CURVE SMOOTH",
"428 -354 OFFCURVE",
"515 -424 OFFCURVE",
"668 -424 CURVE SMOOTH",
"694 -424 OFFCURVE",
"724 -421 OFFCURVE",
"758 -415 CURVE",
"776 -245 LINE",
"743 -253 OFFCURVE",
"716 -256 OFFCURVE",
"694 -256 CURVE SMOOTH",
"601 -256 OFFCURVE",
"578 -203 OFFCURVE",
"578 -168 CURVE SMOOTH",
"578 -52 OFFCURVE",
"702 -21 OFFCURVE",
"806 13 CURVE"
);
}
);
width = 1200;
}
);
unicode = 0172;
},
{
glyphname = V;
lastChange = "2019-09-22 01:05:09 +0000";
layers = (
{
anchors = (
{
name = bottom;
position = "{600, 0}";
},
{
name = top;
position = "{600, 1420}";
}
);
layerId = "BBAB2DB2-7554-4FB8-925D-17003E4845F8";
paths = (
{
closed = 1;
nodes = (
"754 0 LINE",
"1154 1420 LINE",
"940 1420 LINE",
"608 170 LINE",
"590 170 LINE",
"258 1420 LINE",
"44 1420 LINE",
"444 0 LINE"
);
}
);
width = 1200;
}
);
unicode = 0056;
},
{
glyphname = W;
lastChange = "2019-09-28 19:02:33 +0000";
layers = (
{
anchors = (
{
name = bottom;
position = "{600, 0}";
},
{
name = top;
position = "{600, 1420}";
}
);
background = {
components = (
{
name = w;
transform = "{1, 0, 0, 1, 10, 0}";
}
);
};
layerId = "BBAB2DB2-7554-4FB8-925D-17003E4845F8";
paths = (
{
closed = 1;
nodes = (
"489 0 LINE",
"594 862 LINE",
"624 862 LINE",
"701 1060 LINE",
"501 1060 LINE",
"370 160 LINE",
"350 160 LINE",
"230 1420 LINE",
"20 1420 LINE",
"180 0 LINE"
);
},
{
closed = 1;
nodes = (
"1020 0 LINE",
"1180 1420 LINE",
"970 1420 LINE",
"850 160 LINE",
"830 160 LINE",
"701 1060 LINE",
"501 1060 LINE",
"556 862 LINE",
"606 862 LINE",
"711 0 LINE"
);
}
);
width = 1200;
}
);
unicode = 0057;
},
{
glyphname = X;
lastChange = "2019-09-22 01:05:09 +0000";
layers = (
{
anchors = (
{
name = bottom;
position = "{600, 0}";
},
{
name = top;
position = "{600, 1420}";
}
);
background = {
components = (
{
name = x;
}
);
};
layerId = "BBAB2DB2-7554-4FB8-925D-17003E4845F8";
paths = (
{
closed = 1;
nodes = (
"542 636 LINE",
"66 1420 LINE",
"296 1420 LINE",
"674 746 LINE",
"1136 0 LINE",
"906 0 LINE"
);
},
{
closed = 1;
nodes = (
"528 746 LINE",
"906 1420 LINE",
"1136 1420 LINE",
"660 636 LINE",
"296 0 LINE",
"66 0 LINE"
);
}
);
width = 1200;
}
);
unicode = 0058;
},
{
glyphname = Y;
lastChange = "2019-09-22 01:04:14 +0000";
layers = (
{
anchors = (
{
name = bottom;
position = "{600, 0}";
},
{
name = top;
position = "{600, 1420}";
},
{
name = topleft;
position = "{20, 1420}";
}
);
background = {
components = (
{
name = V;
}
);
};
layerId = "BBAB2DB2-7554-4FB8-925D-17003E4845F8";
paths = (
{
closed = 1;
nodes = (
"686 474 LINE",
"1176 1420 LINE",
"956 1420 LINE",
"610 710 LINE",
"592 710 LINE",
"246 1420 LINE",
"26 1420 LINE",
"516 474 LINE"
);
},
{
closed = 1;
nodes = (
"703 0 LINE",
"703 700 LINE",
"503 700 LINE",
"503 0 LINE"
);
}
);
width = 1200;
}
);
unicode = 0059;
},
{
glyphname = Z;
lastChange = "2019-09-22 01:05:09 +0000";
layers = (
{
anchors = (
{
name = bottom;
position = "{600, 0}";
},
{
name = center;
position = "{600, 710}";
},
{
name = top;
position = "{600, 1420}";
}
);
layerId = "BBAB2DB2-7554-4FB8-925D-17003E4845F8";
paths = (
{
closed = 1;
nodes = (
"1050 1230 LINE",
"888 1362 LINE",
"150 176 LINE",
"296 54 LINE"
);
},
{
closed = 1;
nodes = (
"1070 0 LINE",
"1070 176 LINE",
"150 176 LINE",
"150 0 LINE"
);
},
{
closed = 1;
nodes = (
"1050 1230 LINE",
"1050 1420 LINE",
"150 1420 LINE",
"150 1230 LINE"
);
}
);
width = 1200;
}
);
unicode = 005A;
},
{
glyphname = a;
lastChange = "2019-09-28 19:14:50 +0000";
layers = (
{
anchors = (
{
name = bottom;
position = "{600, 0}";
},
{
name = ogonek;
position = "{1080, 10}";
},
{
name = top;
position = "{580, 1060}";
}
);
background = {
paths = (
{
closed = 1;
nodes = (
"794 244 LINE",
"808 -10 LINE",
"1148 0 LINE",
"1148 170 LINE",
"968 192 LINE",
"968 574 LINE",
"972 854 OFFCURVE",
"820 1002 OFFCURVE",
"510 1012 CURVE SMOOTH",
"236 1020 LINE",
"216 830 LINE",
"530 818 LINE SMOOTH",
"680 812 OFFCURVE",
"756 746 OFFCURVE",
"756 606 CURVE SMOOTH",
"756 332 LINE"
);
},
{
closed = 1;
nodes = (
"756 436 LINE",
"756 320 LINE",
"756 214 OFFCURVE",
"674 160 OFFCURVE",
"508 160 CURVE SMOOTH",
"368 160 OFFCURVE",
"296 204 OFFCURVE",
"296 290 CURVE SMOOTH",
"296 378 OFFCURVE",
"372 422 OFFCURVE",
"522 422 CURVE SMOOTH",
"606 422 OFFCURVE",
"690 422 OFFCURVE",
"774 402 CURVE",
"868 556 LINE",
"782 586 OFFCURVE",
"674 602 OFFCURVE",
"536 602 CURVE SMOOTH",
"250 602 OFFCURVE",
"86 484 OFFCURVE",
"86 270 CURVE SMOOTH",
"86 84 OFFCURVE",
"214 -20 OFFCURVE",
"434 -20 CURVE SMOOTH",
"644 -20 OFFCURVE",
"778 52 OFFCURVE",
"778 196 CURVE",
"684 164 LINE",
"828 164 LINE"
);
}
);
};
layerId = "BBAB2DB2-7554-4FB8-925D-17003E4845F8";
paths = (
{
closed = 1;
nodes = (
"1158 0 LINE",
"1158 170 LINE",
"978 192 LINE",
"978 634 LINE SMOOTH",
"978 914 OFFCURVE",
"810 1062 OFFCURVE",
"460 1067 CURVE SMOOTH",
"246 1070 LINE",
"226 882 LINE",
"480 875 LINE SMOOTH",
"676 870 OFFCURVE",
"776 807 OFFCURVE",
"776 666 CURVE SMOOTH",
"776 392 LINE",
"804 304 LINE",
"818 -10 LINE"
);
},
{
closed = 1;
nodes = (
"654 -20 OFFCURVE",
"788 72 OFFCURVE",
"788 256 CURVE",
"754 224 LINE",
"838 224 LINE",
"776 496 LINE",
"776 380 LINE",
"776 268 OFFCURVE",
"676 150 OFFCURVE",
"478 150 CURVE SMOOTH",
"358 150 OFFCURVE",
"296 204 OFFCURVE",
"296 306 CURVE SMOOTH",
"296 410 OFFCURVE",
"384 464 OFFCURVE",
"552 464 CURVE SMOOTH",
"648 464 OFFCURVE",
"738 464 OFFCURVE",
"834 424 CURVE",
"878 568 LINE",
"798 612 OFFCURVE",
"696 634 OFFCURVE",
"566 634 CURVE SMOOTH",
"266 634 OFFCURVE",
"96 510 OFFCURVE",
"96 286 CURVE SMOOTH",
"96 90 OFFCURVE",
"224 -20 OFFCURVE",
"444 -20 CURVE SMOOTH"
);
}
);
width = 1200;
}
);
unicode = 0061;
},
{
glyphname = aogonek;
lastChange = "2019-09-25 06:45:55 +0000";
layers = (
{
background = {
components = (
{
name = a;
transform = "{1, 0, 0, 1, 901, -1300}";
}
);
};
components = (
{
name = a;
}
);
layerId = "BBAB2DB2-7554-4FB8-925D-17003E4845F8";
paths = (
{
closed = 1;
nodes = (
"1132 32 LINE",
"912 30 LINE",
"912 -40 LINE",
"827 -64 OFFCURVE",
"778 -134 OFFCURVE",
"778 -232 CURVE SMOOTH",
"778 -354 OFFCURVE",
"865 -424 OFFCURVE",
"1018 -424 CURVE SMOOTH",
"1044 -424 OFFCURVE",
"1078 -421 OFFCURVE",
"1108 -415 CURVE",
"1126 -245 LINE",
"1096 -252 OFFCURVE",
"1067 -256 OFFCURVE",
"1044 -256 CURVE SMOOTH",
"970 -256 OFFCURVE",
"928 -224 OFFCURVE",
"928 -168 CURVE SMOOTH",
"928 -61 OFFCURVE",
"1010 0 OFFCURVE",
"1152 0 CURVE"
);
}
);
width = 1200;
}
);
unicode = 0105;
},
{
glyphname = ae;
lastChange = "2019-09-23 23:26:58 +0000";
layers = (
{
anchors = (
{
name = bottom;
position = "{600, 0}";
},
{
name = top;
position = "{600, 1060}";
}
);
background = {
paths = (
{
closed = 1;
nodes = (
"986 -20 OFFCURVE",
"1043 -17 OFFCURVE",
"1112 -2 CURVE",
"1086 184 LINE",
"1045 172 OFFCURVE",
"1007 166 OFFCURVE",
"966 166 CURVE SMOOTH",
"804 166 OFFCURVE",
"712 296 OFFCURVE",
"712 542 CURVE SMOOTH",
"712 766 OFFCURVE",
"765 894 OFFCURVE",
"856 894 CURVE SMOOTH",
"935 894 OFFCURVE",
"982 788 OFFCURVE",
"982 598 CURVE",
"694 598 LINE",
"694 436 LINE",
"1168 436 LINE",
"1172 478 OFFCURVE",
"1174 522 OFFCURVE",
"1174 572 CURVE SMOOTH",
"1174 902 OFFCURVE",
"1057 1080 OFFCURVE",
"854 1080 CURVE SMOOTH",
"639 1080 OFFCURVE",
"516 878 OFFCURVE",
"516 532 CURVE SMOOTH",
"516 176 OFFCURVE",
"670 -20 OFFCURVE",
"942 -20 CURVE SMOOTH"
);
}
);
};
layerId = "BBAB2DB2-7554-4FB8-925D-17003E4845F8";
paths = (
{
closed = 1;
nodes = (
"673 310 LINE",
"673 634 LINE SMOOTH",
"673 902 OFFCURVE",
"517 1058 OFFCURVE",
"245 1067 CURVE SMOOTH",
"151 1070 LINE",
"131 888 LINE",
"225 885 LINE SMOOTH",
"412 879 OFFCURVE",
"521 798 OFFCURVE",
"521 666 CURVE SMOOTH",
"521 392 LINE",
"549 374 LINE",
"543 310 LINE"
);
},
{
closed = 1;
nodes = (
"486 -20 OFFCURVE",
"571 77 OFFCURVE",
"593 246 CURVE",
"509 214 LINE",
"613 214 LINE",
"521 496 LINE",
"521 380 LINE",
"521 234 OFFCURVE",
"459 150 OFFCURVE",
"353 150 CURVE SMOOTH",
"263 150 OFFCURVE",
"211 207 OFFCURVE",
"211 306 CURVE SMOOTH",
"211 412 OFFCURVE",
"275 474 OFFCURVE",
"387 474 CURVE SMOOTH",
"462 474 OFFCURVE",
"524 459 OFFCURVE",
"559 434 CURVE",
"603 568 LINE",
"554 610 OFFCURVE",
"477 634 OFFCURVE",
"391 634 CURVE SMOOTH",
"156 634 OFFCURVE",
"21 507 OFFCURVE",
"21 286 CURVE SMOOTH",
"21 91 OFFCURVE",
"122 -20 OFFCURVE",
"299 -20 CURVE SMOOTH"
);
},
{
closed = 1;
nodes = (
"1018 -20 OFFCURVE",
"1080 -13 OFFCURVE",
"1133 -2 CURVE",
"1107 169 LINE",
"1068 161 OFFCURVE",
"1024 156 OFFCURVE",
"987 156 CURVE SMOOTH",
"807 156 OFFCURVE",
"703 297 OFFCURVE",
"703 542 CURVE SMOOTH",
"703 789 OFFCURVE",
"747 894 OFFCURVE",
"847 894 CURVE SMOOTH",
"950 894 OFFCURVE",
"993 803 OFFCURVE",
"993 588 CURVE",
"685 588 LINE",
"685 436 LINE",
"1169 436 LINE",
"1173 476 OFFCURVE",
"1175 526 OFFCURVE",
"1175 572 CURVE SMOOTH",
"1175 895 OFFCURVE",
"1064 1080 OFFCURVE",
"870 1080 CURVE SMOOTH",
"672 1080 OFFCURVE",
"557 880 OFFCURVE",
"557 532 CURVE SMOOTH",
"557 181 OFFCURVE",
"705 -20 OFFCURVE",
"963 -20 CURVE SMOOTH"
);
}
);
width = 1200;
}
);
unicode = 00E6;
},
{
glyphname = b;
lastChange = "2019-09-23 16:36:20 +0000";
layers = (
{
anchors = (
{
name = bottom;
position = "{640, 0}";
},
{
name = top;
position = "{280, 1568}";
}
);
background = {
paths = (
{
closed = 1;
nodes = (
"380 1500 LINE",
"168 1500 LINE",
"172 0 LINE",
"380 0 LINE"
);
},
{
closed = 1;
nodes = (
"318 212 LINE",
"392 212 LINE",
"430 64 OFFCURVE",
"552 -20 OFFCURVE",
"724 -20 CURVE SMOOTH",
"966 -20 OFFCURVE",
"1104 170 OFFCURVE",
"1104 500 CURVE SMOOTH",
"1104 830 OFFCURVE",
"958 1020 OFFCURVE",
"702 1020 CURVE SMOOTH",
"548 1020 OFFCURVE",
"436 936 OFFCURVE",
"398 788 CURVE",
"318 788 LINE"
);
},
{
closed = 1;
nodes = (
"478 170 OFFCURVE",
"380 290 OFFCURVE",
"380 500 CURVE SMOOTH",
"380 710 OFFCURVE",
"472 830 OFFCURVE",
"632 830 CURVE SMOOTH",
"792 830 OFFCURVE",
"884 710 OFFCURVE",
"884 500 CURVE SMOOTH",
"884 290 OFFCURVE",
"796 170 OFFCURVE",
"646 170 CURVE SMOOTH"
);
}
);
};
layerId = "BBAB2DB2-7554-4FB8-925D-17003E4845F8";
paths = (
{
closed = 1;
nodes = (
"892 -20 OFFCURVE",
"1104 184 OFFCURVE",
"1104 540 CURVE SMOOTH",
"1104 884 OFFCURVE",
"942 1080 OFFCURVE",
"660 1080 CURVE SMOOTH",
"496 1080 OFFCURVE",
"410 1010 OFFCURVE",
"400 868 CURVE",
"318 868 LINE",
"380 596 LINE",
"380 800 OFFCURVE",
"470 900 OFFCURVE",
"650 900 CURVE SMOOTH",
"806 900 OFFCURVE",
"894 770 OFFCURVE",
"894 540 CURVE SMOOTH",
"894 298 OFFCURVE",
"774 160 OFFCURVE",
"564 160 CURVE SMOOTH",
"456 160 OFFCURVE",
"340 160 OFFCURVE",
"250 194 CURVE",
"168 0 LINE",
"288 -12 OFFCURVE",
"402 -20 OFFCURVE",
"522 -20 CURVE SMOOTH"
);
},
{
closed = 1;
nodes = (
"380 18 LINE",
"380 1500 LINE",
"168 1500 LINE",
"168 0 LINE"
);
}
);
width = 1200;
}
);
unicode = 0062;
},
{
glyphname = c;
lastChange = "2019-09-28 19:15:04 +0000";
layers = (
{
anchors = (
{
name = bottom;
position = "{650, 0}";
},
{
name = top;
position = "{650, 1060}";
}
);
background = {
paths = (
{
closed = 1;
nodes = (
"800 -20 OFFCURVE",
"926 -14 OFFCURVE",
"1042 10 CURVE",
"1018 196 LINE",
"918 180 OFFCURVE",
"812 170 OFFCURVE",
"706 170 CURVE SMOOTH",
"482 170 OFFCURVE",
"356 300 OFFCURVE",
"356 542 CURVE SMOOTH",
"356 764 OFFCURVE",
"462 890 OFFCURVE",
"646 890 CURVE SMOOTH",
"772 890 OFFCURVE",
"846 820 OFFCURVE",
"846 702 CURVE",
"1064 702 LINE",
"1064 1080 OFFCURVE",
"732 1080 OFFCURVE",
"644 1080 CURVE SMOOTH",
"318 1080 OFFCURVE",
"136 878 OFFCURVE",
"136 532 CURVE SMOOTH",
"136 176 OFFCURVE",
"334 -20 OFFCURVE",
"682 -20 CURVE SMOOTH"
);
}
);
};
layerId = "BBAB2DB2-7554-4FB8-925D-17003E4845F8";
paths = (
{
closed = 1;
nodes = (
"1097 860 LINE",
"1034 1000 OFFCURVE",
"880 1080 OFFCURVE",
"674 1080 CURVE SMOOTH",
"329 1080 OFFCURVE",
"136 878 OFFCURVE",
"136 532 CURVE SMOOTH",
"136 176 OFFCURVE",
"334 -20 OFFCURVE",
"682 -20 CURVE SMOOTH",
"800 -20 OFFCURVE",
"926 -14 OFFCURVE",
"1042 10 CURVE",
"1018 196 LINE",
"918 180 OFFCURVE",
"812 170 OFFCURVE",
"706 170 CURVE SMOOTH",
"482 170 OFFCURVE",
"356 300 OFFCURVE",
"356 542 CURVE SMOOTH",
"356 764 OFFCURVE",
"470 890 OFFCURVE",
"666 890 CURVE SMOOTH",
"777 890 OFFCURVE",
"874 834 OFFCURVE",
"934 737 CURVE"
);
}
);
width = 1200;
}
);
unicode = 0063;
},
{
glyphname = d;
lastChange = "2019-09-28 19:15:08 +0000";
layers = (
{
anchors = (
{
name = bottom;
position = "{540, 0}";
},
{
name = center;
position = "{600, 530}";
},
{
name = top;
position = "{926, 1568}";
},
{
name = topright;
position = "{1180, 1060}";
}
);
background = {
paths = (
{
closed = 1;
nodes = (
"820 436 LINE",
"820 320 LINE SMOOTH",
"820 214 OFFCURVE",
"738 160 OFFCURVE",
"572 160 CURVE SMOOTH",
"396 160 OFFCURVE",
"306 278 OFFCURVE",
"306 510 CURVE SMOOTH",
"306 720 OFFCURVE",
"394 840 OFFCURVE",
"550 840 CURVE SMOOTH",
"730 840 OFFCURVE",
"820 740 OFFCURVE",
"820 536 CURVE",
"882 808 LINE",
"792 808 LINE",
"782 950 OFFCURVE",
"698 1020 OFFCURVE",
"540 1020 CURVE SMOOTH",
"258 1020 OFFCURVE",
"96 834 OFFCURVE",
"96 510 CURVE SMOOTH",
"96 170 OFFCURVE",
"244 -20 OFFCURVE",
"498 -20 CURVE SMOOTH",
"670 -20 OFFCURVE",
"784 42 OFFCURVE",
"800 164 CURVE",
"892 164 LINE"
);
},
{
closed = 1;
nodes = (
"860 158 OFFCURVE",
"744 160 OFFCURVE",
"636 160 CURVE SMOOTH",
"426 160 OFFCURVE",
"306 288 OFFCURVE",
"306 510 CURVE SMOOTH",
"306 708 OFFCURVE",
"432 820 OFFCURVE",
"650 820 CURVE SMOOTH",
"848 820 LINE",
"848 1000 LINE",
"640 1000 LINE SMOOTH",
"294 1000 OFFCURVE",
"96 822 OFFCURVE",
"96 510 CURVE SMOOTH",
"96 174 OFFCURVE",
"308 -20 OFFCURVE",
"678 -20 CURVE SMOOTH",
"798 -20 OFFCURVE",
"924 -12 OFFCURVE",
"1028 0 CURVE",
"950 194 LINE"
);
}
);
};
layerId = "BBAB2DB2-7554-4FB8-925D-17003E4845F8";
paths = (
{
closed = 1;
nodes = (
"678 -20 OFFCURVE",
"786 42 OFFCURVE",
"800 164 CURVE",
"892 164 LINE",
"820 456 LINE",
"820 340 LINE SMOOTH",
"820 220 OFFCURVE",
"732 160 OFFCURVE",
"552 160 CURVE SMOOTH",
"390 160 OFFCURVE",
"306 282 OFFCURVE",
"306 520 CURVE SMOOTH",
"306 762 OFFCURVE",
"394 900 OFFCURVE",
"550 900 CURVE SMOOTH",
"730 900 OFFCURVE",
"820 800 OFFCURVE",
"820 596 CURVE",
"882 868 LINE",
"800 868 LINE",
"782 1010 OFFCURVE",
"690 1080 OFFCURVE",
"520 1080 CURVE SMOOTH",
"250 1080 OFFCURVE",
"96 876 OFFCURVE",
"96 520 CURVE SMOOTH",
"96 172 OFFCURVE",
"250 -20 OFFCURVE",
"518 -20 CURVE SMOOTH"
);
},
{
closed = 1;
nodes = (
"1032 0 LINE",
"1032 1500 LINE",
"820 1500 LINE",
"820 198 LINE",
"842 -10 LINE"
);
}
);
width = 1200;
}
);
unicode = 0064;
},
{
glyphname = eth;
lastChange = "2019-09-24 04:58:30 +0000";
layers = (
{
layerId = "BBAB2DB2-7554-4FB8-925D-17003E4845F8";
paths = (
{
closed = 1;
nodes = (
"1084 526 LINE",
"1084 574 LINE SMOOTH",
"1084 1087 OFFCURVE",
"876 1368 OFFCURVE",
"388 1516 CURVE",
"338 1416 LINE",
"706 1281 OFFCURVE",
"862 1057 OFFCURVE",
"862 666 CURVE SMOOTH",
"862 272 LINE"
);
},
{
closed = 1;
nodes = (
"904 -20 OFFCURVE",
"1084 178 OFFCURVE",
"1084 526 CURVE",
"918 408 LINE",
"918 728 LINE",
"844 728 LINE",
"804 876 OFFCURVE",
"678 960 OFFCURVE",
"506 960 CURVE SMOOTH",
"258 960 OFFCURVE",
"118 785 OFFCURVE",
"118 480 CURVE SMOOTH",
"118 163 OFFCURVE",
"286 -20 OFFCURVE",
"584 -20 CURVE SMOOTH"
);
},
{
closed = 1;
nodes = (
"422 164 OFFCURVE",
"332 279 OFFCURVE",
"332 480 CURVE SMOOTH",
"332 670 OFFCURVE",
"426 776 OFFCURVE",
"596 776 CURVE SMOOTH",
"766 776 OFFCURVE",
"862 654 OFFCURVE",
"862 440 CURVE SMOOTH",
"862 256 OFFCURVE",
"768 164 OFFCURVE",
"582 164 CURVE SMOOTH"
);
},
{
closed = 1;
nodes = (
"1104 1237 LINE",
"1064 1412 LINE",
"238 1252 LINE",
"278 1077 LINE"
);
}
);
width = 1200;
}
);
unicode = 00F0;
},
{
glyphname = dcaron;
lastChange = "2019-09-23 19:59:15 +0000";
layers = (
{
background = {
components = (
{
name = d;
}
);
};
layerId = "BBAB2DB2-7554-4FB8-925D-17003E4845F8";
paths = (
{
closed = 1;
nodes = (
"682 -20 OFFCURVE",
"786 42 OFFCURVE",
"800 164 CURVE",
"892 164 LINE",
"820 456 LINE",
"820 340 LINE SMOOTH",
"820 220 OFFCURVE",
"735 160 OFFCURVE",
"562 160 CURVE SMOOTH",
"391 160 OFFCURVE",
"306 279 OFFCURVE",
"306 520 CURVE SMOOTH",
"306 774 OFFCURVE",
"390 900 OFFCURVE",
"560 900 CURVE SMOOTH",
"733 900 OFFCURVE",
"820 800 OFFCURVE",
"820 596 CURVE",
"882 868 LINE",
"800 868 LINE",
"782 1010 OFFCURVE",
"695 1080 OFFCURVE",
"530 1080 CURVE SMOOTH",
"240 1080 OFFCURVE",
"96 894 OFFCURVE",
"96 520 CURVE SMOOTH",
"96 159 OFFCURVE",
"239 -20 OFFCURVE",
"528 -20 CURVE SMOOTH"
);
},
{
closed = 1;
nodes = (
"1032 0 LINE",
"1032 1500 LINE",
"820 1500 LINE",
"820 198 LINE",
"842 -10 LINE"
);
},
{
closed = 1;
nodes = (
"1294 1188 LINE",
"1384 1568 LINE",
"1172 1568 LINE",
"1122 1188 LINE"
);
}
);
width = 1200;
}
);
unicode = 010F;
},
{
glyphname = dcroat;
lastChange = "2019-09-28 19:22:51 +0000";
layers = (
{
components = (
{
name = d;
}
);
layerId = "BBAB2DB2-7554-4FB8-925D-17003E4845F8";
paths = (
{
closed = 1;
nodes = (
"1138 1216 LINE",
"1138 1392 LINE",
"462 1392 LINE",
"462 1216 LINE"
);
}
);
width = 1200;
}
);
unicode = 0111;
},
{
glyphname = e;
lastChange = "2019-09-26 20:41:11 +0000";
layers = (
{
anchors = (
{
name = bottom;
position = "{630, 0}";
},
{
name = ogonek;
position = "{1080, 10}";
},
{
name = top;
position = "{620, 1060}";
}
);
background = {
paths = (
{
closed = 1;
nodes = (
"1032 622 LINE",
"1032 1020 OFFCURVE",
"710 1020 OFFCURVE",
"624 1020 CURVE SMOOTH",
"312 1020 OFFCURVE",
"136 830 OFFCURVE",
"136 502 CURVE SMOOTH",
"136 166 OFFCURVE",
"350 -20 OFFCURVE",
"722 -20 CURVE SMOOTH",
"816 -20 OFFCURVE",
"916 -14 OFFCURVE",
"1010 10 CURVE",
"986 196 LINE",
"908 180 OFFCURVE",
"828 170 OFFCURVE",
"746 170 CURVE SMOOTH",
"496 170 OFFCURVE",
"356 290 OFFCURVE",
"356 512 CURVE SMOOTH",
"356 714 OFFCURVE",
"456 830 OFFCURVE",
"626 830 CURVE SMOOTH",
"744 830 OFFCURVE",
"814 754 OFFCURVE",
"814 622 CURVE"
);
}
);
};
layerId = "BBAB2DB2-7554-4FB8-925D-17003E4845F8";
paths = (
{
closed = 1;
nodes = (
"782 -20 OFFCURVE",
"886 -16 OFFCURVE",
"1012 8 CURVE",
"986 194 LINE",
"898 176 OFFCURVE",
"814 166 OFFCURVE",
"726 166 CURVE SMOOTH",
"474 166 OFFCURVE",
"332 296 OFFCURVE",
"332 542 CURVE SMOOTH",
"332 766 OFFCURVE",
"436 894 OFFCURVE",
"616 894 CURVE SMOOTH",
"776 894 OFFCURVE",
"872 788 OFFCURVE",
"872 598 CURVE",
"314 598 LINE",
"314 436 LINE",
"1058 436 LINE",
"1062 478 OFFCURVE",
"1064 522 OFFCURVE",
"1064 572 CURVE SMOOTH",
"1064 902 OFFCURVE",
"900 1080 OFFCURVE",
"614 1080 CURVE SMOOTH",
"310 1080 OFFCURVE",
"136 878 OFFCURVE",
"136 532 CURVE SMOOTH",
"136 176 OFFCURVE",
"340 -20 OFFCURVE",
"702 -20 CURVE SMOOTH"
);
}
);
width = 1200;
}
);
unicode = 0065;
},
{
glyphname = eogonek;
lastChange = "2019-09-25 06:46:19 +0000";
layers = (
{
background = {
paths = (
{
closed = 1;
nodes = (
"992 32 LINE",
"772 30 LINE",
"772 -40 LINE",
"687 -64 OFFCURVE",
"638 -134 OFFCURVE",
"638 -232 CURVE SMOOTH",
"638 -354 OFFCURVE",
"725 -424 OFFCURVE",
"878 -424 CURVE SMOOTH",
"904 -424 OFFCURVE",
"938 -421 OFFCURVE",
"968 -415 CURVE",
"986 -245 LINE",
"956 -252 OFFCURVE",
"927 -256 OFFCURVE",
"904 -256 CURVE SMOOTH",
"830 -256 OFFCURVE",
"788 -224 OFFCURVE",
"788 -168 CURVE SMOOTH",
"788 -61 OFFCURVE",
"870 0 OFFCURVE",
"1012 0 CURVE"
);
}
);
};
components = (
{
name = e;
}
);
layerId = "BBAB2DB2-7554-4FB8-925D-17003E4845F8";
paths = (
{
closed = 1;
nodes = (
"992 40 LINE",
"772 30 LINE",
"772 -40 LINE",
"687 -64 OFFCURVE",
"638 -134 OFFCURVE",
"638 -232 CURVE SMOOTH",
"638 -354 OFFCURVE",
"725 -424 OFFCURVE",
"878 -424 CURVE SMOOTH",
"904 -424 OFFCURVE",
"934 -421 OFFCURVE",
"968 -415 CURVE",
"986 -245 LINE",
"953 -253 OFFCURVE",
"926 -256 OFFCURVE",
"904 -256 CURVE SMOOTH",
"811 -256 OFFCURVE",
"788 -203 OFFCURVE",
"788 -168 CURVE SMOOTH",
"788 -55 OFFCURVE",
"910 -16 OFFCURVE",
"1012 8 CURVE"
);
}
);
width = 1200;
}
);
unicode = 0119;
},
{
glyphname = schwa;
lastChange = "2019-09-23 18:14:13 +0000";
layers = (
{
anchors = (
{
name = bottom;
position = "{590, 0}";
},
{
name = top;
position = "{570, 1060}";
}
);
layerId = "BBAB2DB2-7554-4FB8-925D-17003E4845F8";
paths = (
{
closed = 1;
nodes = (
"418 1080 OFFCURVE",
"314 1073 OFFCURVE",
"188 1032 CURVE",
"214 856 LINE",
"302 880 OFFCURVE",
"386 894 OFFCURVE",
"474 894 CURVE SMOOTH",
"726 894 OFFCURVE",
"868 764 OFFCURVE",
"868 518 CURVE SMOOTH",
"868 294 OFFCURVE",
"764 166 OFFCURVE",
"584 166 CURVE SMOOTH",
"424 166 OFFCURVE",
"328 272 OFFCURVE",
"328 462 CURVE",
"886 462 LINE",
"886 624 LINE",
"142 624 LINE",
"138 582 OFFCURVE",
"136 538 OFFCURVE",
"136 488 CURVE SMOOTH",
"136 158 OFFCURVE",
"300 -20 OFFCURVE",
"586 -20 CURVE SMOOTH",
"890 -20 OFFCURVE",
"1064 182 OFFCURVE",
"1064 528 CURVE SMOOTH",
"1064 884 OFFCURVE",
"860 1080 OFFCURVE",
"498 1080 CURVE SMOOTH"
);
}
);
width = 1200;
}
);
unicode = 0259;
},
{
glyphname = f;
lastChange = "2019-09-23 16:37:02 +0000";
layers = (
{
anchors = (
{
name = bottom;
position = "{508, 0}";
},
{
name = top;
position = "{740, 1568}";
}
);
background = {
guideLines = (
{
position = "{343, 747}";
},
{
position = "{343, 757}";
}
);
paths = (
{
closed = 1;
nodes = (
"566 0 LINE",
"566 1000 LINE",
"356 1000 LINE",
"354 0 LINE"
);
},
{
closed = 1;
nodes = (
"1020 644 LINE",
"1020 820 LINE",
"100 820 LINE",
"100 644 LINE"
);
},
{
closed = 1;
nodes = (
"566 764 LINE",
"566 1066 LINE SMOOTH",
"566 1242 OFFCURVE",
"654 1330 OFFCURVE",
"830 1330 CURVE SMOOTH",
"902 1330 OFFCURVE",
"982 1324 OFFCURVE",
"1074 1306 CURVE",
"1096 1490 LINE",
"990 1512 OFFCURVE",
"896 1520 OFFCURVE",
"810 1520 CURVE SMOOTH",
"502 1520 OFFCURVE",
"356 1380 OFFCURVE",
"356 1094 CURVE SMOOTH",
"356 1018 OFFCURVE",
"356 716 OFFCURVE",
"356 492 CURVE",
"474 554 LINE"
);
}
);
};
layerId = "BBAB2DB2-7554-4FB8-925D-17003E4845F8";
paths = (
{
closed = 1;
nodes = (
"614 0 LINE",
"614 980 LINE SMOOTH",
"614 1214 OFFCURVE",
"708 1330 OFFCURVE",
"898 1330 CURVE SMOOTH",
"958 1330 OFFCURVE",
"1018 1326 OFFCURVE",
"1102 1316 CURVE",
"1124 1500 LINE",
"1050 1514 OFFCURVE",
"984 1520 OFFCURVE",
"904 1520 CURVE SMOOTH",
"568 1520 OFFCURVE",
"402 1338 OFFCURVE",
"402 970 CURVE SMOOTH",
"402 0 LINE"
);
},
{
closed = 1;
nodes = (
"1048 644 LINE",
"1048 820 LINE",
"68 820 LINE",
"68 644 LINE"
);
}
);
width = 1200;
}
);
unicode = 0066;
},
{
glyphname = g;
lastChange = "2019-09-28 19:15:12 +0000";
layers = (
{
anchors = (
{
name = bottom;
position = "{540, -480}";
},
{
name = top;
position = "{580, 1060}";
}
);
background = {
paths = (
{
closed = 1;
nodes = (
"818 204 LINE",
"818 -16 LINE SMOOTH",
"818 -156 OFFCURVE",
"742 -218 OFFCURVE",
"592 -228 CURVE SMOOTH",
"232 -250 LINE",
"222 -438 LINE",
"572 -422 LINE SMOOTH",
"882 -408 OFFCURVE",
"1034 -264 OFFCURVE",
"1030 16 CURVE SMOOTH",
"1030 204 LINE"
);
},
{
closed = 1;
nodes = (
"1030 204 LINE",
"1030 418 LINE",
"1210 440 LINE",
"1210 610 LINE",
"870 620 LINE",
"856 366 LINE",
"818 278 LINE",
"818 204 LINE"
);
}
);
};
layerId = "BBAB2DB2-7554-4FB8-925D-17003E4845F8";
paths = (
{
closed = 1;
nodes = (
"678 -20 OFFCURVE",
"786 42 OFFCURVE",
"800 164 CURVE",
"892 164 LINE",
"820 456 LINE",
"820 340 LINE SMOOTH",
"820 220 OFFCURVE",
"732 160 OFFCURVE",
"552 160 CURVE SMOOTH",
"390 160 OFFCURVE",
"306 282 OFFCURVE",
"306 520 CURVE SMOOTH",
"306 762 OFFCURVE",
"394 900 OFFCURVE",
"550 900 CURVE SMOOTH",
"730 900 OFFCURVE",
"820 800 OFFCURVE",
"820 596 CURVE",
"882 868 LINE",
"800 868 LINE",
"782 1010 OFFCURVE",
"690 1080 OFFCURVE",
"520 1080 CURVE SMOOTH",
"250 1080 OFFCURVE",
"96 876 OFFCURVE",
"96 520 CURVE SMOOTH",
"96 172 OFFCURVE",
"250 -20 OFFCURVE",
"518 -20 CURVE SMOOTH"
);
},
{
closed = 1;
nodes = (
"492 -468 LINE SMOOTH",
"868 -454 OFFCURVE",
"1032 -284 OFFCURVE",
"1032 94 CURVE SMOOTH",
"1032 304 LINE",
"818 304 LINE",
"818 62 LINE SMOOTH",
"818 -156 OFFCURVE",
"726 -264 OFFCURVE",
"512 -274 CURVE SMOOTH",
"172 -290 LINE",
"182 -478 LINE"
);
},
{
closed = 1;
nodes = (
"1032 260 LINE",
"1032 1060 LINE",
"840 1060 LINE",
"820 836 LINE",
"820 260 LINE"
);
}
);
width = 1200;
}
);
unicode = 0067;
},
{
glyphname = h;
lastChange = "2019-09-23 20:06:43 +0000";
layers = (
{
anchors = (
{
name = bottom;
position = "{600, 0}";
},
{
name = center;
position = "{600, 784}";
},
{
name = top;
position = "{274, 1500}";
}
);
background = {
paths = (
{
closed = 1;
nodes = (
"380 1500 LINE",
"168 1500 LINE",
"172 0 LINE",
"380 0 LINE"
);
},
{
closed = 1;
nodes = (
"824 0 LINE",
"1032 0 LINE",
"1032 560 LINE SMOOTH",
"1032 868 OFFCURVE",
"922 1020 OFFCURVE",
"698 1020 CURVE SMOOTH",
"534 1020 OFFCURVE",
"434 924 OFFCURVE",
"396 728 CURVE",
"326 728 LINE",
"380 400 LINE",
"380 632 OFFCURVE",
"460 830 OFFCURVE",
"648 830 CURVE SMOOTH",
"766 830 OFFCURVE",
"824 740 OFFCURVE",
"824 560 CURVE SMOOTH"
);
}
);
};
layerId = "BBAB2DB2-7554-4FB8-925D-17003E4845F8";
paths = (
{
closed = 1;
nodes = (
"1032 0 LINE",
"1032 690 LINE SMOOTH",
"1032 938 OFFCURVE",
"904 1080 OFFCURVE",
"680 1080 CURVE SMOOTH",
"502 1080 OFFCURVE",
"412 1010 OFFCURVE",
"400 868 CURVE",
"318 868 LINE",
"380 596 LINE",
"380 800 OFFCURVE",
"464 900 OFFCURVE",
"630 900 CURVE SMOOTH",
"750 900 OFFCURVE",
"820 824 OFFCURVE",
"820 690 CURVE SMOOTH",
"820 0 LINE"
);
},
{
closed = 1;
nodes = (
"380 0 LINE",
"380 1500 LINE",
"168 1500 LINE",
"168 0 LINE"
);
}
);
width = 1200;
}
);
unicode = 0068;
},
{
glyphname = hbar;
lastChange = "2019-09-28 19:22:43 +0000";
layers = (
{
components = (
{
name = h;
}
);
layerId = "BBAB2DB2-7554-4FB8-925D-17003E4845F8";
paths = (
{
closed = 1;
nodes = (
"738 1216 LINE",
"738 1392 LINE",
"62 1392 LINE",
"62 1216 LINE"
);
}
);
width = 1200;
}
);
unicode = 0127;
},
{
glyphname = i;
lastChange = "2019-09-28 19:15:17 +0000";
layers = (
{
anchors = (
{
name = bottom;
position = "{670, 0}";
}
);
layerId = "BBAB2DB2-7554-4FB8-925D-17003E4845F8";
paths = (
{
closed = 1;
nodes = (
"740 1228 OFFCURVE",
"806 1294 OFFCURVE",
"806 1376 CURVE SMOOTH",
"806 1458 OFFCURVE",
"740 1524 OFFCURVE",
"658 1524 CURVE SMOOTH",
"576 1524 OFFCURVE",
"510 1458 OFFCURVE",
"510 1376 CURVE SMOOTH",
"510 1294 OFFCURVE",
"576 1228 OFFCURVE",
"658 1228 CURVE SMOOTH"
);
},
{
closed = 1;
nodes = (
"776 0 LINE",
"776 1060 LINE",
"564 1060 LINE",
"564 0 LINE"
);
},
{
closed = 1;
nodes = (
"584 0 LINE",
"584 174 LINE",
"160 174 LINE",
"160 0 LINE"
);
},
{
closed = 1;
nodes = (
"1102 0 LINE",
"1102 174 LINE",
"756 174 LINE",
"756 0 LINE"
);
},
{
closed = 1;
nodes = (
"584 884 LINE",
"584 1060 LINE",
"220 1060 LINE",
"220 884 LINE"
);
}
);
width = 1200;
}
);
unicode = 0069;
},
{
glyphname = idotless;
lastChange = "2019-09-23 18:41:30 +0000";
layers = (
{
anchors = (
{
name = bottom;
position = "{670, 0}";
},
{
name = ogonek;
position = "{1080, 10}";
},
{
name = top;
position = "{650, 1060}";
}
);
layerId = "BBAB2DB2-7554-4FB8-925D-17003E4845F8";
paths = (
{
closed = 1;
nodes = (
"776 0 LINE",
"776 1060 LINE",
"564 1060 LINE",
"564 0 LINE"
);
},
{
closed = 1;
nodes = (
"584 0 LINE",
"584 174 LINE",
"160 174 LINE",
"160 0 LINE"
);
},
{
closed = 1;
nodes = (
"1102 0 LINE",
"1102 174 LINE",
"756 174 LINE",
"756 0 LINE"
);
},
{
closed = 1;
nodes = (
"584 884 LINE",
"584 1060 LINE",
"220 1060 LINE",
"220 884 LINE"
);
}
);
width = 1200;
}
);
unicode = 0131;
},
{
glyphname = ij;
lastChange = "2019-09-23 19:46:52 +0000";
layers = (
{
background = {
components = (
{
name = j;
}
);
};
layerId = "BBAB2DB2-7554-4FB8-925D-17003E4845F8";
paths = (
{
closed = 1;
nodes = (
"934 1228 OFFCURVE",
"1000 1294 OFFCURVE",
"1000 1376 CURVE SMOOTH",
"1000 1458 OFFCURVE",
"934 1524 OFFCURVE",
"852 1524 CURVE SMOOTH",
"770 1524 OFFCURVE",
"704 1458 OFFCURVE",
"704 1376 CURVE SMOOTH",
"704 1294 OFFCURVE",
"770 1228 OFFCURVE",
"852 1228 CURVE SMOOTH"
);
},
{
closed = 1;
nodes = (
"422 -468 LINE SMOOTH",
"798 -441 OFFCURVE",
"960 -284 OFFCURVE",
"960 94 CURVE SMOOTH",
"960 384 LINE",
"748 384 LINE",
"748 62 LINE SMOOTH",
"748 -156 OFFCURVE",
"656 -255 OFFCURVE",
"442 -274 CURVE SMOOTH",
"242 -292 LINE",
"252 -480 LINE"
);
},
{
closed = 1;
nodes = (
"960 350 LINE",
"960 1060 LINE",
"748 1060 LINE",
"748 350 LINE"
);
},
{
closed = 1;
nodes = (
"456 0 LINE",
"456 1060 LINE",
"244 1060 LINE",
"244 0 LINE"
);
},
{
closed = 1;
nodes = (
"430 1228 OFFCURVE",
"496 1294 OFFCURVE",
"496 1376 CURVE SMOOTH",
"496 1458 OFFCURVE",
"430 1524 OFFCURVE",
"348 1524 CURVE SMOOTH",
"266 1524 OFFCURVE",
"200 1458 OFFCURVE",
"200 1376 CURVE SMOOTH",
"200 1294 OFFCURVE",
"266 1228 OFFCURVE",
"348 1228 CURVE SMOOTH"
);
}
);
width = 1200;
}
);
unicode = 0133;
},
{
glyphname = imacron;
lastChange = "2019-09-23 18:48:35 +0000";
layers = (
{
components = (
{
name = idotless;
}
);
layerId = "BBAB2DB2-7554-4FB8-925D-17003E4845F8";
paths = (
{
closed = 1;
nodes = (
"1037 1188 LINE",
"1037 1376 LINE",
"220 1376 LINE",
"220 1188 LINE"
);
}
);
width = 1200;
}
);
unicode = 012B;
},
{
glyphname = iogonek;
lastChange = "2019-09-25 06:46:33 +0000";
layers = (
{
background = {
paths = (
{
closed = 1;
nodes = (
"784 32 LINE",
"564 30 LINE",
"564 -40 LINE",
"479 -64 OFFCURVE",
"430 -134 OFFCURVE",
"430 -232 CURVE SMOOTH",
"430 -354 OFFCURVE",
"517 -424 OFFCURVE",
"670 -424 CURVE SMOOTH",
"696 -424 OFFCURVE",
"730 -421 OFFCURVE",
"760 -415 CURVE",
"778 -245 LINE",
"748 -252 OFFCURVE",
"719 -256 OFFCURVE",
"696 -256 CURVE SMOOTH",
"622 -256 OFFCURVE",
"580 -224 OFFCURVE",
"580 -168 CURVE SMOOTH",
"580 -61 OFFCURVE",
"662 0 OFFCURVE",
"804 0 CURVE"
);
}
);
};
components = (
{
name = i;
}
);
layerId = "BBAB2DB2-7554-4FB8-925D-17003E4845F8";
paths = (
{
closed = 1;
nodes = (
"784 32 LINE",
"564 30 LINE",
"564 -40 LINE",
"479 -66 OFFCURVE",
"430 -139 OFFCURVE",
"430 -242 CURVE SMOOTH",
"430 -358 OFFCURVE",
"517 -424 OFFCURVE",
"670 -424 CURVE SMOOTH",
"696 -424 OFFCURVE",
"729 -421 OFFCURVE",
"760 -415 CURVE",
"778 -245 LINE",
"748 -252 OFFCURVE",
"719 -256 OFFCURVE",
"696 -256 CURVE SMOOTH",
"622 -256 OFFCURVE",
"580 -224 OFFCURVE",
"580 -168 CURVE SMOOTH",
"580 -61 OFFCURVE",
"662 0 OFFCURVE",
"804 0 CURVE"
);
}
);
width = 1200;
}
);
unicode = 012F;
},
{
glyphname = j;
lastChange = "2019-09-23 16:42:52 +0000";
layers = (
{
background = {
components = (
{
name = i;
}
);
};
layerId = "BBAB2DB2-7554-4FB8-925D-17003E4845F8";
paths = (
{
closed = 1;
nodes = (
"842 1228 OFFCURVE",
"908 1294 OFFCURVE",
"908 1376 CURVE SMOOTH",
"908 1458 OFFCURVE",
"842 1524 OFFCURVE",
"760 1524 CURVE SMOOTH",
"678 1524 OFFCURVE",
"612 1458 OFFCURVE",
"612 1376 CURVE SMOOTH",
"612 1294 OFFCURVE",
"678 1228 OFFCURVE",
"760 1228 CURVE SMOOTH"
);
},
{
closed = 1;
nodes = (
"350 -468 LINE SMOOTH",
"726 -438 OFFCURVE",
"888 -284 OFFCURVE",
"888 94 CURVE SMOOTH",
"888 384 LINE",
"676 384 LINE",
"676 62 LINE SMOOTH",
"676 -156 OFFCURVE",
"584 -254 OFFCURVE",
"370 -274 CURVE SMOOTH",
"170 -292 LINE",
"180 -480 LINE"
);
},
{
closed = 1;
nodes = (
"692 884 LINE",
"692 1060 LINE",
"264 1060 LINE",
"264 884 LINE"
);
},
{
closed = 1;
nodes = (
"888 350 LINE",
"888 1060 LINE",
"676 1060 LINE",
"676 350 LINE"
);
}
);
width = 1200;
}
);
unicode = 006A;
},
{
glyphname = jdotless;
lastChange = "2019-09-23 16:42:43 +0000";
layers = (
{
anchors = (
{
name = bottom;
position = "{780, -480}";
},
{
name = top;
position = "{782, 1060}";
}
);
layerId = "BBAB2DB2-7554-4FB8-925D-17003E4845F8";
paths = (
{
closed = 1;
nodes = (
"350 -468 LINE SMOOTH",
"726 -438 OFFCURVE",
"888 -284 OFFCURVE",
"888 94 CURVE SMOOTH",
"888 384 LINE",
"676 384 LINE",
"676 62 LINE SMOOTH",
"676 -156 OFFCURVE",
"584 -254 OFFCURVE",
"370 -274 CURVE SMOOTH",
"170 -292 LINE",
"180 -480 LINE"
);
},
{
closed = 1;
nodes = (
"692 884 LINE",
"692 1060 LINE",
"264 1060 LINE",
"264 884 LINE"
);
},
{
closed = 1;
nodes = (
"888 350 LINE",
"888 1060 LINE",
"676 1060 LINE",
"676 350 LINE"
);
}
);
width = 1200;
}
);
unicode = 0237;
},
{
glyphname = k;
lastChange = "2019-09-28 19:15:21 +0000";
layers = (
{
anchors = (
{
name = bottom;
position = "{580, 0}";
},
{
name = top;
position = "{266, 1568}";
}
);
background = {
components = (
{
name = b;
}
);
};
layerId = "BBAB2DB2-7554-4FB8-925D-17003E4845F8";
paths = (
{
closed = 1;
nodes = (
"480 372 LINE SMOOTH",
"822 372 OFFCURVE",
"1016 598 OFFCURVE",
"1072 1060 CURVE",
"852 1060 LINE",
"806 695 OFFCURVE",
"694 562 OFFCURVE",
"430 562 CURVE SMOOTH",
"310 562 LINE",
"310 372 LINE"
);
},
{
closed = 1;
nodes = (
"372 0 LINE",
"372 1500 LINE",
"160 1500 LINE",
"160 0 LINE"
);
},
{
closed = 1;
nodes = (
"1140 0 LINE",
"776 598 LINE",
"576 516 LINE",
"878 0 LINE"
);
}
);
width = 1200;
}
);
unicode = 006B;
},
{
glyphname = kgreenlandic;
lastChange = "2019-09-23 18:12:35 +0000";
layers = (
{
layerId = "BBAB2DB2-7554-4FB8-925D-17003E4845F8";
paths = (
{
closed = 1;
nodes = (
"480 372 LINE SMOOTH",
"822 372 OFFCURVE",
"1016 598 OFFCURVE",
"1072 1060 CURVE",
"852 1060 LINE",
"806 695 OFFCURVE",
"694 562 OFFCURVE",
"430 562 CURVE SMOOTH",
"310 562 LINE",
"310 372 LINE"
);
},
{
closed = 1;
nodes = (
"372 0 LINE",
"372 1060 LINE",
"160 1060 LINE",
"160 0 LINE"
);
},
{
closed = 1;
nodes = (
"1140 0 LINE",
"776 598 LINE",
"576 516 LINE",
"878 0 LINE"
);
}
);
width = 1200;
}
);
unicode = 0138;
},
{
glyphname = l;
lastChange = "2019-09-23 20:07:00 +0000";
layers = (
{
anchors = (
{
name = bottom;
position = "{670, 0}";
},
{
name = center;
position = "{510, 784}";
},
{
name = top;
position = "{506, 1500}";
},
{
name = topright;
position = "{960, 1500}";
}
);
background = {
paths = (
{
closed = 1;
nodes = (
"432 462 LINE",
"432 332 LINE",
"484 -10 LINE",
"1084 0 LINE",
"1084 170 LINE",
"644 192 LINE",
"644 462 LINE"
);
}
);
};
layerId = "BBAB2DB2-7554-4FB8-925D-17003E4845F8";
paths = (
{
closed = 1;
nodes = (
"862 -20 OFFCURVE",
"956 -8 OFFCURVE",
"1064 22 CURVE",
"1040 208 LINE",
"952 182 OFFCURVE",
"888 170 OFFCURVE",
"828 170 CURVE SMOOTH",
"646 170 OFFCURVE",
"612 242 OFFCURVE",
"612 410 CURVE SMOOTH",
"612 1500 LINE",
"400 1500 LINE",
"400 400 LINE SMOOTH",
"400 106 OFFCURVE",
"502 -20 OFFCURVE",
"748 -20 CURVE SMOOTH"
);
},
{
closed = 1;
nodes = (
"418 1324 LINE",
"418 1500 LINE",
"88 1500 LINE",
"88 1324 LINE"
);
}
);
width = 1200;
}
);
unicode = 006C;
},
{
glyphname = lcaron;
lastChange = "2019-09-23 18:38:20 +0000";
layers = (
{
components = (
{
name = l;
}
);
layerId = "BBAB2DB2-7554-4FB8-925D-17003E4845F8";
paths = (
{
closed = 1;
nodes = (
"934 1188 LINE",
"1024 1568 LINE",
"812 1568 LINE",
"762 1188 LINE"
);
}
);
width = 1200;
}
);
unicode = 013E;
},
{
glyphname = lslash;
lastChange = "2019-09-25 07:14:47 +0000";
layers = (
{
components = (
{
name = l;
}
);
layerId = "BBAB2DB2-7554-4FB8-925D-17003E4845F8";
paths = (
{
closed = 1;
nodes = (
"924 767 LINE",
"884 942 LINE",
"118 742 LINE",
"158 567 LINE"
);
}
);
width = 1200;
}
);
unicode = 0142;
},
{
glyphname = m;
lastChange = "2019-09-28 19:15:26 +0000";
layers = (
{
anchors = (
{
name = bottom;
position = "{600, 0}";
},
{
name = top;
position = "{600, 1060}";
}
);
background = {
paths = (
{
closed = 1;
nodes = (
"366 776 LINE",
"346 1000 LINE",
"168 1000 LINE",
"172 0 LINE",
"366 0 LINE"
);
},
{
closed = 1;
nodes = (
"502 0 LINE",
"698 0 LINE",
"698 750 LINE SMOOTH",
"694 930 OFFCURVE",
"638 1020 OFFCURVE",
"532 1020 CURVE SMOOTH",
"434 1020 OFFCURVE",
"382 970 OFFCURVE",
"376 868 CURVE",
"304 868 LINE",
"366 716 LINE",
"366 798 OFFCURVE",
"390 840 OFFCURVE",
"438 840 CURVE SMOOTH",
"480 840 OFFCURVE",
"502 810 OFFCURVE",
"502 750 CURVE SMOOTH"
);
},
{
closed = 1;
nodes = (
"836 0 LINE",
"1032 0 LINE",
"1032 710 LINE SMOOTH",
"1032 918 OFFCURVE",
"974 1020 OFFCURVE",
"856 1020 CURVE SMOOTH",
"766 1020 OFFCURVE",
"718 970 OFFCURVE",
"712 868 CURVE",
"634 868 LINE",
"698 716 LINE",
"698 798 OFFCURVE",
"722 840 OFFCURVE",
"772 840 CURVE SMOOTH",
"814 840 OFFCURVE",
"836 810 OFFCURVE",
"836 750 CURVE SMOOTH"
);
}
);
};
layerId = "BBAB2DB2-7554-4FB8-925D-17003E4845F8";
paths = (
{
closed = 1;
nodes = (
"1088 0 LINE",
"1088 830 LINE SMOOTH",
"1088 1006 OFFCURVE",
"1024 1080 OFFCURVE",
"878 1080 CURVE SMOOTH",
"766 1080 OFFCURVE",
"706 1010 OFFCURVE",
"700 928 CURVE",
"618 928 LINE",
"690 776 LINE",
"690 872 OFFCURVE",
"724 920 OFFCURVE",
"794 920 CURVE SMOOTH",
"850 920 OFFCURVE",
"876 884 OFFCURVE",
"876 810 CURVE SMOOTH",
"876 0 LINE"
);
},
{
closed = 1;
nodes = (
"324 0 LINE",
"324 836 LINE",
"300 1060 LINE",
"112 1060 LINE",
"112 0 LINE"
);
},
{
closed = 1;
nodes = (
"690 0 LINE",
"690 850 LINE SMOOTH",
"690 1004 OFFCURVE",
"622 1080 OFFCURVE",
"512 1080 CURVE SMOOTH",
"396 1080 OFFCURVE",
"338 1030 OFFCURVE",
"330 928 CURVE",
"262 928 LINE",
"324 776 LINE",
"324 872 OFFCURVE",
"358 920 OFFCURVE",
"426 920 CURVE SMOOTH",
"482 920 OFFCURVE",
"510 890 OFFCURVE",
"510 830 CURVE SMOOTH",
"510 0 LINE"
);
}
);
width = 1200;
}
);
unicode = 006D;
},
{
glyphname = n;
lastChange = "2019-09-25 07:07:09 +0000";
layers = (
{
anchors = (
{
name = bottom;
position = "{600, 0}";
},
{
name = top;
position = "{590, 1060}";
}
);
background = {
paths = (
{
closed = 1;
nodes = (
"380 1000 LINE",
"168 1000 LINE",
"172 0 LINE",
"380 0 LINE"
);
},
{
closed = 1;
nodes = (
"824 0 LINE",
"1032 0 LINE",
"1032 560 LINE SMOOTH",
"1032 868 OFFCURVE",
"922 1020 OFFCURVE",
"698 1020 CURVE SMOOTH",
"534 1020 OFFCURVE",
"434 924 OFFCURVE",
"396 728 CURVE",
"326 728 LINE",
"380 400 LINE",
"380 632 OFFCURVE",
"460 830 OFFCURVE",
"648 830 CURVE SMOOTH",
"766 830 OFFCURVE",
"824 740 OFFCURVE",
"824 560 CURVE SMOOTH"
);
}
);
};
layerId = "BBAB2DB2-7554-4FB8-925D-17003E4845F8";
paths = (
{
closed = 1;
nodes = (
"1032 0 LINE",
"1032 690 LINE SMOOTH",
"1032 938 OFFCURVE",
"904 1080 OFFCURVE",
"680 1080 CURVE SMOOTH",
"502 1080 OFFCURVE",
"412 1010 OFFCURVE",
"400 868 CURVE",
"318 868 LINE",
"380 596 LINE",
"380 800 OFFCURVE",
"464 900 OFFCURVE",
"630 900 CURVE SMOOTH",
"750 900 OFFCURVE",
"820 824 OFFCURVE",
"820 690 CURVE SMOOTH",
"820 0 LINE"
);
},
{
closed = 1;
nodes = (
"380 0 LINE",
"380 836 LINE",
"360 1060 LINE",
"168 1060 LINE",
"168 0 LINE"
);
}
);
width = 1200;
}
);
unicode = 006E;
},
{
glyphname = napostrophe;
lastChange = "2019-09-25 07:06:59 +0000";
layers = (
{
components = (
{
name = n;
}
);
layerId = "BBAB2DB2-7554-4FB8-925D-17003E4845F8";
paths = (
{
closed = 1;
nodes = (
"162 1248 LINE",
"302 1628 LINE",
"70 1628 LINE",
"0 1248 LINE"
);
}
);
width = 1200;
}
);
unicode = 0149;
},
{
glyphname = eng;
lastChange = "2019-09-23 18:35:38 +0000";
layers = (
{
background = {
paths = (
{
closed = 1;
nodes = (
"985 1228 OFFCURVE",
"1051 1294 OFFCURVE",
"1051 1376 CURVE SMOOTH",
"1051 1458 OFFCURVE",
"985 1524 OFFCURVE",
"903 1524 CURVE SMOOTH",
"821 1524 OFFCURVE",
"755 1458 OFFCURVE",
"755 1376 CURVE SMOOTH",
"755 1294 OFFCURVE",
"821 1228 OFFCURVE",
"903 1228 CURVE SMOOTH"
);
},
{
closed = 1;
nodes = (
"493 -468 LINE SMOOTH",
"869 -438 OFFCURVE",
"1031 -284 OFFCURVE",
"1031 94 CURVE SMOOTH",
"1031 384 LINE",
"819 384 LINE",
"819 62 LINE SMOOTH",
"819 -156 OFFCURVE",
"727 -254 OFFCURVE",
"513 -274 CURVE SMOOTH",
"313 -292 LINE",
"323 -480 LINE"
);
},
{
closed = 1;
nodes = (
"835 884 LINE",
"835 1060 LINE",
"407 1060 LINE",
"407 884 LINE"
);
},
{
closed = 1;
nodes = (
"1031 350 LINE",
"1031 1060 LINE",
"819 1060 LINE",
"819 350 LINE"
);
}
);
};
layerId = "BBAB2DB2-7554-4FB8-925D-17003E4845F8";
paths = (
{
closed = 1;
nodes = (
"380 0 LINE",
"380 836 LINE",
"360 1060 LINE",
"168 1060 LINE",
"168 0 LINE"
);
},
{
closed = 1;
nodes = (
"1032 389 LINE",
"1032 690 LINE SMOOTH",
"1032 938 OFFCURVE",
"904 1080 OFFCURVE",
"680 1080 CURVE SMOOTH",
"502 1080 OFFCURVE",
"412 1010 OFFCURVE",
"400 868 CURVE",
"318 868 LINE",
"380 596 LINE",
"380 800 OFFCURVE",
"464 900 OFFCURVE",
"630 900 CURVE SMOOTH",
"750 900 OFFCURVE",
"820 824 OFFCURVE",
"820 690 CURVE SMOOTH",
"820 389 LINE"
);
},
{
closed = 1;
nodes = (
"564 -468 LINE SMOOTH",
"891 -438 OFFCURVE",
"1032 -284 OFFCURVE",
"1032 94 CURVE SMOOTH",
"1032 444 LINE",
"820 444 LINE",
"820 62 LINE SMOOTH",
"820 -156 OFFCURVE",
"749 -254 OFFCURVE",
"584 -274 CURVE SMOOTH",
"454 -292 LINE",
"464 -480 LINE"
);
}
);
width = 1200;
}
);
unicode = 014B;
},
{
glyphname = nhookleft;
lastChange = "2019-09-23 18:35:59 +0000";
layers = (
{
layerId = "BBAB2DB2-7554-4FB8-925D-17003E4845F8";
paths = (
{
closed = 1;
nodes = (
"-88 -468 LINE SMOOTH",
"238 -429 OFFCURVE",
"380 -284 OFFCURVE",
"380 94 CURVE SMOOTH",
"380 444 LINE",
"168 444 LINE",
"168 62 LINE SMOOTH",
"168 -156 OFFCURVE",
"97 -251 OFFCURVE",
"-68 -274 CURVE SMOOTH",
"-198 -292 LINE",
"-188 -480 LINE"
);
},
{
closed = 1;
nodes = (
"1032 0 LINE",
"1032 690 LINE SMOOTH",
"1032 938 OFFCURVE",
"904 1080 OFFCURVE",
"680 1080 CURVE SMOOTH",
"502 1080 OFFCURVE",
"412 1010 OFFCURVE",
"400 868 CURVE",
"318 868 LINE",
"380 596 LINE",
"380 800 OFFCURVE",
"464 900 OFFCURVE",
"630 900 CURVE SMOOTH",
"750 900 OFFCURVE",
"820 824 OFFCURVE",
"820 690 CURVE SMOOTH",
"820 0 LINE"
);
},
{
closed = 1;
nodes = (
"380 230 LINE",
"380 836 LINE",
"360 1060 LINE",
"168 1060 LINE",
"168 230 LINE"
);
}
);
width = 1200;
}
);
unicode = 0272;
},
{
glyphname = o;
lastChange = "2019-09-23 16:44:04 +0000";
layers = (
{
anchors = (
{
name = bottom;
position = "{600, 0}";
},
{
name = center;
position = "{600, 530}";
},
{
name = ogonek;
position = "{600, 10}";
},
{
name = top;
position = "{600, 1060}";
},
{
name = topright;
position = "{1040, 1060}";
}
);
layerId = "BBAB2DB2-7554-4FB8-925D-17003E4845F8";
paths = (
{
closed = 1;
nodes = (
"894 -20 OFFCURVE",
"1064 180 OFFCURVE",
"1064 530 CURVE SMOOTH",
"1064 880 OFFCURVE",
"894 1080 OFFCURVE",
"600 1080 CURVE SMOOTH",
"306 1080 OFFCURVE",
"136 880 OFFCURVE",
"136 530 CURVE SMOOTH",
"136 180 OFFCURVE",
"306 -20 OFFCURVE",
"600 -20 CURVE SMOOTH"
);
},
{
closed = 1;
nodes = (
"444 170 OFFCURVE",
"356 300 OFFCURVE",
"356 530 CURVE SMOOTH",
"356 760 OFFCURVE",
"444 890 OFFCURVE",
"600 890 CURVE SMOOTH",
"756 890 OFFCURVE",
"844 760 OFFCURVE",
"844 530 CURVE SMOOTH",
"844 300 OFFCURVE",
"756 170 OFFCURVE",
"600 170 CURVE SMOOTH"
);
}
);
width = 1200;
}
);
unicode = 006F;
},
{
glyphname = oogonek;
lastChange = "2019-09-25 06:46:50 +0000";
layers = (
{
background = {
paths = (
{
closed = 1;
nodes = (
"763 32 LINE",
"543 30 LINE",
"543 -40 LINE",
"458 -64 OFFCURVE",
"409 -134 OFFCURVE",
"409 -232 CURVE SMOOTH",
"409 -354 OFFCURVE",
"496 -424 OFFCURVE",
"649 -424 CURVE SMOOTH",
"675 -424 OFFCURVE",
"709 -421 OFFCURVE",
"739 -415 CURVE",
"757 -245 LINE",
"727 -252 OFFCURVE",
"698 -256 OFFCURVE",
"675 -256 CURVE SMOOTH",
"601 -256 OFFCURVE",
"559 -224 OFFCURVE",
"559 -168 CURVE SMOOTH",
"559 -61 OFFCURVE",
"641 0 OFFCURVE",
"783 0 CURVE"
);
}
);
};
components = (
{
name = o;
}
);
layerId = "BBAB2DB2-7554-4FB8-925D-17003E4845F8";
paths = (
{
closed = 1;
nodes = (
"763 36 LINE",
"543 30 LINE",
"543 -40 LINE",
"458 -64 OFFCURVE",
"409 -134 OFFCURVE",
"409 -232 CURVE SMOOTH",
"409 -354 OFFCURVE",
"496 -424 OFFCURVE",
"649 -424 CURVE SMOOTH",
"675 -424 OFFCURVE",
"705 -421 OFFCURVE",
"739 -415 CURVE",
"757 -245 LINE",
"724 -253 OFFCURVE",
"697 -256 OFFCURVE",
"675 -256 CURVE SMOOTH",
"582 -256 OFFCURVE",
"559 -203 OFFCURVE",
"559 -168 CURVE SMOOTH",
"559 -54 OFFCURVE",
"681 -18 OFFCURVE",
"783 11 CURVE"
);
}
);
width = 1200;
}
);
unicode = 01EB;
},
{
glyphname = oslash;
lastChange = "2019-09-23 22:44:23 +0000";
layers = (
{
components = (
{
name = o;
}
);
layerId = "BBAB2DB2-7554-4FB8-925D-17003E4845F8";
paths = (
{
closed = 1;
nodes = (
"1011 1133 LINE",
"896 1198 LINE",
"196 -59 LINE",
"301 -134 LINE"
);
}
);
width = 1200;
}
);
unicode = 00F8;
},
{
glyphname = oe;
lastChange = "2019-09-23 23:26:35 +0000";
layers = (
{
anchors = (
{
name = bottom;
position = "{610, 0}";
},
{
name = top;
position = "{610, 1060}";
}
);
background = {
paths = (
{
closed = 1;
nodes = (
"662 310 LINE",
"662 634 LINE SMOOTH",
"662 902 OFFCURVE",
"506 1059 OFFCURVE",
"234 1067 CURVE SMOOTH",
"140 1070 LINE",
"120 888 LINE",
"214 885 LINE SMOOTH",
"401 879 OFFCURVE",
"510 798 OFFCURVE",
"510 666 CURVE SMOOTH",
"510 392 LINE",
"538 374 LINE",
"532 310 LINE"
);
},
{
closed = 1;
nodes = (
"475 -20 OFFCURVE",
"560 77 OFFCURVE",
"582 246 CURVE",
"498 214 LINE",
"602 214 LINE",
"510 496 LINE",
"510 380 LINE",
"510 234 OFFCURVE",
"448 150 OFFCURVE",
"342 150 CURVE SMOOTH",
"252 150 OFFCURVE",
"200 207 OFFCURVE",
"200 306 CURVE SMOOTH",
"200 412 OFFCURVE",
"264 474 OFFCURVE",
"376 474 CURVE SMOOTH",
"451 474 OFFCURVE",
"513 459 OFFCURVE",
"548 434 CURVE",
"592 568 LINE",
"543 610 OFFCURVE",
"466 634 OFFCURVE",
"380 634 CURVE SMOOTH",
"145 634 OFFCURVE",
"10 507 OFFCURVE",
"10 286 CURVE SMOOTH",
"10 91 OFFCURVE",
"111 -20 OFFCURVE",
"288 -20 CURVE SMOOTH"
);
},
{
closed = 1;
nodes = (
"997 -20 OFFCURVE",
"1059 -13 OFFCURVE",
"1112 -2 CURVE",
"1086 174 LINE",
"1047 163 OFFCURVE",
"1003 156 OFFCURVE",
"966 156 CURVE SMOOTH",
"792 156 OFFCURVE",
"692 297 OFFCURVE",
"692 542 CURVE SMOOTH",
"692 789 OFFCURVE",
"736 894 OFFCURVE",
"836 894 CURVE SMOOTH",
"939 894 OFFCURVE",
"982 803 OFFCURVE",
"982 588 CURVE",
"674 588 LINE",
"674 436 LINE",
"1158 436 LINE",
"1162 476 OFFCURVE",
"1164 526 OFFCURVE",
"1164 572 CURVE SMOOTH",
"1164 895 OFFCURVE",
"1053 1080 OFFCURVE",
"859 1080 CURVE SMOOTH",
"661 1080 OFFCURVE",
"546 880 OFFCURVE",
"546 532 CURVE SMOOTH",
"546 181 OFFCURVE",
"690 -20 OFFCURVE",
"942 -20 CURVE SMOOTH"
);
}
);
};
layerId = "BBAB2DB2-7554-4FB8-925D-17003E4845F8";
paths = (
{
closed = 1;
nodes = (
"568 -20 OFFCURVE",
"668 162 OFFCURVE",
"668 530 CURVE SMOOTH",
"668 898 OFFCURVE",
"568 1080 OFFCURVE",
"364 1080 CURVE SMOOTH",
"134 1080 OFFCURVE",
"20 898 OFFCURVE",
"20 530 CURVE SMOOTH",
"20 162 OFFCURVE",
"134 -20 OFFCURVE",
"364 -20 CURVE SMOOTH"
);
},
{
closed = 1;
nodes = (
"255 170 OFFCURVE",
"202 289 OFFCURVE",
"202 530 CURVE SMOOTH",
"202 771 OFFCURVE",
"255 890 OFFCURVE",
"364 890 CURVE SMOOTH",
"461 890 OFFCURVE",
"508 771 OFFCURVE",
"508 530 CURVE SMOOTH",
"508 289 OFFCURVE",
"461 170 OFFCURVE",
"364 170 CURVE SMOOTH"
);
},
{
closed = 1;
nodes = (
"1017 -20 OFFCURVE",
"1079 -13 OFFCURVE",
"1132 -2 CURVE",
"1106 169 LINE",
"1067 161 OFFCURVE",
"1023 156 OFFCURVE",
"986 156 CURVE SMOOTH",
"806 156 OFFCURVE",
"702 297 OFFCURVE",
"702 542 CURVE SMOOTH",
"702 789 OFFCURVE",
"746 894 OFFCURVE",
"846 894 CURVE SMOOTH",
"949 894 OFFCURVE",
"992 803 OFFCURVE",
"992 588 CURVE",
"684 588 LINE",
"684 436 LINE",
"1168 436 LINE",
"1172 476 OFFCURVE",
"1174 526 OFFCURVE",
"1174 572 CURVE SMOOTH",
"1174 895 OFFCURVE",
"1063 1080 OFFCURVE",
"869 1080 CURVE SMOOTH",
"671 1080 OFFCURVE",
"556 880 OFFCURVE",
"556 532 CURVE SMOOTH",
"556 181 OFFCURVE",
"704 -20 OFFCURVE",
"962 -20 CURVE SMOOTH"
);
}
);
width = 1200;
}
);
unicode = 0153;
},
{
glyphname = p;
lastChange = "2019-09-23 16:44:09 +0000";
layers = (
{
anchors = (
{
name = bottom;
position = "{650, 0}";
},
{
name = top;
position = "{650, 1060}";
}
);
background = {
paths = (
{
closed = 1;
nodes = (
"380 1000 LINE",
"168 1000 LINE",
"172 -460 LINE",
"380 -460 LINE"
);
},
{
closed = 1;
nodes = (
"318 212 LINE",
"392 212 LINE",
"430 64 OFFCURVE",
"552 -20 OFFCURVE",
"724 -20 CURVE SMOOTH",
"966 -20 OFFCURVE",
"1104 170 OFFCURVE",
"1104 500 CURVE SMOOTH",
"1104 830 OFFCURVE",
"958 1020 OFFCURVE",
"702 1020 CURVE SMOOTH",
"548 1020 OFFCURVE",
"436 936 OFFCURVE",
"398 788 CURVE",
"318 788 LINE"
);
},
{
closed = 1;
nodes = (
"478 170 OFFCURVE",
"380 290 OFFCURVE",
"380 500 CURVE SMOOTH",
"380 710 OFFCURVE",
"472 830 OFFCURVE",
"632 830 CURVE SMOOTH",
"792 830 OFFCURVE",
"884 710 OFFCURVE",
"884 500 CURVE SMOOTH",
"884 290 OFFCURVE",
"796 170 OFFCURVE",
"646 170 CURVE SMOOTH"
);
}
);
};
layerId = "BBAB2DB2-7554-4FB8-925D-17003E4845F8";
paths = (
{
closed = 1;
nodes = (
"950 -20 OFFCURVE",
"1104 172 OFFCURVE",
"1104 520 CURVE SMOOTH",
"1104 876 OFFCURVE",
"950 1080 OFFCURVE",
"680 1080 CURVE SMOOTH",
"510 1080 OFFCURVE",
"418 1010 OFFCURVE",
"400 868 CURVE",
"318 868 LINE",
"380 596 LINE",
"380 800 OFFCURVE",
"470 900 OFFCURVE",
"650 900 CURVE SMOOTH",
"806 900 OFFCURVE",
"894 762 OFFCURVE",
"894 520 CURVE SMOOTH",
"894 282 OFFCURVE",
"810 160 OFFCURVE",
"648 160 CURVE SMOOTH",
"468 160 OFFCURVE",
"380 220 OFFCURVE",
"380 340 CURVE SMOOTH",
"380 456 LINE",
"308 164 LINE",
"400 164 LINE",
"414 42 OFFCURVE",
"522 -20 OFFCURVE",
"682 -20 CURVE SMOOTH"
);
},
{
closed = 1;
nodes = (
"380 -460 LINE",
"380 836 LINE",
"360 1060 LINE",
"168 1060 LINE",
"168 -460 LINE"
);
}
);
width = 1200;
}
);
unicode = 0070;
},
{
glyphname = thorn;
lastChange = "2019-09-23 18:12:09 +0000";
layers = (
{
background = {
components = (
{
name = l;
transform = "{1, 0, 0, 1, -233, 0}";
}
);
};
layerId = "BBAB2DB2-7554-4FB8-925D-17003E4845F8";
paths = (
{
closed = 1;
nodes = (
"950 -20 OFFCURVE",
"1104 172 OFFCURVE",
"1104 520 CURVE SMOOTH",
"1104 876 OFFCURVE",
"950 1080 OFFCURVE",
"680 1080 CURVE SMOOTH",
"510 1080 OFFCURVE",
"418 1010 OFFCURVE",
"400 868 CURVE",
"318 868 LINE",
"380 596 LINE",
"380 800 OFFCURVE",
"470 900 OFFCURVE",
"650 900 CURVE SMOOTH",
"806 900 OFFCURVE",
"894 762 OFFCURVE",
"894 520 CURVE SMOOTH",
"894 282 OFFCURVE",
"810 160 OFFCURVE",
"648 160 CURVE SMOOTH",
"468 160 OFFCURVE",
"380 220 OFFCURVE",
"380 340 CURVE SMOOTH",
"380 456 LINE",
"308 164 LINE",
"400 164 LINE",
"414 42 OFFCURVE",
"522 -20 OFFCURVE",
"682 -20 CURVE SMOOTH"
);
},
{
closed = 1;
nodes = (
"380 -460 LINE",
"380 1500 LINE",
"168 1500 LINE",
"168 -460 LINE"
);
}
);
width = 1200;
}
);
unicode = 00FE;
},
{
glyphname = q;
lastChange = "2019-09-23 16:44:16 +0000";
layers = (
{
anchors = (
{
name = bottom;
position = "{540, 0}";
},
{
name = top;
position = "{540, 1060}";
}
);
background = {
paths = (
{
closed = 1;
nodes = (
"1028 -460 LINE",
"1032 1000 LINE",
"820 1000 LINE",
"820 -460 LINE"
);
},
{
closed = 1;
nodes = (
"802 788 LINE",
"764 936 OFFCURVE",
"652 1020 OFFCURVE",
"498 1020 CURVE SMOOTH",
"242 1020 OFFCURVE",
"96 830 OFFCURVE",
"96 500 CURVE SMOOTH",
"96 170 OFFCURVE",
"234 -20 OFFCURVE",
"476 -20 CURVE SMOOTH",
"648 -20 OFFCURVE",
"770 64 OFFCURVE",
"808 212 CURVE",
"882 212 LINE",
"882 788 LINE"
);
},
{
closed = 1;
nodes = (
"404 170 OFFCURVE",
"316 290 OFFCURVE",
"316 500 CURVE SMOOTH",
"316 710 OFFCURVE",
"408 830 OFFCURVE",
"568 830 CURVE SMOOTH",
"728 830 OFFCURVE",
"820 710 OFFCURVE",
"820 500 CURVE SMOOTH",
"820 290 OFFCURVE",
"722 170 OFFCURVE",
"554 170 CURVE SMOOTH"
);
}
);
};
layerId = "BBAB2DB2-7554-4FB8-925D-17003E4845F8";
paths = (
{
closed = 1;
nodes = (
"670 -20 OFFCURVE",
"778 42 OFFCURVE",
"792 164 CURVE",
"884 164 LINE",
"812 456 LINE",
"812 340 LINE SMOOTH",
"812 220 OFFCURVE",
"724 160 OFFCURVE",
"544 160 CURVE SMOOTH",
"382 160 OFFCURVE",
"298 282 OFFCURVE",
"298 520 CURVE SMOOTH",
"298 762 OFFCURVE",
"386 900 OFFCURVE",
"542 900 CURVE SMOOTH",
"722 900 OFFCURVE",
"812 800 OFFCURVE",
"812 596 CURVE",
"874 868 LINE",
"792 868 LINE",
"774 1010 OFFCURVE",
"682 1080 OFFCURVE",
"512 1080 CURVE SMOOTH",
"242 1080 OFFCURVE",
"88 876 OFFCURVE",
"88 520 CURVE SMOOTH",
"88 172 OFFCURVE",
"242 -20 OFFCURVE",
"510 -20 CURVE SMOOTH"
);
},
{
closed = 1;
nodes = (
"1024 -460 LINE",
"1024 1060 LINE",
"832 1060 LINE",
"812 836 LINE",
"812 -460 LINE"
);
}
);
width = 1200;
}
);
unicode = 0071;
},
{
glyphname = r;
lastChange = "2019-09-28 19:15:34 +0000";
layers = (
{
anchors = (
{
name = bottom;
position = "{430, 0}";
},
{
name = top;
position = "{600, 1060}";
}
);
background = {
paths = (
{
closed = 1;
nodes = (
"1152 622 LINE",
"1152 902 OFFCURVE",
"1054 1020 OFFCURVE",
"828 1020 CURVE SMOOTH",
"626 1020 OFFCURVE",
"520 904 OFFCURVE",
"508 668 CURVE",
"426 668 LINE",
"488 396 LINE",
"488 600 OFFCURVE",
"588 840 OFFCURVE",
"788 840 CURVE SMOOTH",
"896 840 OFFCURVE",
"942 776 OFFCURVE",
"942 622 CURVE"
);
}
);
};
layerId = "BBAB2DB2-7554-4FB8-925D-17003E4845F8";
paths = (
{
closed = 1;
nodes = (
"528 740 OFFCURVE",
"616 900 OFFCURVE",
"796 900 CURVE SMOOTH",
"898 900 OFFCURVE",
"942 836 OFFCURVE",
"942 682 CURVE",
"1152 682 LINE",
"1152 962 OFFCURVE",
"1058 1080 OFFCURVE",
"840 1080 CURVE SMOOTH",
"656 1080 OFFCURVE",
"560 984 OFFCURVE",
"548 788 CURVE",
"466 788 LINE",
"528 456 LINE"
);
},
{
closed = 1;
nodes = (
"788 0 LINE",
"788 176 LINE",
"80 176 LINE",
"80 0 LINE"
);
},
{
closed = 1;
nodes = (
"528 0 LINE",
"528 756 LINE",
"488 1060 LINE",
"316 1060 LINE",
"316 0 LINE"
);
},
{
closed = 1;
nodes = (
"494 884 LINE",
"474 1060 LINE",
"120 1060 LINE",
"120 884 LINE"
);
}
);
width = 1200;
}
);
unicode = 0072;
},
{
glyphname = s;
lastChange = "2019-09-28 19:15:38 +0000";
layers = (
{
anchors = (
{
name = bottom;
position = "{610, 0}";
},
{
name = top;
position = "{630, 1060}";
}
);
background = {
paths = (
{
closed = 1;
nodes = (
"438 606 LINE SMOOTH",
"438 746 OFFCURVE",
"514 812 OFFCURVE",
"664 818 CURVE SMOOTH",
"978 830 LINE",
"958 1020 LINE",
"684 1012 LINE SMOOTH",
"374 1002 OFFCURVE",
"222 854 OFFCURVE",
"226 574 CURVE",
"226 192 LINE",
"46 170 LINE",
"46 0 LINE",
"386 -10 LINE",
"400 244 LINE",
"438 332 LINE"
);
}
);
};
layerId = "BBAB2DB2-7554-4FB8-925D-17003E4845F8";
paths = (
{
closed = 1;
nodes = (
"886 -20 OFFCURVE",
"1044 78 OFFCURVE",
"1044 306 CURVE SMOOTH",
"1044 476 OFFCURVE",
"944 554 OFFCURVE",
"722 608 CURVE SMOOTH",
"526 656 LINE SMOOTH",
"448 676 OFFCURVE",
"412 698 OFFCURVE",
"412 760 CURVE SMOOTH",
"412 852 OFFCURVE",
"506 890 OFFCURVE",
"730 890 CURVE SMOOTH",
"808 890 OFFCURVE",
"886 886 OFFCURVE",
"994 876 CURVE",
"1016 1060 LINE",
"922 1074 OFFCURVE",
"838 1080 OFFCURVE",
"736 1080 CURVE SMOOTH",
"354 1080 OFFCURVE",
"192 982 OFFCURVE",
"192 750 CURVE SMOOTH",
"192 590 OFFCURVE",
"280 522 OFFCURVE",
"476 472 CURVE SMOOTH",
"720 410 LINE SMOOTH",
"790 392 OFFCURVE",
"824 366 OFFCURVE",
"824 302 CURVE SMOOTH",
"824 210 OFFCURVE",
"732 170 OFFCURVE",
"518 170 CURVE SMOOTH",
"422 170 OFFCURVE",
"320 180 OFFCURVE",
"180 202 CURVE",
"156 10 LINE",
"250 -12 OFFCURVE",
"358 -20 OFFCURVE",
"518 -20 CURVE SMOOTH"
);
}
);
width = 1200;
}
);
unicode = 0073;
},
{
glyphname = germandbls;
lastChange = "2019-09-28 19:17:15 +0000";
layers = (
{
background = {
paths = (
{
closed = 1;
nodes = (
"1060 -20 OFFCURVE",
"1164 72 OFFCURVE",
"1164 286 CURVE SMOOTH",
"1164 524 OFFCURVE",
"902 572 OFFCURVE",
"902 750 CURVE SMOOTH",
"902 1028 OFFCURVE",
"1119 902 OFFCURVE",
"1119 1180 CURVE SMOOTH",
"1119 1412 OFFCURVE",
"995 1520 OFFCURVE",
"746 1520 CURVE",
"742 1330 LINE",
"903 1330 OFFCURVE",
"922 1284 OFFCURVE",
"922 1180 CURVE SMOOTH",
"922 895 OFFCURVE",
"682 1025 OFFCURVE",
"682 740 CURVE SMOOTH",
"682 448 OFFCURVE",
"944 505 OFFCURVE",
"944 282 CURVE SMOOTH",
"944 204 OFFCURVE",
"906 170 OFFCURVE",
"818 170 CURVE SMOOTH",
"745 170 OFFCURVE",
"667 180 OFFCURVE",
"560 202 CURVE",
"536 10 LINE",
"609 -12 OFFCURVE",
"693 -20 OFFCURVE",
"818 -20 CURVE SMOOTH"
);
}
);
};
layerId = "BBAB2DB2-7554-4FB8-925D-17003E4845F8";
paths = (
{
closed = 1;
nodes = (
"368 644 LINE",
"368 820 LINE",
"68 820 LINE",
"68 644 LINE"
);
},
{
closed = 1;
nodes = (
"872 856 OFFCURVE",
"903 898 OFFCURVE",
"928 946 CURVE SMOOTH",
"974 1015 OFFCURVE",
"1029 1069 OFFCURVE",
"1029 1210 CURVE SMOOTH",
"1029 1407 OFFCURVE",
"900 1520 OFFCURVE",
"674 1520 CURVE SMOOTH",
"387 1520 OFFCURVE",
"222 1356 OFFCURVE",
"222 1070 CURVE SMOOTH",
"222 0 LINE",
"434 0 LINE",
"434 1080 LINE SMOOTH",
"434 1239 OFFCURVE",
"519 1330 OFFCURVE",
"668 1330 CURVE SMOOTH",
"758 1328 OFFCURVE",
"809 1284 OFFCURVE",
"809 1210 CURVE SMOOTH",
"809 1113 OFFCURVE",
"765 1050 OFFCURVE",
"727 991 CURVE SMOOTH",
"694 929 OFFCURVE",
"652 863 OFFCURVE",
"652 770 CURVE SMOOTH",
"652 626 OFFCURVE",
"741 559 OFFCURVE",
"821 489 CURVE SMOOTH",
"887 437 OFFCURVE",
"944 379 OFFCURVE",
"944 282 CURVE SMOOTH",
"944 211 OFFCURVE",
"898 170 OFFCURVE",
"818 170 CURVE SMOOTH",
"760 170 OFFCURVE",
"687 182 OFFCURVE",
"590 202 CURVE",
"566 10 LINE",
"631 -9 OFFCURVE",
"712 -20 OFFCURVE",
"818 -20 CURVE SMOOTH",
"1038 -20 OFFCURVE",
"1164 91 OFFCURVE",
"1164 286 CURVE SMOOTH",
"1164 428 OFFCURVE",
"1066 519 OFFCURVE",
"980 599 CURVE SMOOTH",
"923 661 OFFCURVE",
"872 715 OFFCURVE",
"872 780 CURVE SMOOTH"
);
}
);
width = 1200;
}
);
unicode = 00DF;
},
{
glyphname = t;
lastChange = "2019-09-26 19:57:48 +0000";
layers = (
{
anchors = (
{
name = bottom;
position = "{655, 0}";
},
{
name = center;
position = "{432, 570}";
},
{
name = top;
position = "{600, 1380}";
},
{
name = topright;
position = "{1070, 1060}";
}
);
background = {
paths = (
{
closed = 1;
nodes = (
"84 1324 LINE",
"456 1324 LINE",
"456 1500 LINE",
"82 1500 LINE"
);
},
{
closed = 1;
nodes = (
"436 580 LINE",
"434 240 LINE SMOOTH",
"434 58 OFFCURVE",
"514 -20 OFFCURVE",
"702 -20 CURVE SMOOTH",
"816 -20 OFFCURVE",
"910 -8 OFFCURVE",
"1018 22 CURVE",
"994 208 LINE",
"882 182 OFFCURVE",
"800 170 OFFCURVE",
"722 170 CURVE SMOOTH",
"668 170 OFFCURVE",
"646 194 OFFCURVE",
"646 250 CURVE SMOOTH",
"646 580 LINE"
);
},
{
closed = 1;
nodes = (
"646 580 LINE",
"646 1500 LINE",
"438 1500 LINE",
"436 580 LINE"
);
}
);
};
layerId = "BBAB2DB2-7554-4FB8-925D-17003E4845F8";
paths = (
{
closed = 1;
nodes = (
"882 -20 OFFCURVE",
"966 -12 OFFCURVE",
"1060 4 CURVE",
"1036 190 LINE",
"940 178 OFFCURVE",
"868 170 OFFCURVE",
"802 170 CURVE SMOOTH",
"614 170 OFFCURVE",
"538 242 OFFCURVE",
"538 410 CURVE SMOOTH",
"538 580 LINE",
"326 580 LINE",
"326 400 LINE SMOOTH",
"326 106 OFFCURVE",
"460 -20 OFFCURVE",
"782 -20 CURVE SMOOTH"
);
},
{
closed = 1;
nodes = (
"538 500 LINE",
"538 1380 LINE",
"326 1380 LINE",
"326 500 LINE"
);
},
{
closed = 1;
nodes = (
"1020 884 LINE",
"1020 1060 LINE",
"60 1060 LINE",
"60 884 LINE"
);
}
);
width = 1200;
}
);
unicode = 0074;
},
{
glyphname = tbar;
lastChange = "2019-09-28 19:18:50 +0000";
layers = (
{
components = (
{
name = t;
}
);
layerId = "BBAB2DB2-7554-4FB8-925D-17003E4845F8";
paths = (
{
closed = 1;
nodes = (
"1020 496 LINE",
"1020 672 LINE",
"60 672 LINE",
"60 496 LINE"
);
}
);
width = 1200;
}
);
unicode = 0167;
},
{
glyphname = tcaron;
lastChange = "2019-09-23 18:36:34 +0000";
layers = (
{
components = (
{
name = t;
}
);
layerId = "BBAB2DB2-7554-4FB8-925D-17003E4845F8";
paths = (
{
closed = 1;
nodes = (
"854 1188 LINE",
"944 1568 LINE",
"732 1568 LINE",
"682 1188 LINE"
);
}
);
width = 1200;
}
);
unicode = 0165;
},
{
glyphname = u;
lastChange = "2019-09-23 16:47:22 +0000";
layers = (
{
anchors = (
{
name = bottom;
position = "{570, 0}";
},
{
name = ogonek;
position = "{1080, 10}";
},
{
name = top;
position = "{590, 1060}";
},
{
name = topright;
position = "{1120, 1060}";
}
);
background = {
components = (
{
name = a;
transform = "{1, 0, 0, 1, 17, 0}";
}
);
};
layerId = "BBAB2DB2-7554-4FB8-925D-17003E4845F8";
paths = (
{
closed = 1;
nodes = (
"658 -20 OFFCURVE",
"752 60 OFFCURVE",
"784 204 CURVE",
"854 204 LINE",
"800 490 LINE",
"800 252 OFFCURVE",
"720 160 OFFCURVE",
"566 160 CURVE SMOOTH",
"438 160 OFFCURVE",
"364 232 OFFCURVE",
"364 360 CURVE SMOOTH",
"364 1080 LINE",
"156 1080 LINE",
"156 360 LINE SMOOTH",
"156 118 OFFCURVE",
"290 -20 OFFCURVE",
"526 -20 CURVE SMOOTH"
);
},
{
closed = 1;
nodes = (
"1158 0 LINE",
"1158 170 LINE",
"1012 192 LINE",
"1012 430 LINE",
"800 430 LINE",
"800 244 LINE",
"818 -10 LINE"
);
},
{
closed = 1;
nodes = (
"1012 360 LINE",
"1012 1080 LINE",
"800 1080 LINE",
"800 300 LINE"
);
}
);
width = 1200;
}
);
unicode = 0075;
},
{
glyphname = uogonek;
lastChange = "2019-09-23 22:22:54 +0000";
layers = (
{
components = (
{
name = u;
}
);
layerId = "BBAB2DB2-7554-4FB8-925D-17003E4845F8";
paths = (
{
closed = 1;
nodes = (
"1137 32 LINE",
"917 30 LINE",
"917 -40 LINE",
"832 -66 OFFCURVE",
"783 -139 OFFCURVE",
"783 -242 CURVE SMOOTH",
"783 -358 OFFCURVE",
"870 -424 OFFCURVE",
"1023 -424 CURVE SMOOTH",
"1060 -424 OFFCURVE",
"1107 -419 OFFCURVE",
"1151 -410 CURVE",
"1151 -240 LINE",
"1114 -250 OFFCURVE",
"1077 -256 OFFCURVE",
"1049 -256 CURVE SMOOTH",
"975 -256 OFFCURVE",
"933 -224 OFFCURVE",
"933 -168 CURVE SMOOTH",
"933 -61 OFFCURVE",
"1015 0 OFFCURVE",
"1157 0 CURVE"
);
}
);
width = 1200;
}
);
unicode = 0173;
},
{
glyphname = v;
lastChange = "2019-09-23 16:47:39 +0000";
layers = (
{
anchors = (
{
name = bottom;
position = "{605, 0}";
},
{
name = top;
position = "{605, 1060}";
}
);
background = {
components = (
{
name = n;
transform = "{-1, 0, 0, -1, 608, 500}";
}
);
};
guideLines = (
{
position = "{317, 70}";
}
);
layerId = "BBAB2DB2-7554-4FB8-925D-17003E4845F8";
paths = (
{
closed = 1;
nodes = (
"746 0 LINE",
"1120 1060 LINE",
"894 1060 LINE",
"614 180 LINE",
"596 180 LINE",
"306 1060 LINE",
"80 1060 LINE",
"464 0 LINE"
);
}
);
width = 1200;
}
);
unicode = 0076;
},
{
glyphname = w;
lastChange = "2019-09-28 17:37:13 +0000";
layers = (
{
anchors = (
{
name = bottom;
position = "{590, 0}";
},
{
name = top;
position = "{590, 1060}";
}
);
background = {
paths = (
{
closed = 1;
nodes = (
"330 1000 LINE",
"640 20 LINE",
"570 20 LINE",
"880 1000 LINE",
"1100 1000 LINE",
"740 -20 LINE",
"470 -20 LINE",
"110 1000 LINE"
);
}
);
};
guideLines = (
{
position = "{307, 70}";
}
);
layerId = "BBAB2DB2-7554-4FB8-925D-17003E4845F8";
paths = (
{
closed = 1;
nodes = (
"980 0 LINE",
"1130 1060 LINE",
"920 1060 LINE",
"830 160 LINE",
"812 160 LINE",
"682 1060 LINE",
"498 1060 LINE",
"576 842 LINE",
"596 842 LINE",
"700 0 LINE"
);
},
{
closed = 1;
nodes = (
"480 0 LINE",
"584 842 LINE",
"594 842 LINE",
"682 1060 LINE",
"498 1060 LINE",
"368 160 LINE",
"350 160 LINE",
"270 1060 LINE",
"70 1060 LINE",
"190 0 LINE"
);
}
);
width = 1200;
}
);
unicode = 0077;
},
{
glyphname = x;
lastChange = "2019-09-23 16:31:03 +0000";
layers = (
{
anchors = (
{
name = bottom;
position = "{600, 0}";
},
{
name = top;
position = "{600, 1060}";
}
);
background = {
paths = (
{
closed = 1;
nodes = (
"864 382 OFFCURVE",
"1020 586 OFFCURVE",
"1064 1000 CURVE",
"844 1000 LINE",
"818 714 OFFCURVE",
"730 572 OFFCURVE",
"582 572 CURVE SMOOTH",
"302 572 LINE",
"302 382 LINE",
"592 382 LINE SMOOTH"
);
},
{
closed = 1;
nodes = (
"380 0 LINE",
"380 1500 LINE",
"168 1500 LINE",
"172 0 LINE"
);
},
{
closed = 1;
nodes = (
"1132 0 LINE",
"842 526 LINE",
"652 444 LINE",
"880 0 LINE"
);
}
);
};
layerId = "BBAB2DB2-7554-4FB8-925D-17003E4845F8";
paths = (
{
closed = 1;
nodes = (
"532 458 LINE",
"106 1060 LINE",
"346 1060 LINE",
"672 584 LINE",
"1094 0 LINE",
"854 0 LINE"
);
},
{
closed = 1;
nodes = (
"528 584 LINE",
"854 1060 LINE",
"1094 1060 LINE",
"656 458 LINE",
"346 0 LINE",
"106 0 LINE"
);
}
);
width = 1200;
}
);
unicode = 0078;
},
{
glyphname = y;
lastChange = "2019-09-23 22:40:09 +0000";
layers = (
{
anchors = (
{
name = bottom;
position = "{940, 0}";
},
{
name = top;
position = "{610, 1060}";
}
);
background = {
components = (
{
name = v;
},
{
name = j;
transform = "{1, 0, 0, 1, -75, 0}";
}
);
};
layerId = "BBAB2DB2-7554-4FB8-925D-17003E4845F8";
paths = (
{
closed = 1;
nodes = (
"250 -460 LINE SMOOTH",
"534 -430 OFFCURVE",
"684 -286 OFFCURVE",
"804 94 CURVE SMOOTH",
"1110 1060 LINE",
"890 1060 LINE",
"626 144 LINE SMOOTH",
"546 -136 OFFCURVE",
"436 -244 OFFCURVE",
"226 -270 CURVE SMOOTH",
"60 -290 LINE",
"70 -480 LINE"
);
},
{
closed = 1;
nodes = (
"628 0 LINE",
"628 160 LINE",
"606 160 LINE",
"270 1060 LINE",
"50 1060 LINE",
"462 0 LINE"
);
}
);
width = 1200;
}
);
unicode = 0079;
},
{
glyphname = z;
lastChange = "2019-09-23 16:31:03 +0000";
layers = (
{
anchors = (
{
name = bottom;
position = "{600, 0}";
},
{
name = center;
position = "{600, 530}";
},
{
name = top;
position = "{600, 1060}";
}
);
background = {
components = (
{
name = n;
}
);
};
layerId = "BBAB2DB2-7554-4FB8-925D-17003E4845F8";
paths = (
{
closed = 1;
nodes = (
"1016 884 LINE",
"880 1002 LINE",
"160 176 LINE",
"312 54 LINE"
);
},
{
closed = 1;
nodes = (
"1036 0 LINE",
"1036 176 LINE",
"160 176 LINE",
"160 0 LINE"
);
},
{
closed = 1;
nodes = (
"1016 884 LINE",
"1016 1060 LINE",
"160 1060 LINE",
"160 884 LINE"
);
}
);
width = 1200;
}
);
unicode = 007A;
},
{
glyphname = dcaron.alt;
lastChange = "2019-09-24 04:58:47 +0000";
layers = (
{
background = {
components = (
{
name = d;
}
);
};
layerId = "BBAB2DB2-7554-4FB8-925D-17003E4845F8";
paths = (
{
closed = 1;
nodes = (
"1194 1188 LINE",
"1284 1568 LINE",
"1092 1568 LINE",
"1042 1188 LINE"
);
},
{
closed = 1;
nodes = (
"615 -20 OFFCURVE",
"707 42 OFFCURVE",
"720 164 CURVE",
"812 164 LINE",
"740 456 LINE",
"740 340 LINE SMOOTH",
"740 220 OFFCURVE",
"672 160 OFFCURVE",
"532 160 CURVE SMOOTH",
"381 160 OFFCURVE",
"306 279 OFFCURVE",
"306 520 CURVE SMOOTH",
"306 774 OFFCURVE",
"380 900 OFFCURVE",
"530 900 CURVE SMOOTH",
"670 900 OFFCURVE",
"740 800 OFFCURVE",
"740 596 CURVE",
"802 868 LINE",
"720 868 LINE",
"704 1010 OFFCURVE",
"627 1080 OFFCURVE",
"480 1080 CURVE SMOOTH",
"223 1080 OFFCURVE",
"96 894 OFFCURVE",
"96 520 CURVE SMOOTH",
"96 159 OFFCURVE",
"222 -20 OFFCURVE",
"478 -20 CURVE SMOOTH"
);
},
{
closed = 1;
nodes = (
"952 0 LINE",
"952 1500 LINE",
"740 1500 LINE",
"740 198 LINE",
"762 -10 LINE"
);
}
);
width = 1200;
}
);
},
{
glyphname = iacute_j.loclNLD;
lastChange = "2019-09-23 19:43:50 +0000";
layers = (
{
components = (
{
name = acutecomb;
transform = "{1, 0, 0, 1, -210, 0}";
},
{
name = acutecomb;
transform = "{1, 0, 0, 1, 290, 0}";
}
);
layerId = "BBAB2DB2-7554-4FB8-925D-17003E4845F8";
paths = (
{
closed = 1;
nodes = (
"422 -468 LINE SMOOTH",
"798 -441 OFFCURVE",
"960 -284 OFFCURVE",
"960 94 CURVE SMOOTH",
"960 384 LINE",
"748 384 LINE",
"748 62 LINE SMOOTH",
"748 -156 OFFCURVE",
"656 -255 OFFCURVE",
"442 -274 CURVE SMOOTH",
"242 -292 LINE",
"252 -480 LINE"
);
},
{
closed = 1;
nodes = (
"960 350 LINE",
"960 1060 LINE",
"748 1060 LINE",
"748 350 LINE"
);
},
{
closed = 1;
nodes = (
"456 0 LINE",
"456 1060 LINE",
"244 1060 LINE",
"244 0 LINE"
);
}
);
width = 1200;
}
);
},
{
glyphname = x.multiply;
lastChange = "2019-08-15 16:18:04 +0000";
layers = (
{
components = (
{
name = multiply;
}
);
layerId = "BBAB2DB2-7554-4FB8-925D-17003E4845F8";
width = 1200;
},
{
associatedMasterId = "BBAB2DB2-7554-4FB8-925D-17003E4845F8";
layerId = "BF448B58-7A35-489E-A1C9-12628F60690C";
paths = (
{
closed = 1;
nodes = (
"600 824 LINE",
"336 1090 LINE",
"160 914 LINE",
"428 652 LINE",
"160 386 LINE",
"336 210 LINE",
"600 480 LINE",
"864 210 LINE",
"1040 386 LINE",
"772 652 LINE",
"1040 914 LINE",
"864 1090 LINE"
);
}
);
width = 1200;
}
);
},
{
color = 4;
glyphname = w_w_w.liga;
lastChange = "2019-09-28 17:11:23 +0000";
layers = (
{
background = {
components = (
{
name = w;
transform = "{1, 0, 0, 1, -1200, 0}";
},
{
name = w;
}
);
};
layerId = "BBAB2DB2-7554-4FB8-925D-17003E4845F8";
paths = (
{
closed = 1;
nodes = (
"1020 0 LINE",
"1130 1060 LINE",
"930 1060 LINE",
"850 160 LINE",
"830 160 LINE",
"676 940 LINE",
"456 940 LINE",
"522 742 LINE",
"572 742 LINE",
"730 0 LINE"
);
},
{
closed = 1;
nodes = (
"-1930 0 LINE",
"-1772 742 LINE",
"-1742 742 LINE",
"-1656 940 LINE",
"-1876 940 LINE",
"-2030 160 LINE",
"-2050 160 LINE",
"-2130 1060 LINE",
"-2330 1060 LINE",
"-2220 0 LINE"
);
},
{
closed = 1;
nodes = (
"-1472 0 LINE",
"-1472 160 LINE",
"-1492 160 LINE",
"-1656 940 LINE",
"-1876 940 LINE",
"-1810 742 LINE",
"-1760 742 LINE",
"-1612 0 LINE"
);
},
{
closed = 1;
nodes = (
"-1352 0 LINE",
"-1194 742 LINE",
"-1164 742 LINE",
"-1078 940 LINE",
"-1298 940 LINE",
"-1472 160 LINE",
"-1492 160 LINE",
"-1492 0 LINE"
);
},
{
closed = 1;
nodes = (
"-894 0 LINE",
"-894 160 LINE",
"-914 160 LINE",
"-1078 940 LINE",
"-1298 940 LINE",
"-1232 742 LINE",
"-1182 742 LINE",
"-1034 0 LINE"
);
},
{
closed = 1;
nodes = (
"-774 0 LINE",
"-606 742 LINE",
"-576 742 LINE",
"-490 940 LINE",
"-710 940 LINE",
"-894 160 LINE",
"-914 160 LINE",
"-914 0 LINE"
);
},
{
closed = 1;
nodes = (
"-286 0 LINE",
"-286 160 LINE",
"-306 160 LINE",
"-490 940 LINE",
"-710 940 LINE",
"-644 742 LINE",
"-594 742 LINE",
"-426 0 LINE"
);
},
{
closed = 1;
nodes = (
"-166 0 LINE",
"-18 742 LINE",
"12 742 LINE",
"98 940 LINE",
"-122 940 LINE",
"-286 160 LINE",
"-306 160 LINE",
"-306 0 LINE"
);
},
{
closed = 1;
nodes = (
"292 0 LINE",
"292 160 LINE",
"272 160 LINE",
"98 940 LINE",
"-122 940 LINE",
"-56 742 LINE",
"-6 742 LINE",
"152 0 LINE"
);
},
{
closed = 1;
nodes = (
"412 0 LINE",
"560 742 LINE",
"590 742 LINE",
"676 940 LINE",
"456 940 LINE",
"292 160 LINE",
"272 160 LINE",
"272 0 LINE"
);
}
);
width = 1200;
}
);
rightMetricsKey = w;
},
{
glyphname = ordfeminine;
lastChange = "2019-09-26 19:50:37 +0000";
layers = (
{
background = {
paths = (
{
closed = 1;
nodes = (
"806 770 OFFCURVE",
"942 903 OFFCURVE",
"942 1105 CURVE SMOOTH",
"942 1307 OFFCURVE",
"806 1440 OFFCURVE",
"600 1440 CURVE SMOOTH",
"394 1440 OFFCURVE",
"258 1307 OFFCURVE",
"258 1105 CURVE SMOOTH",
"258 903 OFFCURVE",
"394 770 OFFCURVE",
"600 770 CURVE SMOOTH"
);
},
{
closed = 1;
nodes = (
"505 920 OFFCURVE",
"443 994 OFFCURVE",
"443 1105 CURVE SMOOTH",
"443 1217 OFFCURVE",
"505 1291 OFFCURVE",
"600 1291 CURVE SMOOTH",
"695 1291 OFFCURVE",
"757 1217 OFFCURVE",
"757 1105 CURVE SMOOTH",
"757 994 OFFCURVE",
"695 920 OFFCURVE",
"600 920 CURVE SMOOTH"
);
}
);
};
layerId = "BBAB2DB2-7554-4FB8-925D-17003E4845F8";
paths = (
{
closed = 1;
nodes = (
"994 785 LINE",
"994 897 LINE",
"887 910 LINE",
"887 1159 LINE SMOOTH",
"887 1340 OFFCURVE",
"774 1438 OFFCURVE",
"534 1439 CURVE SMOOTH",
"372 1440 LINE",
"361 1294 LINE",
"546 1290 LINE SMOOTH",
"662 1288 OFFCURVE",
"721 1252 OFFCURVE",
"721 1178 CURVE SMOOTH",
"721 1016 LINE",
"737 964 LINE",
"745 779 LINE"
);
},
{
closed = 1;
nodes = (
"632 773 OFFCURVE",
"683 816 OFFCURVE",
"716 901 CURVE",
"696 894 LINE",
"757 894 LINE",
"721 1078 LINE",
"721 1009 LINE",
"721 961 OFFCURVE",
"662 909 OFFCURVE",
"545 909 CURVE SMOOTH",
"488 909 OFFCURVE",
"459 935 OFFCURVE",
"459 983 CURVE SMOOTH",
"459 1033 OFFCURVE",
"491 1059 OFFCURVE",
"553 1059 CURVE SMOOTH",
"621 1059 OFFCURVE",
"686 1059 OFFCURVE",
"755 1059 CURVE",
"781 1167 LINE",
"722 1178 OFFCURVE",
"646 1183 OFFCURVE",
"549 1183 CURVE SMOOTH",
"380 1183 OFFCURVE",
"284 1105 OFFCURVE",
"284 966 CURVE SMOOTH",
"284 843 OFFCURVE",
"364 773 OFFCURVE",
"501 773 CURVE SMOOTH"
);
}
);
width = 1200;
}
);
unicode = 00AA;
},
{
glyphname = ordmasculine;
lastChange = "2019-09-26 18:29:23 +0000";
layers = (
{
anchors = (
{
name = ogonek;
position = "{300, 5}";
}
);
background = {
paths = (
{
closed = 1;
nodes = (
"806 770 OFFCURVE",
"942 903 OFFCURVE",
"942 1105 CURVE SMOOTH",
"942 1307 OFFCURVE",
"806 1440 OFFCURVE",
"600 1440 CURVE SMOOTH",
"394 1440 OFFCURVE",
"258 1307 OFFCURVE",
"258 1105 CURVE SMOOTH",
"258 903 OFFCURVE",
"394 770 OFFCURVE",
"600 770 CURVE SMOOTH"
);
},
{
closed = 1;
nodes = (
"505 920 OFFCURVE",
"443 994 OFFCURVE",
"443 1105 CURVE SMOOTH",
"443 1217 OFFCURVE",
"505 1291 OFFCURVE",
"600 1291 CURVE SMOOTH",
"695 1291 OFFCURVE",
"757 1217 OFFCURVE",
"757 1105 CURVE SMOOTH",
"757 994 OFFCURVE",
"695 920 OFFCURVE",
"600 920 CURVE SMOOTH"
);
}
);
};
layerId = "BBAB2DB2-7554-4FB8-925D-17003E4845F8";
paths = (
{
closed = 1;
nodes = (
"806 770 OFFCURVE",
"942 903 OFFCURVE",
"942 1105 CURVE SMOOTH",
"942 1307 OFFCURVE",
"806 1440 OFFCURVE",
"600 1440 CURVE SMOOTH",
"394 1440 OFFCURVE",
"258 1307 OFFCURVE",
"258 1105 CURVE SMOOTH",
"258 903 OFFCURVE",
"394 770 OFFCURVE",
"600 770 CURVE SMOOTH"
);
},
{
closed = 1;
nodes = (
"505 920 OFFCURVE",
"443 994 OFFCURVE",
"443 1105 CURVE SMOOTH",
"443 1217 OFFCURVE",
"505 1291 OFFCURVE",
"600 1291 CURVE SMOOTH",
"695 1291 OFFCURVE",
"757 1217 OFFCURVE",
"757 1105 CURVE SMOOTH",
"757 994 OFFCURVE",
"695 920 OFFCURVE",
"600 920 CURVE SMOOTH"
);
}
);
width = 1200;
}
);
unicode = 00BA;
},
{
glyphname = mu;
lastChange = "2019-09-28 19:08:10 +0000";
layers = (
{
layerId = "BBAB2DB2-7554-4FB8-925D-17003E4845F8";
paths = (
{
closed = 1;
nodes = (
"683 -20 OFFCURVE",
"756 54 OFFCURVE",
"784 204 CURVE",
"854 204 LINE",
"800 490 LINE",
"800 274 OFFCURVE",
"720 190 OFFCURVE",
"566 190 CURVE SMOOTH",
"438 190 OFFCURVE",
"364 276 OFFCURVE",
"364 430 CURVE SMOOTH",
"364 1080 LINE",
"156 1080 LINE",
"156 360 LINE SMOOTH",
"156 268 OFFCURVE",
"253 168 OFFCURVE",
"304 204 CURVE",
"347 204 LINE",
"378 54 OFFCURVE",
"450 -20 OFFCURVE",
"566 -20 CURVE SMOOTH"
);
},
{
closed = 1;
nodes = (
"1158 0 LINE",
"1158 170 LINE",
"1012 192 LINE",
"1012 430 LINE",
"800 430 LINE",
"800 244 LINE",
"818 -10 LINE"
);
},
{
closed = 1;
nodes = (
"1012 360 LINE",
"1012 1080 LINE",
"800 1080 LINE",
"800 300 LINE"
);
},
{
closed = 1;
nodes = (
"388 -460 LINE",
"303 430 LINE",
"156 430 LINE",
"156 -460 LINE"
);
}
);
width = 1200;
}
);
unicode = 03BC;
},
{
glyphname = zero;
lastChange = "2019-09-28 19:15:46 +0000";
layers = (
{
background = {
components = (
{
name = O;
}
);
};
layerId = "BBAB2DB2-7554-4FB8-925D-17003E4845F8";
paths = (
{
closed = 1;
nodes = (
"922 -20 OFFCURVE",
"1084 218 OFFCURVE",
"1084 700 CURVE SMOOTH",
"1084 1194 OFFCURVE",
"922 1440 OFFCURVE",
"600 1440 CURVE SMOOTH",
"278 1440 OFFCURVE",
"116 1194 OFFCURVE",
"116 700 CURVE SMOOTH",
"116 218 OFFCURVE",
"278 -20 OFFCURVE",
"600 -20 CURVE SMOOTH"
);
},
{
closed = 1;
nodes = (
"692 550 OFFCURVE",
"758 616 OFFCURVE",
"758 700 CURVE SMOOTH",
"758 782 OFFCURVE",
"692 848 OFFCURVE",
"608 848 CURVE SMOOTH",
"526 848 OFFCURVE",
"460 782 OFFCURVE",
"460 700 CURVE SMOOTH",
"460 616 OFFCURVE",
"526 550 OFFCURVE",
"608 550 CURVE SMOOTH"
);
},
{
closed = 1;
nodes = (
"420 164 OFFCURVE",
"330 342 OFFCURVE",
"330 700 CURVE SMOOTH",
"330 1072 OFFCURVE",
"420 1256 OFFCURVE",
"600 1256 CURVE SMOOTH",
"780 1256 OFFCURVE",
"870 1072 OFFCURVE",
"870 700 CURVE SMOOTH",
"870 342 OFFCURVE",
"780 164 OFFCURVE",
"600 164 CURVE SMOOTH"
);
}
);
width = 1200;
}
);
unicode = 0030;
},
{
glyphname = one;
lastChange = "2019-09-21 13:00:30 +0000";
layers = (
{
background = {
components = (
{
name = i;
}
);
};
layerId = "BBAB2DB2-7554-4FB8-925D-17003E4845F8";
paths = (
{
closed = 1;
nodes = (
"736 0 LINE",
"736 1420 LINE",
"524 1420 LINE",
"524 0 LINE"
);
},
{
closed = 1;
nodes = (
"544 0 LINE",
"544 186 LINE",
"170 186 LINE",
"170 0 LINE"
);
},
{
closed = 1;
nodes = (
"1052 0 LINE",
"1052 186 LINE",
"716 186 LINE",
"716 0 LINE"
);
},
{
closed = 1;
nodes = (
"524 1214 LINE",
"524 1420 LINE",
"190 1300 LINE",
"190 1098 LINE"
);
}
);
width = 1200;
}
);
unicode = 0031;
},
{
glyphname = two;
lastChange = "2019-09-28 19:15:50 +0000";
layers = (
{
background = {
paths = (
{
closed = 1;
nodes = (
"390 1440 OFFCURVE",
"238 1360 OFFCURVE",
"171 1221 CURVE",
"339 1094 LINE",
"395 1192 OFFCURVE",
"485 1248 OFFCURVE",
"585 1248 CURVE",
"586 1440 LINE"
);
}
);
};
layerId = "BBAB2DB2-7554-4FB8-925D-17003E4845F8";
paths = (
{
closed = 1;
nodes = (
"484 0 LINE",
"484 216 LINE",
"856 460 OFFCURVE",
"1036 724 OFFCURVE",
"1036 1012 CURVE SMOOTH",
"1036 1300 OFFCURVE",
"886 1440 OFFCURVE",
"588 1440 CURVE SMOOTH",
"310 1440 OFFCURVE",
"150 1302 OFFCURVE",
"150 1062 CURVE",
"364 1062 LINE",
"364 1186 OFFCURVE",
"440 1256 OFFCURVE",
"574 1256 CURVE SMOOTH",
"738 1256 OFFCURVE",
"822 1172 OFFCURVE",
"822 1002 CURVE SMOOTH",
"822 726 OFFCURVE",
"608 464 OFFCURVE",
"172 224 CURVE",
"172 0 LINE"
);
},
{
closed = 1;
nodes = (
"1096 0 LINE",
"1096 186 LINE",
"232 186 LINE",
"232 0 LINE"
);
}
);
width = 1200;
}
);
unicode = 0032;
},
{
glyphname = three;
lastChange = "2019-09-28 19:15:57 +0000";
layers = (
{
background = {
paths = (
{
closed = 1;
nodes = (
"484 0 LINE",
"484 216 LINE",
"856 460 OFFCURVE",
"1036 724 OFFCURVE",
"1036 1012 CURVE SMOOTH",
"1036 1284 OFFCURVE",
"880 1440 OFFCURVE",
"608 1440 CURVE SMOOTH",
"400 1440 OFFCURVE",
"235 1357 OFFCURVE",
"156 1212 CURVE",
"314 1090 LINE",
"396 1190 OFFCURVE",
"502 1248 OFFCURVE",
"604 1248 CURVE SMOOTH",
"743 1248 OFFCURVE",
"822 1158 OFFCURVE",
"822 1002 CURVE SMOOTH",
"822 726 OFFCURVE",
"608 464 OFFCURVE",
"172 224 CURVE",
"172 0 LINE"
);
},
{
closed = 1;
nodes = (
"1096 0 LINE",
"1096 186 LINE",
"232 186 LINE",
"232 0 LINE"
);
}
);
};
layerId = "BBAB2DB2-7554-4FB8-925D-17003E4845F8";
paths = (
{
closed = 1;
nodes = (
"916 -20 OFFCURVE",
"1094 126 OFFCURVE",
"1094 380 CURVE SMOOTH",
"1094 604 OFFCURVE",
"934 738 OFFCURVE",
"702 756 CURVE SMOOTH",
"396 780 LINE",
"420 650 LINE",
"452 650 LINE SMOOTH",
"724 650 OFFCURVE",
"880 560 OFFCURVE",
"880 400 CURVE SMOOTH",
"880 250 OFFCURVE",
"776 164 OFFCURVE",
"596 164 CURVE SMOOTH",
"422 164 OFFCURVE",
"336 242 OFFCURVE",
"336 398 CURVE",
"122 398 LINE",
"122 118 OFFCURVE",
"284 -20 OFFCURVE",
"604 -20 CURVE SMOOTH"
);
},
{
closed = 1;
nodes = (
"758 650 LINE",
"758 770 LINE",
"934 817 OFFCURVE",
"1054 951 OFFCURVE",
"1054 1122 CURVE SMOOTH",
"1054 1326 OFFCURVE",
"900 1440 OFFCURVE",
"628 1440 CURVE SMOOTH",
"326 1440 OFFCURVE",
"152 1302 OFFCURVE",
"152 1062 CURVE",
"366 1062 LINE",
"366 1186 OFFCURVE",
"452 1256 OFFCURVE",
"606 1256 CURVE SMOOTH",
"756 1256 OFFCURVE",
"840 1188 OFFCURVE",
"840 1072 CURVE SMOOTH",
"840 927 OFFCURVE",
"708 819 OFFCURVE",
"396 780 CURVE",
"420 650 LINE"
);
}
);
width = 1200;
}
);
unicode = 0033;
},
{
glyphname = four;
lastChange = "2019-09-23 23:45:35 +0000";
layers = (
{
layerId = "BBAB2DB2-7554-4FB8-925D-17003E4845F8";
paths = (
{
closed = 1;
nodes = (
"278 318 LINE",
"480 1340 LINE",
"274 1340 LINE",
"74 318 LINE"
);
},
{
closed = 1;
nodes = (
"804 318 LINE",
"804 494 LINE",
"214 494 LINE",
"72 318 LINE"
);
},
{
closed = 1;
nodes = (
"1120 318 LINE",
"1120 494 LINE",
"966 494 LINE",
"966 318 LINE"
);
},
{
closed = 1;
nodes = (
"986 0 LINE",
"986 1420 LINE",
"784 1420 LINE",
"784 0 LINE"
);
}
);
width = 1200;
}
);
unicode = 0034;
},
{
glyphname = five;
lastChange = "2019-09-28 19:16:00 +0000";
layers = (
{
background = {
paths = (
{
closed = 1;
nodes = (
"442 170 OFFCURVE",
"362 246 OFFCURVE",
"362 398 CURVE",
"160 398 LINE",
"160 118 OFFCURVE",
"308 -20 OFFCURVE",
"604 -20 CURVE SMOOTH",
"902 -20 OFFCURVE",
"1074 134 OFFCURVE",
"1074 400 CURVE SMOOTH",
"1074 630 OFFCURVE",
"930 782 OFFCURVE",
"722 786 CURVE SMOOTH",
"416 790 LINE",
"440 660 LINE",
"492 660 LINE SMOOTH",
"722 660 OFFCURVE",
"854 566 OFFCURVE",
"854 400 CURVE SMOOTH",
"854 254 OFFCURVE",
"762 170 OFFCURVE",
"606 170 CURVE SMOOTH"
);
},
{
closed = 1;
nodes = (
"392 1182 OFFCURVE",
"470 1250 OFFCURVE",
"606 1250 CURVE SMOOTH",
"738 1250 OFFCURVE",
"814 1192 OFFCURVE",
"814 1092 CURVE SMOOTH",
"814 942 OFFCURVE",
"696 830 OFFCURVE",
"416 790 CURVE",
"440 660 LINE",
"778 660 LINE",
"778 800 LINE",
"930 842 OFFCURVE",
"1034 958 OFFCURVE",
"1034 1102 CURVE SMOOTH",
"1034 1318 OFFCURVE",
"886 1440 OFFCURVE",
"628 1440 CURVE SMOOTH",
"350 1440 OFFCURVE",
"190 1302 OFFCURVE",
"190 1062 CURVE",
"392 1062 LINE"
);
}
);
};
layerId = "BBAB2DB2-7554-4FB8-925D-17003E4845F8";
paths = (
{
closed = 1;
nodes = (
"914 -20 OFFCURVE",
"1094 154 OFFCURVE",
"1094 458 CURVE SMOOTH",
"1094 764 OFFCURVE",
"948 926 OFFCURVE",
"652 926 CURVE SMOOTH",
"550 926 OFFCURVE",
"450 910 OFFCURVE",
"348 850 CURVE",
"330 680 LINE",
"408 724 OFFCURVE",
"492 746 OFFCURVE",
"582 746 CURVE SMOOTH",
"780 746 OFFCURVE",
"880 650 OFFCURVE",
"880 458 CURVE SMOOTH",
"880 272 OFFCURVE",
"778 164 OFFCURVE",
"596 164 CURVE SMOOTH",
"436 164 OFFCURVE",
"346 250 OFFCURVE",
"346 398 CURVE",
"132 398 LINE",
"132 132 OFFCURVE",
"300 -20 OFFCURVE",
"594 -20 CURVE SMOOTH"
);
},
{
closed = 1;
nodes = (
"330 680 LINE",
"414 804 LINE",
"448 1420 LINE",
"238 1420 LINE",
"218 680 LINE"
);
},
{
closed = 1;
nodes = (
"1004 1234 LINE",
"1004 1420 LINE",
"316 1420 LINE",
"334 1234 LINE"
);
}
);
width = 1200;
}
);
unicode = 0035;
},
{
glyphname = six;
lastChange = "2019-08-15 16:18:04 +0000";
layers = (
{
background = {
components = (
{
name = o;
}
);
};
layerId = "BBAB2DB2-7554-4FB8-925D-17003E4845F8";
paths = (
{
closed = 1;
nodes = (
"340 666 LINE SMOOTH",
"340 1030 OFFCURVE",
"548 1218 OFFCURVE",
"974 1236 CURVE",
"954 1426 LINE",
"390 1398 OFFCURVE",
"118 1116 OFFCURVE",
"118 574 CURVE SMOOTH",
"118 526 LINE",
"340 272 LINE"
);
},
{
closed = 1;
nodes = (
"916 -20 OFFCURVE",
"1084 156 OFFCURVE",
"1084 460 CURVE SMOOTH",
"1084 740 OFFCURVE",
"944 900 OFFCURVE",
"696 900 CURVE SMOOTH",
"524 900 OFFCURVE",
"398 816 OFFCURVE",
"358 668 CURVE",
"284 668 LINE",
"284 408 LINE",
"118 526 LINE",
"118 178 OFFCURVE",
"298 -20 OFFCURVE",
"618 -20 CURVE SMOOTH"
);
},
{
closed = 1;
nodes = (
"434 164 OFFCURVE",
"340 256 OFFCURVE",
"340 440 CURVE SMOOTH",
"340 616 OFFCURVE",
"436 716 OFFCURVE",
"606 716 CURVE SMOOTH",
"776 716 OFFCURVE",
"870 624 OFFCURVE",
"870 460 CURVE SMOOTH",
"870 272 OFFCURVE",
"780 164 OFFCURVE",
"620 164 CURVE SMOOTH"
);
}
);
width = 1200;
}
);
unicode = 0036;
},
{
glyphname = seven;
lastChange = "2019-09-19 01:17:11 +0000";
layers = (
{
layerId = "BBAB2DB2-7554-4FB8-925D-17003E4845F8";
paths = (
{
closed = 1;
nodes = (
"666 0 LINE",
"1154 1420 LINE",
"935 1420 LINE",
"447 0 LINE"
);
},
{
closed = 1;
nodes = (
"318 922 LINE",
"318 1390 LINE",
"112 1390 LINE",
"112 922 LINE"
);
},
{
closed = 1;
nodes = (
"1012 1230 LINE",
"1154 1420 LINE",
"112 1420 LINE",
"112 1230 LINE"
);
}
);
width = 1200;
}
);
unicode = 0037;
},
{
glyphname = eight;
lastChange = "2019-08-15 16:18:04 +0000";
layers = (
{
background = {
paths = (
{
closed = 1;
nodes = (
"906 -20 OFFCURVE",
"1106 138 OFFCURVE",
"1106 380 CURVE SMOOTH",
"1106 598 OFFCURVE",
"906 740 OFFCURVE",
"602 740 CURVE SMOOTH",
"296 740 OFFCURVE",
"96 598 OFFCURVE",
"96 380 CURVE SMOOTH",
"96 138 OFFCURVE",
"296 -20 OFFCURVE",
"602 -20 CURVE SMOOTH"
);
},
{
closed = 1;
nodes = (
"430 170 OFFCURVE",
"316 254 OFFCURVE",
"316 380 CURVE SMOOTH",
"316 518 OFFCURVE",
"430 610 OFFCURVE",
"602 610 CURVE SMOOTH",
"774 610 OFFCURVE",
"886 518 OFFCURVE",
"886 380 CURVE SMOOTH",
"886 254 OFFCURVE",
"774 170 OFFCURVE",
"602 170 CURVE SMOOTH"
);
}
);
};
layerId = "BBAB2DB2-7554-4FB8-925D-17003E4845F8";
paths = (
{
closed = 1;
nodes = (
"908 -20 OFFCURVE",
"1084 130 OFFCURVE",
"1084 390 CURVE SMOOTH",
"1084 628 OFFCURVE",
"908 764 OFFCURVE",
"600 764 CURVE SMOOTH",
"292 764 OFFCURVE",
"116 628 OFFCURVE",
"116 390 CURVE SMOOTH",
"116 130 OFFCURVE",
"292 -20 OFFCURVE",
"600 -20 CURVE SMOOTH"
);
},
{
closed = 1;
nodes = (
"428 164 OFFCURVE",
"330 250 OFFCURVE",
"330 400 CURVE SMOOTH",
"330 560 OFFCURVE",
"428 654 OFFCURVE",
"600 654 CURVE SMOOTH",
"772 654 OFFCURVE",
"870 560 OFFCURVE",
"870 400 CURVE SMOOTH",
"870 250 OFFCURVE",
"772 164 OFFCURVE",
"600 164 CURVE SMOOTH"
);
},
{
closed = 1;
nodes = (
"768 706 LINE",
"768 808 LINE",
"434 808 LINE",
"434 706 LINE"
);
},
{
closed = 1;
nodes = (
"454 846 OFFCURVE",
"370 918 OFFCURVE",
"370 1040 CURVE SMOOTH",
"370 1178 OFFCURVE",
"454 1256 OFFCURVE",
"600 1256 CURVE SMOOTH",
"746 1256 OFFCURVE",
"830 1178 OFFCURVE",
"830 1040 CURVE SMOOTH",
"830 918 OFFCURVE",
"746 846 OFFCURVE",
"600 846 CURVE SMOOTH"
);
},
{
closed = 1;
nodes = (
"882 746 OFFCURVE",
"1044 868 OFFCURVE",
"1044 1080 CURVE SMOOTH",
"1044 1308 OFFCURVE",
"882 1440 OFFCURVE",
"600 1440 CURVE SMOOTH",
"318 1440 OFFCURVE",
"156 1308 OFFCURVE",
"156 1080 CURVE SMOOTH",
"156 868 OFFCURVE",
"318 746 OFFCURVE",
"600 746 CURVE SMOOTH"
);
}
);
width = 1200;
}
);
unicode = 0038;
},
{
glyphname = nine;
lastChange = "2019-08-25 18:12:39 +0000";
layers = (
{
layerId = "BBAB2DB2-7554-4FB8-925D-17003E4845F8";
paths = (
{
closed = 1;
nodes = (
"812 22 OFFCURVE",
"1084 304 OFFCURVE",
"1084 846 CURVE SMOOTH",
"1084 894 LINE",
"862 1148 LINE",
"862 754 LINE SMOOTH",
"862 390 OFFCURVE",
"654 202 OFFCURVE",
"228 184 CURVE",
"248 -6 LINE"
);
},
{
closed = 1;
nodes = (
"426 704 OFFCURVE",
"332 796 OFFCURVE",
"332 960 CURVE SMOOTH",
"332 1148 OFFCURVE",
"422 1256 OFFCURVE",
"582 1256 CURVE SMOOTH",
"768 1256 OFFCURVE",
"862 1164 OFFCURVE",
"862 980 CURVE SMOOTH",
"862 804 OFFCURVE",
"766 704 OFFCURVE",
"596 704 CURVE SMOOTH"
);
},
{
closed = 1;
nodes = (
"678 520 OFFCURVE",
"804 604 OFFCURVE",
"844 752 CURVE",
"918 752 LINE",
"918 1012 LINE",
"1084 894 LINE",
"1084 1242 OFFCURVE",
"904 1440 OFFCURVE",
"584 1440 CURVE SMOOTH",
"286 1440 OFFCURVE",
"118 1264 OFFCURVE",
"118 960 CURVE SMOOTH",
"118 680 OFFCURVE",
"258 520 OFFCURVE",
"506 520 CURVE SMOOTH"
);
}
);
width = 1200;
}
);
unicode = 0039;
},
{
glyphname = zero.ss01;
lastChange = "2019-09-28 19:16:06 +0000";
layers = (
{
layerId = "BBAB2DB2-7554-4FB8-925D-17003E4845F8";
paths = (
{
closed = 1;
nodes = (
"872 1120 LINE",
"230 338 LINE",
"312 232 LINE",
"970 1040 LINE"
);
},
{
closed = 1;
nodes = (
"922 -20 OFFCURVE",
"1084 218 OFFCURVE",
"1084 700 CURVE SMOOTH",
"1084 1194 OFFCURVE",
"922 1440 OFFCURVE",
"600 1440 CURVE SMOOTH",
"278 1440 OFFCURVE",
"116 1194 OFFCURVE",
"116 700 CURVE SMOOTH",
"116 218 OFFCURVE",
"278 -20 OFFCURVE",
"600 -20 CURVE SMOOTH"
);
},
{
closed = 1;
nodes = (
"420 164 OFFCURVE",
"330 342 OFFCURVE",
"330 700 CURVE SMOOTH",
"330 1072 OFFCURVE",
"420 1256 OFFCURVE",
"600 1256 CURVE SMOOTH",
"780 1256 OFFCURVE",
"870 1072 OFFCURVE",
"870 700 CURVE SMOOTH",
"870 342 OFFCURVE",
"780 164 OFFCURVE",
"600 164 CURVE SMOOTH"
);
}
);
width = 1200;
}
);
leftMetricsKey = zero;
rightMetricsKey = zero;
},
{
glyphname = onesuperior;
lastChange = "2019-09-28 16:59:12 +0000";
layers = (
{
layerId = "BBAB2DB2-7554-4FB8-925D-17003E4845F8";
paths = (
{
closed = 1;
nodes = (
"697 802 LINE",
"697 1422 LINE",
"541 1422 LINE",
"541 802 LINE"
);
},
{
closed = 1;
nodes = (
"549 802 LINE",
"549 943 LINE",
"342 943 LINE",
"342 802 LINE"
);
},
{
closed = 1;
nodes = (
"860 802 LINE",
"860 943 LINE",
"688 943 LINE",
"688 802 LINE"
);
},
{
closed = 1;
nodes = (
"541 1262 LINE",
"541 1422 LINE",
"351 1369 LINE",
"351 1211 LINE"
);
}
);
width = 1200;
}
);
unicode = 00B9;
},
{
glyphname = twosuperior;
lastChange = "2019-09-28 17:27:10 +0000";
layers = (
{
background = {
components = (
{
name = onesuperior;
}
);
};
layerId = "BBAB2DB2-7554-4FB8-925D-17003E4845F8";
paths = (
{
closed = 1;
nodes = (
"858 803 LINE",
"858 943 LINE",
"368 943 LINE",
"368 803 LINE"
);
},
{
closed = 1;
nodes = (
"383 1232 LINE",
"428 1262 OFFCURVE",
"476 1278 OFFCURVE",
"517 1278 CURVE SMOOTH",
"598 1278 OFFCURVE",
"639 1247 OFFCURVE",
"639 1187 CURVE SMOOTH",
"639 1107 OFFCURVE",
"541 1030 OFFCURVE",
"342 960 CURVE",
"342 803 LINE",
"588 803 LINE",
"588 956 LINE",
"752 1044 OFFCURVE",
"832 1138 OFFCURVE",
"832 1242 CURVE SMOOTH",
"832 1360 OFFCURVE",
"730 1438 OFFCURVE",
"574 1438 CURVE SMOOTH",
"469 1438 OFFCURVE",
"376 1414 OFFCURVE",
"317 1370 CURVE"
);
}
);
width = 1200;
}
);
unicode = 00B2;
},
{
glyphname = threesuperior;
lastChange = "2019-09-28 19:07:22 +0000";
layers = (
{
background = {
paths = (
{
closed = 1;
nodes = (
"858 803 LINE",
"858 943 LINE",
"368 943 LINE",
"368 803 LINE"
);
},
{
closed = 1;
nodes = (
"413 1252 LINE",
"451 1269 OFFCURVE",
"492 1278 OFFCURVE",
"527 1278 CURVE SMOOTH",
"601 1278 OFFCURVE",
"639 1247 OFFCURVE",
"639 1187 CURVE SMOOTH",
"639 1107 OFFCURVE",
"541 1030 OFFCURVE",
"342 960 CURVE",
"342 803 LINE",
"588 803 LINE",
"588 956 LINE",
"752 1044 OFFCURVE",
"832 1138 OFFCURVE",
"832 1242 CURVE SMOOTH",
"832 1374 OFFCURVE",
"750 1438 OFFCURVE",
"584 1438 CURVE SMOOTH",
"487 1438 OFFCURVE",
"401 1421 OFFCURVE",
"347 1390 CURVE"
);
}
);
};
layerId = "BBAB2DB2-7554-4FB8-925D-17003E4845F8";
paths = (
{
closed = 1;
nodes = (
"336 819 LINE",
"393 802 OFFCURVE",
"467 792 OFFCURVE",
"554 793 CURVE SMOOTH",
"740 795 OFFCURVE",
"847 864 OFFCURVE",
"847 988 CURVE SMOOTH",
"847 1078 OFFCURVE",
"770 1130 OFFCURVE",
"656 1140 CURVE SMOOTH",
"483 1155 LINE",
"483 1059 LINE",
"547 1059 LINE SMOOTH",
"628 1059 OFFCURVE",
"674 1040 OFFCURVE",
"674 1007 CURVE SMOOTH",
"674 967 OFFCURVE",
"625 944 OFFCURVE",
"540 944 CURVE SMOOTH",
"472 944 OFFCURVE",
"418 957 OFFCURVE",
"377 965 CURVE"
);
},
{
closed = 1;
nodes = (
"369 1261 LINE",
"420 1280 OFFCURVE",
"477 1290 OFFCURVE",
"544 1290 CURVE SMOOTH",
"616 1290 OFFCURVE",
"656 1271 OFFCURVE",
"656 1241 CURVE SMOOTH",
"656 1209 OFFCURVE",
"602 1184 OFFCURVE",
"473 1175 CURVE",
"483 1059 LINE",
"681 1089 LINE",
"681 1161 LINE",
"770 1179 OFFCURVE",
"830 1233 OFFCURVE",
"830 1302 CURVE SMOOTH",
"830 1391 OFFCURVE",
"738 1440 OFFCURVE",
"574 1440 CURVE SMOOTH",
"490 1440 OFFCURVE",
"414 1431 OFFCURVE",
"348 1410 CURVE"
);
}
);
width = 1200;
}
);
unicode = 00B3;
},
{
glyphname = foursuperior;
lastChange = "2019-09-28 19:07:08 +0000";
layers = (
{
background = {
paths = (
{
closed = 1;
nodes = (
"697 802 LINE",
"697 1422 LINE",
"541 1422 LINE",
"541 802 LINE"
);
},
{
closed = 1;
nodes = (
"549 802 LINE",
"549 943 LINE",
"342 943 LINE",
"342 802 LINE"
);
},
{
closed = 1;
nodes = (
"860 802 LINE",
"860 943 LINE",
"688 943 LINE",
"688 802 LINE"
);
},
{
closed = 1;
nodes = (
"541 1262 LINE",
"541 1422 LINE",
"351 1369 LINE",
"351 1211 LINE"
);
}
);
};
layerId = "BBAB2DB2-7554-4FB8-925D-17003E4845F8";
paths = (
{
closed = 1;
nodes = (
"485 908 LINE",
"563 1387 LINE",
"399 1387 LINE",
"321 908 LINE"
);
},
{
closed = 1;
nodes = (
"650 908 LINE",
"650 1048 LINE",
"382 1048 LINE",
"320 908 LINE"
);
},
{
closed = 1;
nodes = (
"866 908 LINE",
"866 1048 LINE",
"788 1048 LINE",
"788 908 LINE"
);
},
{
closed = 1;
nodes = (
"797 802 LINE",
"797 1422 LINE",
"641 1422 LINE",
"641 802 LINE"
);
}
);
width = 1200;
}
);
unicode = 2074;
},
{
glyphname = fraction;
lastChange = "2019-09-28 17:06:09 +0000";
layers = (
{
layerId = "BBAB2DB2-7554-4FB8-925D-17003E4845F8";
paths = (
{
closed = 1;
nodes = (
"1116 986 LINE",
"1024 1106 LINE",
"94 432 LINE",
"186 306 LINE"
);
}
);
width = 1200;
}
);
unicode = 2044;
},
{
glyphname = onehalf;
lastChange = "2019-09-28 19:07:37 +0000";
layers = (
{
components = (
{
name = twosuperior;
transform = "{1, 0, 0, 1, 270, -803}";
}
);
layerId = "BBAB2DB2-7554-4FB8-925D-17003E4845F8";
paths = (
{
closed = 1;
nodes = (
"437 802 LINE",
"437 1422 LINE",
"281 1422 LINE",
"281 802 LINE"
);
},
{
closed = 1;
nodes = (
"289 802 LINE",
"289 943 LINE",
"82 943 LINE",
"82 802 LINE"
);
},
{
closed = 1;
nodes = (
"600 802 LINE",
"600 943 LINE",
"428 943 LINE",
"428 802 LINE"
);
},
{
closed = 1;
nodes = (
"281 1262 LINE",
"281 1422 LINE",
"91 1369 LINE",
"91 1211 LINE"
);
},
{
closed = 1;
nodes = (
"1116 966 LINE",
"1024 1096 LINE",
"94 432 LINE",
"186 296 LINE"
);
}
);
width = 1200;
}
);
unicode = 00BD;
},
{
glyphname = onequarter;
lastChange = "2019-09-28 19:07:33 +0000";
layers = (
{
components = (
{
name = foursuperior;
transform = "{1, 0, 0, 1, 240, -802}";
}
);
layerId = "BBAB2DB2-7554-4FB8-925D-17003E4845F8";
paths = (
{
closed = 1;
nodes = (
"437 802 LINE",
"437 1422 LINE",
"281 1422 LINE",
"281 802 LINE"
);
},
{
closed = 1;
nodes = (
"289 802 LINE",
"289 943 LINE",
"82 943 LINE",
"82 802 LINE"
);
},
{
closed = 1;
nodes = (
"600 802 LINE",
"600 943 LINE",
"428 943 LINE",
"428 802 LINE"
);
},
{
closed = 1;
nodes = (
"281 1262 LINE",
"281 1422 LINE",
"91 1369 LINE",
"91 1211 LINE"
);
},
{
closed = 1;
nodes = (
"1116 956 LINE",
"1024 1086 LINE",
"94 422 LINE",
"186 286 LINE"
);
}
);
width = 1200;
}
);
unicode = 00BC;
},
{
glyphname = threequarters;
lastChange = "2019-09-28 19:07:26 +0000";
layers = (
{
components = (
{
name = foursuperior;
transform = "{1, 0, 0, 1, 240, -802}";
},
{
name = threesuperior;
transform = "{1, 0, 0, 1, -240, 0}";
}
);
layerId = "BBAB2DB2-7554-4FB8-925D-17003E4845F8";
paths = (
{
closed = 1;
nodes = (
"1116 976 LINE",
"1024 1106 LINE",
"94 442 LINE",
"186 306 LINE"
);
}
);
width = 1200;
}
);
unicode = 00BE;
},
{
glyphname = period;
lastChange = "2019-08-15 16:18:04 +0000";
layers = (
{
layerId = "BBAB2DB2-7554-4FB8-925D-17003E4845F8";
paths = (
{
closed = 1;
nodes = (
"682 -20 OFFCURVE",
"748 46 OFFCURVE",
"748 128 CURVE SMOOTH",
"748 210 OFFCURVE",
"682 276 OFFCURVE",
"600 276 CURVE SMOOTH",
"518 276 OFFCURVE",
"452 210 OFFCURVE",
"452 128 CURVE SMOOTH",
"452 46 OFFCURVE",
"518 -20 OFFCURVE",
"600 -20 CURVE SMOOTH"
);
}
);
width = 1200;
}
);
unicode = 002E;
},
{
glyphname = comma;
lastChange = "2019-08-15 16:18:04 +0000";
layers = (
{
layerId = "BBAB2DB2-7554-4FB8-925D-17003E4845F8";
paths = (
{
closed = 1;
nodes = (
"594 -386 LINE",
"714 254 LINE",
"482 254 LINE",
"402 -386 LINE"
);
}
);
width = 1200;
}
);
unicode = 002C;
},
{
glyphname = colon;
lastChange = "2019-08-15 16:18:04 +0000";
layers = (
{
layerId = "BBAB2DB2-7554-4FB8-925D-17003E4845F8";
paths = (
{
closed = 1;
nodes = (
"682 784 OFFCURVE",
"748 850 OFFCURVE",
"748 932 CURVE SMOOTH",
"748 1014 OFFCURVE",
"682 1080 OFFCURVE",
"600 1080 CURVE SMOOTH",
"518 1080 OFFCURVE",
"452 1014 OFFCURVE",
"452 932 CURVE SMOOTH",
"452 850 OFFCURVE",
"518 784 OFFCURVE",
"600 784 CURVE SMOOTH"
);
},
{
closed = 1;
nodes = (
"682 -20 OFFCURVE",
"748 46 OFFCURVE",
"748 128 CURVE SMOOTH",
"748 210 OFFCURVE",
"682 276 OFFCURVE",
"600 276 CURVE SMOOTH",
"518 276 OFFCURVE",
"452 210 OFFCURVE",
"452 128 CURVE SMOOTH",
"452 46 OFFCURVE",
"518 -20 OFFCURVE",
"600 -20 CURVE SMOOTH"
);
}
);
width = 1200;
}
);
unicode = 003A;
},
{
glyphname = semicolon;
lastChange = "2019-08-15 16:18:04 +0000";
layers = (
{
components = (
{
name = comma;
}
);
layerId = "BBAB2DB2-7554-4FB8-925D-17003E4845F8";
paths = (
{
closed = 1;
nodes = (
"682 784 OFFCURVE",
"748 850 OFFCURVE",
"748 932 CURVE SMOOTH",
"748 1014 OFFCURVE",
"682 1080 OFFCURVE",
"600 1080 CURVE SMOOTH",
"518 1080 OFFCURVE",
"452 1014 OFFCURVE",
"452 932 CURVE SMOOTH",
"452 850 OFFCURVE",
"518 784 OFFCURVE",
"600 784 CURVE SMOOTH"
);
}
);
width = 1200;
}
);
unicode = 003B;
},
{
glyphname = exclam;
lastChange = "2019-08-16 01:31:10 +0000";
layers = (
{
components = (
{
name = period;
}
);
layerId = "BBAB2DB2-7554-4FB8-925D-17003E4845F8";
paths = (
{
closed = 1;
nodes = (
"694 456 LINE",
"704 1430 LINE",
"496 1430 LINE",
"502 456 LINE"
);
}
);
width = 1200;
}
);
unicode = 0021;
},
{
glyphname = question;
lastChange = "2019-09-28 19:16:11 +0000";
layers = (
{
background = {
components = (
{
name = exclam;
}
);
};
components = (
{
name = period;
transform = "{1, 0, 0, 1, 2, 0}";
}
);
layerId = "BBAB2DB2-7554-4FB8-925D-17003E4845F8";
paths = (
{
closed = 1;
nodes = (
"696 456 LINE",
"696 538 LINE SMOOTH",
"696 616 OFFCURVE",
"738 682 OFFCURVE",
"824 738 CURVE SMOOTH",
"972 833 OFFCURVE",
"1046 954 OFFCURVE",
"1046 1102 CURVE SMOOTH",
"1046 1316 OFFCURVE",
"894 1440 OFFCURVE",
"631 1440 CURVE SMOOTH",
"356 1440 OFFCURVE",
"198 1302 OFFCURVE",
"198 1062 CURVE",
"400 1062 LINE",
"400 1182 OFFCURVE",
"484 1250 OFFCURVE",
"629 1250 CURVE SMOOTH",
"754 1250 OFFCURVE",
"826 1192 OFFCURVE",
"826 1092 CURVE SMOOTH",
"826 1000 OFFCURVE",
"772 921 OFFCURVE",
"664 854 CURVE SMOOTH",
"554 784 OFFCURVE",
"500 684 OFFCURVE",
"500 552 CURVE SMOOTH",
"500 456 LINE"
);
}
);
width = 1200;
}
);
unicode = 003F;
},
{
glyphname = periodcentered;
lastChange = "2019-09-20 19:53:59 +0000";
layers = (
{
background = {
paths = (
{
closed = 1;
nodes = (
"380 0 LINE",
"380 836 LINE",
"360 1060 LINE",
"168 1060 LINE",
"168 0 LINE"
);
}
);
};
components = (
{
name = period;
transform = "{1, 0, 0, 1, 0, 402}";
}
);
layerId = "BBAB2DB2-7554-4FB8-925D-17003E4845F8";
width = 1200;
}
);
unicode = 00B7;
},
{
glyphname = asterisk;
lastChange = "2019-08-15 16:18:04 +0000";
layers = (
{
layerId = "BBAB2DB2-7554-4FB8-925D-17003E4845F8";
paths = (
{
closed = 1;
nodes = (
"990 398 LINE",
"654 744 LINE",
"542 648 LINE",
"824 258 LINE"
);
},
{
closed = 1;
nodes = (
"654 648 LINE",
"542 744 LINE",
"206 398 LINE",
"372 258 LINE"
);
},
{
closed = 1;
nodes = (
"624 766 LINE",
"184 962 LINE",
"110 758 LINE",
"572 626 LINE"
);
},
{
closed = 1;
nodes = (
"672 696 LINE",
"706 1176 LINE",
"490 1176 LINE",
"524 696 LINE"
);
},
{
closed = 1;
nodes = (
"1086 758 LINE",
"1012 962 LINE",
"572 766 LINE",
"624 626 LINE"
);
}
);
width = 1200;
}
);
unicode = 002A;
},
{
glyphname = numbersign;
lastChange = "2019-08-15 16:18:04 +0000";
layers = (
{
layerId = "BBAB2DB2-7554-4FB8-925D-17003E4845F8";
paths = (
{
closed = 1;
nodes = (
"866 0 LINE",
"986 1420 LINE",
"810 1420 LINE",
"690 0 LINE"
);
},
{
closed = 1;
nodes = (
"1120 360 LINE",
"1120 530 LINE",
"120 530 LINE",
"120 360 LINE"
);
},
{
closed = 1;
nodes = (
"430 0 LINE",
"550 1420 LINE",
"374 1420 LINE",
"254 0 LINE"
);
},
{
closed = 1;
nodes = (
"1120 890 LINE",
"1120 1060 LINE",
"120 1060 LINE",
"120 890 LINE"
);
}
);
width = 1200;
}
);
unicode = 0023;
},
{
glyphname = slash;
lastChange = "2019-09-28 17:17:33 +0000";
layers = (
{
layerId = "BBAB2DB2-7554-4FB8-925D-17003E4845F8";
paths = (
{
closed = 1;
nodes = (
"316 -190 LINE",
"1120 1610 LINE",
"908 1610 LINE",
"104 -190 LINE"
);
}
);
width = 1200;
}
);
unicode = 002F;
},
{
glyphname = backslash;
lastChange = "2019-09-28 17:17:37 +0000";
layers = (
{
layerId = "BBAB2DB2-7554-4FB8-925D-17003E4845F8";
paths = (
{
closed = 1;
nodes = (
"1120 -190 LINE",
"316 1610 LINE",
"104 1610 LINE",
"908 -190 LINE"
);
}
);
width = 1200;
}
);
unicode = 005C;
},
{
glyphname = parenleft;
lastChange = "2019-09-25 07:37:53 +0000";
layers = (
{
background = {
paths = (
{
closed = 1;
nodes = (
"862 -220 OFFCURVE",
"922 -212 OFFCURVE",
"974 -200 CURVE",
"950 -10 LINE",
"908 -22 OFFCURVE",
"864 -30 OFFCURVE",
"830 -30 CURVE SMOOTH",
"754 -30 OFFCURVE",
"712 104 OFFCURVE",
"712 340 CURVE SMOOTH",
"712 398 OFFCURVE",
"732 454 OFFCURVE",
"732 516 CURVE SMOOTH",
"732 630 OFFCURVE",
"636 696 OFFCURVE",
"470 696 CURVE",
"470 732 LINE",
"636 732 OFFCURVE",
"732 802 OFFCURVE",
"732 926 CURVE SMOOTH",
"732 986 OFFCURVE",
"712 1038 OFFCURVE",
"712 1094 CURVE SMOOTH",
"712 1322 OFFCURVE",
"754 1450 OFFCURVE",
"830 1450 CURVE SMOOTH",
"864 1450 OFFCURVE",
"908 1442 OFFCURVE",
"950 1430 CURVE",
"974 1620 LINE",
"922 1632 OFFCURVE",
"862 1640 OFFCURVE",
"812 1640 CURVE SMOOTH",
"614 1640 OFFCURVE",
"500 1444 OFFCURVE",
"500 1098 CURVE SMOOTH",
"500 1040 OFFCURVE",
"520 986 OFFCURVE",
"520 924 CURVE SMOOTH",
"520 818 OFFCURVE",
"368 758 OFFCURVE",
"272 758 CURVE",
"272 662 LINE",
"374 662 OFFCURVE",
"520 630 OFFCURVE",
"520 516 CURVE SMOOTH",
"520 454 OFFCURVE",
"500 398 OFFCURVE",
"500 340 CURVE SMOOTH",
"500 -14 OFFCURVE",
"614 -220 OFFCURVE",
"812 -220 CURVE SMOOTH"
);
},
{
closed = 1;
nodes = (
"478 662 LINE",
"478 778 LINE",
"426 778 LINE",
"426 662 LINE"
);
}
);
};
layerId = "BBAB2DB2-7554-4FB8-925D-17003E4845F8";
paths = (
{
closed = 1;
nodes = (
"998 -200 LINE",
"978 -20 LINE",
"970 -20 LINE SMOOTH",
"654 -20 OFFCURVE",
"476 249 OFFCURVE",
"476 716 CURVE SMOOTH",
"476 1175 OFFCURVE",
"654 1440 OFFCURVE",
"970 1440 CURVE SMOOTH",
"978 1440 LINE",
"998 1620 LINE",
"950 1620 LINE SMOOTH",
"516 1620 OFFCURVE",
"266 1291 OFFCURVE",
"266 716 CURVE SMOOTH",
"266 133 OFFCURVE",
"516 -200 OFFCURVE",
"950 -200 CURVE SMOOTH"
);
}
);
width = 1200;
}
);
unicode = 0028;
},
{
glyphname = parenright;
lastChange = "2019-09-25 07:37:53 +0000";
layers = (
{
layerId = "BBAB2DB2-7554-4FB8-925D-17003E4845F8";
paths = (
{
closed = 1;
nodes = (
"250 -200 LINE SMOOTH",
"684 -200 OFFCURVE",
"934 133 OFFCURVE",
"934 716 CURVE SMOOTH",
"934 1291 OFFCURVE",
"684 1620 OFFCURVE",
"250 1620 CURVE SMOOTH",
"202 1620 LINE",
"222 1440 LINE",
"230 1440 LINE SMOOTH",
"546 1440 OFFCURVE",
"724 1175 OFFCURVE",
"724 716 CURVE SMOOTH",
"724 249 OFFCURVE",
"546 -20 OFFCURVE",
"230 -20 CURVE SMOOTH",
"222 -20 LINE",
"202 -200 LINE"
);
}
);
width = 1200;
}
);
unicode = 0029;
},
{
glyphname = braceleft;
lastChange = "2019-09-25 07:37:53 +0000";
layers = (
{
layerId = "BBAB2DB2-7554-4FB8-925D-17003E4845F8";
paths = (
{
closed = 1;
nodes = (
"904 -214 OFFCURVE",
"952 -206 OFFCURVE",
"996 -194 CURVE",
"972 -24 LINE",
"925 -30 OFFCURVE",
"881 -34 OFFCURVE",
"844 -34 CURVE SMOOTH",
"749 -34 OFFCURVE",
"698 35 OFFCURVE",
"698 156 CURVE SMOOTH",
"698 267 OFFCURVE",
"704 367 OFFCURVE",
"704 488 CURVE SMOOTH",
"704 615 OFFCURVE",
"622 695 OFFCURVE",
"482 698 CURVE",
"482 732 LINE",
"622 735 OFFCURVE",
"704 810 OFFCURVE",
"704 942 CURVE SMOOTH",
"704 1058 OFFCURVE",
"698 1158 OFFCURVE",
"698 1274 CURVE SMOOTH",
"698 1383 OFFCURVE",
"749 1446 OFFCURVE",
"844 1446 CURVE SMOOTH",
"881 1446 OFFCURVE",
"925 1442 OFFCURVE",
"972 1436 CURVE",
"996 1606 LINE",
"952 1618 OFFCURVE",
"904 1626 OFFCURVE",
"826 1626 CURVE SMOOTH",
"609 1626 OFFCURVE",
"484 1499 OFFCURVE",
"484 1274 CURVE SMOOTH",
"484 1162 OFFCURVE",
"486 1060 OFFCURVE",
"486 938 CURVE SMOOTH",
"486 846 OFFCURVE",
"334 794 OFFCURVE",
"256 794 CURVE",
"256 636 LINE",
"338 636 OFFCURVE",
"486 604 OFFCURVE",
"486 492 CURVE SMOOTH",
"486 375 OFFCURVE",
"484 268 OFFCURVE",
"484 156 CURVE SMOOTH",
"484 -78 OFFCURVE",
"609 -214 OFFCURVE",
"826 -214 CURVE SMOOTH"
);
}
);
width = 1200;
}
);
unicode = 007B;
},
{
glyphname = braceright;
lastChange = "2019-09-25 07:37:53 +0000";
layers = (
{
background = {
paths = (
{
closed = 1;
nodes = (
"580 -204 OFFCURVE",
"716 2 OFFCURVE",
"716 356 CURVE SMOOTH",
"716 408 OFFCURVE",
"706 458 OFFCURVE",
"706 512 CURVE SMOOTH",
"706 610 OFFCURVE",
"860 638 OFFCURVE",
"944 638 CURVE",
"944 814 LINE",
"864 814 OFFCURVE",
"706 866 OFFCURVE",
"706 958 CURVE SMOOTH",
"706 1014 OFFCURVE",
"716 1062 OFFCURVE",
"716 1114 CURVE SMOOTH",
"716 1460 OFFCURVE",
"580 1656 OFFCURVE",
"344 1656 CURVE SMOOTH",
"280 1656 OFFCURVE",
"238 1648 OFFCURVE",
"202 1636 CURVE",
"226 1466 LINE",
"262 1478 OFFCURVE",
"298 1486 OFFCURVE",
"326 1486 CURVE SMOOTH",
"448 1486 OFFCURVE",
"516 1350 OFFCURVE",
"516 1110 CURVE SMOOTH",
"516 1054 OFFCURVE",
"496 1002 OFFCURVE",
"496 942 CURVE SMOOTH",
"496 818 OFFCURVE",
"566 748 OFFCURVE",
"686 748 CURVE",
"686 712 LINE",
"566 712 OFFCURVE",
"496 646 OFFCURVE",
"496 532 CURVE SMOOTH",
"496 470 OFFCURVE",
"516 414 OFFCURVE",
"516 356 CURVE SMOOTH",
"516 108 OFFCURVE",
"448 -34 OFFCURVE",
"326 -34 CURVE SMOOTH",
"298 -34 OFFCURVE",
"262 -26 OFFCURVE",
"226 -14 CURVE",
"202 -184 LINE",
"238 -196 OFFCURVE",
"280 -204 OFFCURVE",
"344 -204 CURVE SMOOTH"
);
},
{
closed = 1;
nodes = (
"730 678 LINE",
"730 794 LINE",
"678 794 LINE",
"678 678 LINE"
);
}
);
};
layerId = "BBAB2DB2-7554-4FB8-925D-17003E4845F8";
paths = (
{
closed = 1;
nodes = (
"593 -214 OFFCURVE",
"718 -78 OFFCURVE",
"718 156 CURVE SMOOTH",
"718 268 OFFCURVE",
"716 375 OFFCURVE",
"716 492 CURVE SMOOTH",
"716 604 OFFCURVE",
"864 636 OFFCURVE",
"946 636 CURVE",
"946 794 LINE",
"868 794 OFFCURVE",
"716 846 OFFCURVE",
"716 938 CURVE SMOOTH",
"716 1060 OFFCURVE",
"718 1162 OFFCURVE",
"718 1274 CURVE SMOOTH",
"718 1499 OFFCURVE",
"593 1626 OFFCURVE",
"376 1626 CURVE SMOOTH",
"298 1626 OFFCURVE",
"250 1618 OFFCURVE",
"206 1606 CURVE",
"230 1436 LINE",
"277 1442 OFFCURVE",
"321 1446 OFFCURVE",
"358 1446 CURVE SMOOTH",
"453 1446 OFFCURVE",
"504 1383 OFFCURVE",
"504 1274 CURVE SMOOTH",
"504 1158 OFFCURVE",
"498 1058 OFFCURVE",
"498 942 CURVE SMOOTH",
"498 810 OFFCURVE",
"580 735 OFFCURVE",
"720 732 CURVE",
"720 698 LINE",
"580 695 OFFCURVE",
"498 615 OFFCURVE",
"498 488 CURVE SMOOTH",
"498 367 OFFCURVE",
"504 267 OFFCURVE",
"504 156 CURVE SMOOTH",
"504 35 OFFCURVE",
"453 -34 OFFCURVE",
"358 -34 CURVE SMOOTH",
"321 -34 OFFCURVE",
"277 -30 OFFCURVE",
"230 -24 CURVE",
"206 -194 LINE",
"250 -206 OFFCURVE",
"298 -214 OFFCURVE",
"376 -214 CURVE SMOOTH"
);
}
);
width = 1200;
}
);
unicode = 007D;
},
{
glyphname = bracketleft;
lastChange = "2019-09-25 07:37:53 +0000";
layers = (
{
layerId = "BBAB2DB2-7554-4FB8-925D-17003E4845F8";
paths = (
{
closed = 1;
nodes = (
"572 -214 LINE",
"572 1634 LINE",
"372 1634 LINE",
"372 -214 LINE"
);
},
{
closed = 1;
nodes = (
"998 -214 LINE",
"998 -24 LINE",
"552 -24 LINE",
"552 -214 LINE"
);
},
{
closed = 1;
nodes = (
"998 1444 LINE",
"998 1634 LINE",
"552 1634 LINE",
"552 1444 LINE"
);
}
);
width = 1200;
}
);
unicode = 005B;
},
{
glyphname = bracketright;
lastChange = "2019-09-25 07:37:53 +0000";
layers = (
{
layerId = "BBAB2DB2-7554-4FB8-925D-17003E4845F8";
paths = (
{
closed = 1;
nodes = (
"828 -214 LINE",
"828 1634 LINE",
"616 1634 LINE",
"616 -214 LINE"
);
},
{
closed = 1;
nodes = (
"636 -214 LINE",
"636 -24 LINE",
"202 -24 LINE",
"202 -214 LINE"
);
},
{
closed = 1;
nodes = (
"636 1444 LINE",
"636 1634 LINE",
"202 1634 LINE",
"202 1444 LINE"
);
}
);
width = 1200;
}
);
unicode = 005D;
},
{
glyphname = underscore;
lastChange = "2019-08-15 16:18:04 +0000";
layers = (
{
layerId = "BBAB2DB2-7554-4FB8-925D-17003E4845F8";
paths = (
{
closed = 1;
nodes = (
"1100 -176 LINE",
"1100 0 LINE",
"100 0 LINE",
"100 -176 LINE"
);
}
);
width = 1200;
}
);
unicode = 005F;
},
{
glyphname = quoteleft;
lastChange = "2019-09-24 01:47:43 +0000";
layers = (
{
layerId = "BBAB2DB2-7554-4FB8-925D-17003E4845F8";
paths = (
{
closed = 1;
nodes = (
"678 780 LINE",
"478 1420 LINE",
"286 1420 LINE",
"416 780 LINE"
);
}
);
width = 1200;
}
);
unicode = 2018;
},
{
glyphname = quoteright;
lastChange = "2019-09-24 01:47:39 +0000";
layers = (
{
layerId = "BBAB2DB2-7554-4FB8-925D-17003E4845F8";
paths = (
{
closed = 1;
nodes = (
"634 780 LINE",
"834 1420 LINE",
"572 1420 LINE",
"442 780 LINE"
);
}
);
width = 1200;
}
);
unicode = 2019;
},
{
glyphname = guillemetleft;
lastChange = "2019-09-25 07:23:11 +0000";
layers = (
{
layerId = "BBAB2DB2-7554-4FB8-925D-17003E4845F8";
paths = (
{
closed = 1;
nodes = (
"1084 284 LINE",
"784 520 LINE",
"784 538 LINE",
"1084 774 LINE",
"1084 984 LINE",
"596 600 LINE",
"596 458 LINE",
"1084 74 LINE"
);
},
{
closed = 1;
nodes = (
"564 284 LINE",
"264 520 LINE",
"264 538 LINE",
"564 774 LINE",
"564 984 LINE",
"76 600 LINE",
"76 458 LINE",
"564 74 LINE"
);
}
);
width = 1200;
}
);
unicode = 00AB;
},
{
glyphname = guillemetright;
lastChange = "2019-09-27 03:20:48 +0000";
layers = (
{
guideLines = (
{
position = "{697, 519}";
}
);
layerId = "BBAB2DB2-7554-4FB8-925D-17003E4845F8";
paths = (
{
closed = 1;
nodes = (
"604 458 LINE",
"604 600 LINE",
"116 984 LINE",
"116 774 LINE",
"416 538 LINE",
"416 520 LINE",
"116 284 LINE",
"116 74 LINE"
);
},
{
closed = 1;
nodes = (
"1124 458 LINE",
"1124 600 LINE",
"636 984 LINE",
"636 774 LINE",
"936 538 LINE",
"936 520 LINE",
"636 284 LINE",
"636 74 LINE"
);
}
);
width = 1200;
}
);
unicode = 00BB;
},
{
glyphname = guilsinglleft;
lastChange = "2019-09-25 07:22:37 +0000";
layers = (
{
layerId = "BBAB2DB2-7554-4FB8-925D-17003E4845F8";
paths = (
{
closed = 1;
nodes = (
"934 274 LINE",
"464 520 LINE",
"464 538 LINE",
"934 784 LINE",
"934 984 LINE",
"236 600 LINE",
"236 458 LINE",
"934 74 LINE"
);
}
);
width = 1200;
}
);
unicode = 2039;
},
{
glyphname = guilsinglright;
lastChange = "2019-09-25 07:22:48 +0000";
layers = (
{
layerId = "BBAB2DB2-7554-4FB8-925D-17003E4845F8";
paths = (
{
closed = 1;
nodes = (
"964 458 LINE",
"964 600 LINE",
"266 984 LINE",
"266 784 LINE",
"736 538 LINE",
"736 520 LINE",
"266 274 LINE",
"266 74 LINE"
);
}
);
width = 1200;
}
);
unicode = 203A;
},
{
glyphname = quotesingle;
lastChange = "2019-08-15 16:18:04 +0000";
layers = (
{
layerId = "BBAB2DB2-7554-4FB8-925D-17003E4845F8";
paths = (
{
closed = 1;
nodes = (
"694 780 LINE",
"714 1420 LINE",
"482 1420 LINE",
"502 780 LINE"
);
}
);
width = 1200;
}
);
unicode = 0027;
},
{
color = 3;
glyphname = hyphen_hyphen.liga;
lastChange = "2019-09-28 17:11:23 +0000";
layers = (
{
background = {
components = (
{
name = minus;
transform = "{1, 0, 0, 1, -1200, 0}";
}
);
};
layerId = "BBAB2DB2-7554-4FB8-925D-17003E4845F8";
paths = (
{
closed = 1;
nodes = (
"920 616 LINE",
"920 802 LINE",
"120 802 LINE",
"120 616 LINE"
);
},
{
closed = 1;
nodes = (
"-140 616 LINE",
"-140 802 LINE",
"-920 802 LINE",
"-920 616 LINE"
);
}
);
width = 1200;
}
);
},
{
color = 4;
glyphname = hyphen_hyphen_hyphen.liga;
lastChange = "2019-09-28 17:11:23 +0000";
layers = (
{
layerId = "BBAB2DB2-7554-4FB8-925D-17003E4845F8";
paths = (
{
closed = 1;
nodes = (
"920 616 LINE",
"920 802 LINE",
"120 802 LINE",
"120 616 LINE"
);
},
{
closed = 1;
nodes = (
"-1340 616 LINE",
"-1340 802 LINE",
"-2120 802 LINE",
"-2120 616 LINE"
);
},
{
closed = 1;
nodes = (
"-210 616 LINE",
"-210 802 LINE",
"-1010 802 LINE",
"-1010 616 LINE"
);
}
);
width = 1200;
}
);
},
{
color = 4;
glyphname = hyphen_hyphen_greater.liga;
lastChange = "2019-09-28 17:11:23 +0000";
layers = (
{
background = {
components = (
{
name = greater;
transform = "{1, 0, 0, 1, 4810, 15}";
}
);
};
guideLines = (
{
angle = 90;
position = "{-4001, -80}";
}
);
layerId = "BBAB2DB2-7554-4FB8-925D-17003E4845F8";
paths = (
{
closed = 1;
nodes = (
"960 648 LINE",
"960 770 LINE",
"6 1304 LINE",
"6 1064 LINE",
"438 870 OFFCURVE",
"534 850 OFFCURVE",
"588 846 CURVE",
"588 570 LINE",
"538 566 OFFCURVE",
"450 540 OFFCURVE",
"6 352 CURVE",
"6 112 LINE"
);
},
{
closed = 1;
nodes = (
"642 614 LINE",
"642 802 LINE",
"-2120 802 LINE",
"-2120 614 LINE"
);
}
);
width = 1200;
}
);
},
{
color = 3;
glyphname = hyphen_bar.liga;
lastChange = "2019-09-28 17:11:23 +0000";
layers = (
{
components = (
{
name = bar;
transform = "{1, 0, 0, 1, 80, 0}";
}
);
layerId = "BBAB2DB2-7554-4FB8-925D-17003E4845F8";
paths = (
{
closed = 1;
nodes = (
"640 616 LINE",
"640 802 LINE",
"-920 802 LINE",
"-920 616 LINE"
);
}
);
width = 1200;
}
);
},
{
color = 3;
glyphname = hyphen_greater.liga;
lastChange = "2019-09-28 17:11:23 +0000";
layers = (
{
background = {
paths = (
{
closed = 1;
nodes = (
"2600 776 LINE",
"2600 600 LINE",
"4322 600 LINE",
"4322 776 LINE"
);
},
{
closed = 1;
nodes = (
"4640 628 LINE",
"4640 750 LINE",
"3686 1284 LINE",
"3686 1064 LINE",
"4118 850 OFFCURVE",
"4214 820 OFFCURVE",
"4268 816 CURVE",
"4268 560 LINE",
"4218 556 OFFCURVE",
"4130 510 OFFCURVE",
"3686 312 CURVE",
"3686 92 LINE"
);
},
{
closed = 1;
nodes = (
"960 648 LINE",
"960 770 LINE",
"6 1304 LINE",
"6 1064 LINE",
"438 870 OFFCURVE",
"534 850 OFFCURVE",
"588 846 CURVE",
"588 570 LINE",
"538 566 OFFCURVE",
"450 540 OFFCURVE",
"6 352 CURVE",
"6 112 LINE"
);
},
{
closed = 1;
nodes = (
"642 614 LINE",
"642 802 LINE",
"-2120 802 LINE",
"-2120 614 LINE"
);
}
);
};
layerId = "BBAB2DB2-7554-4FB8-925D-17003E4845F8";
paths = (
{
closed = 1;
nodes = (
"960 648 LINE",
"960 770 LINE",
"6 1304 LINE",
"6 1064 LINE",
"438 870 OFFCURVE",
"534 850 OFFCURVE",
"588 846 CURVE",
"588 570 LINE",
"540 566 OFFCURVE",
"450 540 OFFCURVE",
"6 342 CURVE",
"6 112 LINE"
);
},
{
closed = 1;
nodes = (
"642 614 LINE",
"642 802 LINE",
"-920 802 LINE",
"-920 614 LINE"
);
}
);
width = 1200;
}
);
},
{
color = 4;
glyphname = hyphen_greater_greater.liga;
lastChange = "2019-09-28 17:11:23 +0000";
layers = (
{
background = {
paths = (
{
closed = 1;
nodes = (
"6202 628 LINE",
"6202 750 LINE",
"5248 1284 LINE",
"5248 1064 LINE",
"5908 698 LINE",
"5908 680 LINE",
"5248 312 LINE",
"5248 92 LINE"
);
},
{
closed = 1;
nodes = (
"2600 792 LINE",
"2600 624 LINE",
"5522 624 LINE",
"5522 792 LINE"
);
},
{
closed = 1;
nodes = (
"5840 648 LINE",
"5840 770 LINE",
"4886 1304 LINE",
"4886 1084 LINE",
"5318 870 OFFCURVE",
"5414 840 OFFCURVE",
"5468 836 CURVE",
"5468 580 LINE",
"5418 576 OFFCURVE",
"5330 530 OFFCURVE",
"4886 332 CURVE",
"4886 112 LINE"
);
},
{
closed = 1;
nodes = (
"80 648 LINE",
"80 770 LINE",
"-874 1304 LINE",
"-874 1064 LINE",
"-442 870 OFFCURVE",
"-346 850 OFFCURVE",
"-292 846 CURVE",
"-292 570 LINE",
"-342 566 OFFCURVE",
"-430 540 OFFCURVE",
"-874 352 CURVE",
"-874 112 LINE"
);
},
{
closed = 1;
nodes = (
"-238 614 LINE",
"-238 802 LINE",
"-3000 802 LINE",
"-3000 614 LINE"
);
}
);
};
layerId = "BBAB2DB2-7554-4FB8-925D-17003E4845F8";
paths = (
{
closed = 1;
nodes = (
"960 648 LINE",
"960 770 LINE",
"6 1304 LINE",
"6 1064 LINE",
"656 718 LINE",
"656 700 LINE",
"6 352 LINE",
"6 112 LINE"
);
},
{
closed = 1;
nodes = (
"-240 614 LINE",
"-240 802 LINE",
"-2120 802 LINE",
"-2120 614 LINE"
);
},
{
closed = 1;
nodes = (
"78 648 LINE",
"78 770 LINE",
"-876 1304 LINE",
"-876 1064 LINE",
"-444 868 OFFCURVE",
"-348 850 OFFCURVE",
"-294 846 CURVE",
"-294 570 LINE",
"-344 566 OFFCURVE",
"-432 533 OFFCURVE",
"-876 352 CURVE",
"-876 112 LINE"
);
}
);
width = 1200;
}
);
},
{
color = 3;
glyphname = hyphen_less.liga;
lastChange = "2019-09-28 17:11:23 +0000";
layers = (
{
background = {
paths = (
{
closed = 1;
nodes = (
"2600 792 LINE",
"2600 624 LINE",
"5522 624 LINE",
"5522 792 LINE"
);
},
{
closed = 1;
nodes = (
"5840 648 LINE",
"5840 770 LINE",
"4886 1304 LINE",
"4886 1084 LINE",
"5318 870 OFFCURVE",
"5414 840 OFFCURVE",
"5468 836 CURVE",
"5468 580 LINE",
"5418 576 OFFCURVE",
"5330 530 OFFCURVE",
"4886 332 CURVE",
"4886 112 LINE"
);
}
);
};
layerId = "BBAB2DB2-7554-4FB8-925D-17003E4845F8";
paths = (
{
closed = 1;
nodes = (
"920 352 LINE",
"270 700 LINE",
"270 718 LINE",
"920 1064 LINE",
"920 1304 LINE",
"-34 770 LINE",
"-34 648 LINE",
"920 112 LINE"
);
},
{
closed = 1;
nodes = (
"32 624 LINE",
"32 792 LINE",
"-920 792 LINE",
"-920 624 LINE"
);
}
);
width = 1200;
}
);
},
{
color = 4;
glyphname = hyphen_less_less.liga;
lastChange = "2019-09-28 17:11:23 +0000";
layers = (
{
background = {
paths = (
{
closed = 1;
nodes = (
"2600 792 LINE",
"2600 624 LINE",
"5522 624 LINE",
"5522 792 LINE"
);
},
{
closed = 1;
nodes = (
"5840 648 LINE",
"5840 770 LINE",
"4886 1304 LINE",
"4886 1084 LINE",
"5318 870 OFFCURVE",
"5414 840 OFFCURVE",
"5468 836 CURVE",
"5468 580 LINE",
"5418 576 OFFCURVE",
"5330 530 OFFCURVE",
"4886 332 CURVE",
"4886 112 LINE"
);
}
);
};
layerId = "BBAB2DB2-7554-4FB8-925D-17003E4845F8";
paths = (
{
closed = 1;
nodes = (
"920 352 LINE",
"270 700 LINE",
"270 718 LINE",
"920 1064 LINE",
"920 1304 LINE",
"-34 770 LINE",
"-34 648 LINE",
"920 112 LINE"
);
},
{
closed = 1;
nodes = (
"-788 614 LINE",
"-788 802 LINE",
"-2120 802 LINE",
"-2120 614 LINE"
);
},
{
closed = 1;
nodes = (
"100 352 LINE",
"-550 700 LINE",
"-550 718 LINE",
"100 1064 LINE",
"100 1304 LINE",
"-854 770 LINE",
"-854 648 LINE",
"100 112 LINE"
);
}
);
width = 1200;
}
);
},
{
color = 3;
glyphname = hyphen_asciitilde.liga;
lastChange = "2019-09-28 17:11:23 +0000";
layers = (
{
background = {
components = (
{
name = hyphen;
transform = "{1, 0, 0, 1, 2400, 0}";
}
);
};
layerId = "BBAB2DB2-7554-4FB8-925D-17003E4845F8";
paths = (
{
closed = 1;
nodes = (
"898 548 OFFCURVE",
"1000 680 OFFCURVE",
"1000 908 CURVE SMOOTH",
"1000 978 LINE",
"798 978 LINE",
"798 928 LINE SMOOTH",
"798 812 OFFCURVE",
"762 744 OFFCURVE",
"698 744 CURVE SMOOTH",
"546 744 OFFCURVE",
"392 964 OFFCURVE",
"240 964 CURVE SMOOTH",
"48 964 OFFCURVE",
"-62 860 OFFCURVE",
"-62 676 CURVE SMOOTH",
"-62 626 LINE",
"142 626 LINE",
"142 656 LINE SMOOTH",
"142 714 OFFCURVE",
"180 748 OFFCURVE",
"244 748 CURVE SMOOTH",
"402 748 OFFCURVE",
"562 548 OFFCURVE",
"720 548 CURVE SMOOTH"
);
},
{
closed = 1;
nodes = (
"140 626 LINE",
"140 812 LINE",
"-920 812 LINE",
"-920 626 LINE"
);
}
);
width = 1200;
}
);
},
{
color = 3;
glyphname = braceleft_bar.liga;
lastChange = "2019-09-28 17:11:23 +0000";
layers = (
{
background = {
components = (
{
name = bar;
}
);
paths = (
{
closed = 1;
nodes = (
"-42 -214 OFFCURVE",
"34 -206 OFFCURVE",
"100 -194 CURVE",
"76 -24 LINE",
"-4 -36 OFFCURVE",
"-80 -44 OFFCURVE",
"-142 -44 CURVE SMOOTH",
"-386 -44 OFFCURVE",
"-518 54 OFFCURVE",
"-518 226 CURVE SMOOTH",
"-518 324 OFFCURVE",
"-512 412 OFFCURVE",
"-512 518 CURVE SMOOTH",
"-512 636 OFFCURVE",
"-582 708 OFFCURVE",
"-702 708 CURVE",
"-702 742 LINE",
"-582 742 OFFCURVE",
"-512 810 OFFCURVE",
"-512 932 CURVE SMOOTH",
"-512 1034 OFFCURVE",
"-518 1122 OFFCURVE",
"-518 1224 CURVE SMOOTH",
"-518 1384 OFFCURVE",
"-386 1476 OFFCURVE",
"-142 1476 CURVE SMOOTH",
"-80 1476 OFFCURVE",
"-4 1468 OFFCURVE",
"76 1456 CURVE",
"100 1626 LINE",
"34 1638 OFFCURVE",
"-42 1646 OFFCURVE",
"-160 1646 CURVE SMOOTH",
"-522 1646 OFFCURVE",
"-732 1494 OFFCURVE",
"-732 1224 CURVE SMOOTH",
"-732 1132 OFFCURVE",
"-730 1048 OFFCURVE",
"-730 948 CURVE SMOOTH",
"-730 856 OFFCURVE",
"-882 804 OFFCURVE",
"-960 804 CURVE",
"-960 646 LINE",
"-878 646 OFFCURVE",
"-730 614 OFFCURVE",
"-730 502 CURVE SMOOTH",
"-730 406 OFFCURVE",
"-732 318 OFFCURVE",
"-732 226 CURVE SMOOTH",
"-732 -52 OFFCURVE",
"-522 -214 OFFCURVE",
"-160 -214 CURVE SMOOTH"
);
},
{
closed = 1;
nodes = (
"-694 668 LINE",
"-694 784 LINE",
"-746 784 LINE",
"-746 668 LINE"
);
},
{
closed = 1;
nodes = (
"-746 784 LINE",
"-694 784 LINE",
"-694 668 LINE",
"-746 668 LINE"
);
}
);
};
components = (
{
name = bar;
}
);
layerId = "BBAB2DB2-7554-4FB8-925D-17003E4845F8";
paths = (
{
closed = 1;
nodes = (
"-166 -214 OFFCURVE",
"-90 -206 OFFCURVE",
"-20 -194 CURVE",
"-44 -24 LINE",
"-128 -30 OFFCURVE",
"-206 -34 OFFCURVE",
"-272 -34 CURVE SMOOTH",
"-432 -34 OFFCURVE",
"-518 57 OFFCURVE",
"-518 216 CURVE SMOOTH",
"-518 307 OFFCURVE",
"-512 389 OFFCURVE",
"-512 488 CURVE SMOOTH",
"-512 615 OFFCURVE",
"-594 695 OFFCURVE",
"-734 698 CURVE",
"-734 732 LINE",
"-594 735 OFFCURVE",
"-512 810 OFFCURVE",
"-512 942 CURVE SMOOTH",
"-512 1037 OFFCURVE",
"-518 1119 OFFCURVE",
"-518 1214 CURVE SMOOTH",
"-518 1361 OFFCURVE",
"-432 1446 OFFCURVE",
"-272 1446 CURVE SMOOTH",
"-206 1446 OFFCURVE",
"-128 1442 OFFCURVE",
"-44 1436 CURVE",
"-20 1606 LINE",
"-64 1618 OFFCURVE",
"-166 1626 OFFCURVE",
"-290 1626 CURVE SMOOTH",
"-570 1626 OFFCURVE",
"-732 1477 OFFCURVE",
"-732 1214 CURVE SMOOTH",
"-732 1122 OFFCURVE",
"-730 1038 OFFCURVE",
"-730 938 CURVE SMOOTH",
"-730 846 OFFCURVE",
"-882 794 OFFCURVE",
"-960 794 CURVE",
"-960 636 LINE",
"-878 636 OFFCURVE",
"-730 604 OFFCURVE",
"-730 492 CURVE SMOOTH",
"-730 396 OFFCURVE",
"-732 308 OFFCURVE",
"-732 216 CURVE SMOOTH",
"-732 -56 OFFCURVE",
"-570 -214 OFFCURVE",
"-290 -214 CURVE SMOOTH"
);
}
);
width = 1200;
}
);
},
{
color = 3;
glyphname = braceright_numbersign.liga;
lastChange = "2019-09-28 17:11:23 +0000";
layers = (
{
background = {
paths = (
{
closed = 1;
nodes = (
"4346 0 LINE",
"4466 1420 LINE",
"4290 1420 LINE",
"4170 0 LINE"
);
},
{
closed = 1;
nodes = (
"3182 530 LINE",
"3180 360 LINE",
"4600 360 LINE",
"4600 530 LINE"
);
},
{
closed = 1;
nodes = (
"3910 0 LINE",
"4030 1420 LINE",
"3854 1420 LINE",
"3734 0 LINE"
);
},
{
closed = 1;
nodes = (
"3182 1060 LINE",
"3180 890 LINE",
"4600 890 LINE",
"4600 1060 LINE"
);
},
{
closed = 1;
nodes = (
"-571 -214 OFFCURVE",
"-446 -78 OFFCURVE",
"-446 156 CURVE SMOOTH",
"-446 278 OFFCURVE",
"-448 395 OFFCURVE",
"-448 522 CURVE SMOOTH",
"-448 634 OFFCURVE",
"-300 666 OFFCURVE",
"-218 666 CURVE",
"-218 764 LINE",
"-296 764 OFFCURVE",
"-448 816 OFFCURVE",
"-448 908 CURVE SMOOTH",
"-448 1041 OFFCURVE",
"-446 1152 OFFCURVE",
"-446 1274 CURVE SMOOTH",
"-446 1499 OFFCURVE",
"-571 1626 OFFCURVE",
"-788 1626 CURVE SMOOTH",
"-866 1626 OFFCURVE",
"-914 1618 OFFCURVE",
"-958 1606 CURVE",
"-934 1436 LINE",
"-887 1442 OFFCURVE",
"-843 1446 OFFCURVE",
"-806 1446 CURVE SMOOTH",
"-711 1446 OFFCURVE",
"-660 1383 OFFCURVE",
"-660 1274 CURVE SMOOTH",
"-660 1158 OFFCURVE",
"-666 1058 OFFCURVE",
"-666 942 CURVE SMOOTH",
"-666 810 OFFCURVE",
"-584 735 OFFCURVE",
"-444 732 CURVE",
"-444 698 LINE",
"-584 695 OFFCURVE",
"-666 615 OFFCURVE",
"-666 488 CURVE SMOOTH",
"-666 367 OFFCURVE",
"-660 267 OFFCURVE",
"-660 156 CURVE SMOOTH",
"-660 35 OFFCURVE",
"-711 -34 OFFCURVE",
"-806 -34 CURVE SMOOTH",
"-843 -34 OFFCURVE",
"-887 -30 OFFCURVE",
"-934 -24 CURVE",
"-958 -194 LINE",
"-914 -206 OFFCURVE",
"-866 -214 OFFCURVE",
"-788 -214 CURVE SMOOTH"
);
}
);
};
layerId = "BBAB2DB2-7554-4FB8-925D-17003E4845F8";
paths = (
{
closed = 1;
nodes = (
"920 360 LINE",
"920 530 LINE",
"-498 530 LINE",
"-500 360 LINE"
);
},
{
closed = 1;
nodes = (
"230 0 LINE",
"350 1420 LINE",
"174 1420 LINE",
"54 0 LINE"
);
},
{
closed = 1;
nodes = (
"920 890 LINE",
"920 1060 LINE",
"-498 1060 LINE",
"-500 890 LINE"
);
},
{
closed = 1;
nodes = (
"666 0 LINE",
"786 1420 LINE",
"610 1420 LINE",
"490 0 LINE"
);
},
{
closed = 1;
nodes = (
"-571 -214 OFFCURVE",
"-446 -78 OFFCURVE",
"-446 156 CURVE SMOOTH",
"-446 278 OFFCURVE",
"-448 395 OFFCURVE",
"-448 522 CURVE SMOOTH",
"-448 634 OFFCURVE",
"-300 666 OFFCURVE",
"-218 666 CURVE",
"-218 764 LINE",
"-296 764 OFFCURVE",
"-448 816 OFFCURVE",
"-448 908 CURVE SMOOTH",
"-448 1041 OFFCURVE",
"-446 1152 OFFCURVE",
"-446 1274 CURVE SMOOTH",
"-446 1499 OFFCURVE",
"-571 1626 OFFCURVE",
"-788 1626 CURVE SMOOTH",
"-866 1626 OFFCURVE",
"-914 1618 OFFCURVE",
"-958 1606 CURVE",
"-934 1436 LINE",
"-887 1442 OFFCURVE",
"-843 1446 OFFCURVE",
"-806 1446 CURVE SMOOTH",
"-711 1446 OFFCURVE",
"-660 1383 OFFCURVE",
"-660 1274 CURVE SMOOTH",
"-660 1158 OFFCURVE",
"-666 1058 OFFCURVE",
"-666 942 CURVE SMOOTH",
"-666 810 OFFCURVE",
"-584 735 OFFCURVE",
"-444 732 CURVE",
"-444 698 LINE",
"-584 695 OFFCURVE",
"-666 615 OFFCURVE",
"-666 488 CURVE SMOOTH",
"-666 367 OFFCURVE",
"-660 267 OFFCURVE",
"-660 156 CURVE SMOOTH",
"-660 35 OFFCURVE",
"-711 -34 OFFCURVE",
"-806 -34 CURVE SMOOTH",
"-843 -34 OFFCURVE",
"-887 -30 OFFCURVE",
"-934 -24 CURVE",
"-958 -194 LINE",
"-914 -206 OFFCURVE",
"-866 -214 OFFCURVE",
"-788 -214 CURVE SMOOTH"
);
}
);
width = 1200;
}
);
},
{
color = 3;
glyphname = bracketleft_bar.liga;
lastChange = "2019-09-28 17:11:23 +0000";
layers = (
{
background = {
components = (
{
name = bracketleft;
transform = "{1, 0, 0, 1, 2566, 0}";
}
);
};
components = (
{
name = bar;
transform = "{1, 0, 0, 1, -46, 0}";
}
);
layerId = "BBAB2DB2-7554-4FB8-925D-17003E4845F8";
paths = (
{
closed = 1;
nodes = (
"-458 -200 LINE",
"-458 1620 LINE",
"-660 1620 LINE",
"-660 -200 LINE"
);
},
{
closed = 1;
nodes = (
"188 -200 LINE",
"188 -24 LINE",
"-478 -24 LINE",
"-478 -200 LINE"
);
},
{
closed = 1;
nodes = (
"188 1444 LINE",
"188 1620 LINE",
"-478 1620 LINE",
"-478 1444 LINE"
);
}
);
width = 1200;
}
);
},
{
color = 3;
glyphname = bracketright_numbersign.liga;
lastChange = "2019-09-28 17:11:23 +0000";
layers = (
{
background = {
components = (
{
name = braceleft;
transform = "{-1, 0, 0, 1, 3117, -10}";
}
);
paths = (
{
closed = 1;
nodes = (
"4602 0 LINE",
"4722 1420 LINE",
"4540 1420 LINE",
"4420 0 LINE"
);
},
{
closed = 1;
nodes = (
"3156 300 LINE",
"4816 300 LINE",
"4814 476 LINE",
"3156 476 LINE"
);
},
{
closed = 1;
nodes = (
"4172 0 LINE",
"4292 1420 LINE",
"4110 1420 LINE",
"3990 0 LINE"
);
},
{
closed = 1;
nodes = (
"3156 904 LINE",
"4816 904 LINE",
"4814 1080 LINE",
"3156 1080 LINE"
);
}
);
};
components = (
{
name = bracketleft;
transform = "{-1, 0, 0, 1, 37, 0}";
}
);
layerId = "BBAB2DB2-7554-4FB8-925D-17003E4845F8";
paths = (
{
closed = 1;
nodes = (
"666 0 LINE",
"786 1420 LINE",
"610 1420 LINE",
"490 0 LINE"
);
},
{
closed = 1;
nodes = (
"920 360 LINE",
"920 530 LINE",
"-420 530 LINE",
"-420 360 LINE"
);
},
{
closed = 1;
nodes = (
"230 0 LINE",
"350 1420 LINE",
"174 1420 LINE",
"54 0 LINE"
);
},
{
closed = 1;
nodes = (
"920 890 LINE",
"920 1060 LINE",
"-420 1060 LINE",
"-420 890 LINE"
);
}
);
width = 1200;
}
);
},
{
color = 3;
glyphname = period_hyphen.liga;
lastChange = "2019-09-28 17:11:23 +0000";
layers = (
{
components = (
{
name = period;
transform = "{1, 0, 0, 1, -1260, 580}";
}
);
layerId = "BBAB2DB2-7554-4FB8-925D-17003E4845F8";
paths = (
{
closed = 1;
nodes = (
"920 614 LINE",
"920 800 LINE",
"-180 800 LINE",
"-180 614 LINE"
);
}
);
width = 1200;
}
);
},
{
color = 4;
glyphname = period_period_equal.liga;
lastChange = "2019-09-28 17:11:23 +0000";
layers = (
{
components = (
{
name = period;
transform = "{1, 0, 0, 1, -2520, 580}";
},
{
name = period;
transform = "{1, 0, 0, 1, -1750, 580}";
}
);
layerId = "BBAB2DB2-7554-4FB8-925D-17003E4845F8";
paths = (
{
closed = 1;
nodes = (
"920 866 LINE",
"920 1052 LINE",
"-500 1052 LINE",
"-500 866 LINE"
);
},
{
closed = 1;
nodes = (
"920 366 LINE",
"920 552 LINE",
"-500 552 LINE",
"-500 366 LINE"
);
}
);
width = 1200;
}
);
},
{
color = 4;
glyphname = period_period_less.liga;
lastChange = "2019-09-28 17:11:23 +0000";
layers = (
{
components = (
{
name = period;
transform = "{1, 0, 0, 1, -2460, 562}";
},
{
name = period;
transform = "{1, 0, 0, 1, -1462, 562}";
}
);
layerId = "BBAB2DB2-7554-4FB8-925D-17003E4845F8";
paths = (
{
closed = 1;
nodes = (
"920 434 LINE",
"60 700 LINE",
"60 718 LINE",
"920 984 LINE",
"920 1204 LINE",
"-218 810 LINE",
"-218 608 LINE",
"920 214 LINE"
);
}
);
width = 1200;
}
);
},
{
color = 3;
glyphname = period_equal.liga;
lastChange = "2019-09-28 17:11:23 +0000";
layers = (
{
components = (
{
name = period;
transform = "{1, 0, 0, 1, -1260, 580}";
}
);
layerId = "BBAB2DB2-7554-4FB8-925D-17003E4845F8";
paths = (
{
closed = 1;
nodes = (
"920 866 LINE",
"920 1052 LINE",
"-100 1052 LINE",
"-100 866 LINE"
);
},
{
closed = 1;
nodes = (
"920 366 LINE",
"920 552 LINE",
"-100 552 LINE",
"-100 366 LINE"
);
}
);
width = 1200;
}
);
},
{
color = 4;
glyphname = colon_colon_equal.liga;
lastChange = "2019-09-28 17:11:23 +0000";
layers = (
{
background = {
components = (
{
name = equal;
transform = "{1, 0, 0, 1, 3600, 0}";
}
);
};
components = (
{
name = colon;
transform = "{1, 0, 0, 1, -2520, 180}";
},
{
name = colon;
transform = "{1, 0, 0, 1, -1750, 180}";
}
);
layerId = "BBAB2DB2-7554-4FB8-925D-17003E4845F8";
paths = (
{
closed = 1;
nodes = (
"920 866 LINE",
"920 1052 LINE",
"-500 1052 LINE",
"-500 866 LINE"
);
},
{
closed = 1;
nodes = (
"920 366 LINE",
"920 552 LINE",
"-500 552 LINE",
"-500 366 LINE"
);
}
);
width = 1200;
}
);
},
{
color = 3;
glyphname = colon_equal.liga;
lastChange = "2019-09-28 17:11:23 +0000";
layers = (
{
background = {
components = (
{
name = equal;
transform = "{1, 0, 0, 1, 2400, 0}";
}
);
};
components = (
{
name = colon;
transform = "{1, 0, 0, 1, -1260, 180}";
}
);
layerId = "BBAB2DB2-7554-4FB8-925D-17003E4845F8";
paths = (
{
closed = 1;
nodes = (
"920 826 LINE",
"920 1012 LINE",
"-200 1012 LINE",
"-200 826 LINE"
);
},
{
closed = 1;
nodes = (
"920 326 LINE",
"920 512 LINE",
"-200 512 LINE",
"-200 326 LINE"
);
}
);
width = 1200;
}
);
},
{
color = 3;
glyphname = colon_greater.liga;
lastChange = "2019-09-28 17:11:23 +0000";
layers = (
{
components = (
{
name = colon;
transform = "{1, 0, 0, 1, -1260, 180}";
}
);
layerId = "BBAB2DB2-7554-4FB8-925D-17003E4845F8";
paths = (
{
closed = 1;
nodes = (
"962 608 LINE",
"962 810 LINE",
"-156 1204 LINE",
"-156 984 LINE",
"664 718 LINE",
"664 700 LINE",
"-156 434 LINE",
"-156 214 LINE"
);
}
);
width = 1200;
}
);
},
{
color = 3;
glyphname = colon_less.liga;
lastChange = "2019-09-28 17:11:23 +0000";
layers = (
{
background = {
components = (
{
name = colon;
transform = "{1, 0, 0, 1, 1780, -1}";
},
{
name = greater;
transform = "{1, 0, 0, 1, 2300, -76}";
}
);
};
components = (
{
name = colon;
transform = "{1, 0, 0, 1, -1252, 180}";
}
);
layerId = "BBAB2DB2-7554-4FB8-925D-17003E4845F8";
paths = (
{
closed = 1;
nodes = (
"920 434 LINE",
"100 700 LINE",
"100 718 LINE",
"920 984 LINE",
"920 1204 LINE",
"-198 810 LINE",
"-198 608 LINE",
"920 214 LINE"
);
}
);
width = 1200;
}
);
},
{
color = 3;
glyphname = exclam_equal.liga;
lastChange = "2019-09-28 17:11:23 +0000";
layers = (
{
layerId = "BBAB2DB2-7554-4FB8-925D-17003E4845F8";
paths = (
{
closed = 1;
nodes = (
"-314 -100 LINE",
"500 1520 LINE",
"298 1520 LINE",
"-516 -100 LINE"
);
},
{
closed = 1;
nodes = (
"1020 366 LINE",
"1020 552 LINE",
"-1020 552 LINE",
"-1020 366 LINE"
);
},
{
closed = 1;
nodes = (
"1020 866 LINE",
"1020 1052 LINE",
"-1020 1052 LINE",
"-1020 866 LINE"
);
}
);
width = 1200;
}
);
},
{
color = 4;
glyphname = exclam_equal_equal.liga;
lastChange = "2019-09-28 17:11:23 +0000";
layers = (
{
background = {
paths = (
{
closed = 1;
nodes = (
"2720 1196 LINE",
"2718 1020 LINE",
"5638 1020 LINE",
"5638 1196 LINE"
);
},
{
closed = 1;
nodes = (
"2720 786 LINE",
"2718 610 LINE",
"5638 610 LINE",
"5638 786 LINE"
);
},
{
closed = 1;
nodes = (
"2720 376 LINE",
"2718 200 LINE",
"5638 200 LINE",
"5638 376 LINE"
);
},
{
closed = 1;
nodes = (
"3974 -24 LINE",
"4654 1420 LINE",
"4452 1420 LINE",
"3772 -24 LINE"
);
}
);
};
layerId = "BBAB2DB2-7554-4FB8-925D-17003E4845F8";
paths = (
{
closed = 1;
nodes = (
"-874 -100 LINE",
"-60 1520 LINE",
"-262 1520 LINE",
"-1076 -100 LINE"
);
},
{
closed = 1;
nodes = (
"1020 206 LINE",
"1020 392 LINE",
"-2220 392 LINE",
"-2220 206 LINE"
);
},
{
closed = 1;
nodes = (
"1020 616 LINE",
"1020 802 LINE",
"-2220 802 LINE",
"-2220 616 LINE"
);
},
{
closed = 1;
nodes = (
"1020 1026 LINE",
"1020 1212 LINE",
"-2220 1212 LINE",
"-2220 1026 LINE"
);
}
);
width = 1200;
}
);
},
{
color = 3;
glyphname = question_equal.liga;
lastChange = "2019-09-28 17:11:23 +0000";
layers = (
{
components = (
{
name = question;
transform = "{1, 0, 0, 1, -1158, 0}";
}
);
layerId = "BBAB2DB2-7554-4FB8-925D-17003E4845F8";
paths = (
{
closed = 1;
nodes = (
"920 406 LINE",
"920 592 LINE",
"-98 592 LINE",
"-98 406 LINE"
);
},
{
closed = 1;
nodes = (
"920 886 LINE",
"920 1072 LINE",
"20 1072 LINE",
"10 1014 OFFCURVE",
"-14 940 OFFCURVE",
"-44 886 CURVE"
);
}
);
width = 1200;
}
);
},
{
color = 3;
glyphname = numbersign_parenleft.liga;
lastChange = "2019-09-28 17:11:23 +0000";
layers = (
{
background = {
paths = (
{
closed = 1;
nodes = (
"3346 0 LINE",
"3466 1420 LINE",
"3290 1420 LINE",
"3170 0 LINE"
);
},
{
closed = 1;
nodes = (
"2602 530 LINE",
"2600 360 LINE",
"4000 360 LINE",
"4000 530 LINE"
);
},
{
closed = 1;
nodes = (
"2910 0 LINE",
"3030 1420 LINE",
"2854 1420 LINE",
"2734 0 LINE"
);
},
{
closed = 1;
nodes = (
"2602 1060 LINE",
"2600 890 LINE",
"4000 890 LINE",
"4000 1060 LINE"
);
}
);
};
components = (
{
name = parenleft;
transform = "{1, 0, 0, 1, -20, 0}";
}
);
layerId = "BBAB2DB2-7554-4FB8-925D-17003E4845F8";
paths = (
{
closed = 1;
nodes = (
"-174 0 LINE",
"-54 1420 LINE",
"-230 1420 LINE",
"-350 0 LINE"
);
},
{
closed = 1;
nodes = (
"-610 0 LINE",
"-490 1420 LINE",
"-666 1420 LINE",
"-786 0 LINE"
);
},
{
closed = 1;
nodes = (
"420 360 LINE",
"420 530 LINE",
"-920 530 LINE",
"-920 360 LINE"
);
},
{
closed = 1;
nodes = (
"420 890 LINE",
"420 1060 LINE",
"-920 1060 LINE",
"-920 890 LINE"
);
}
);
width = 1200;
}
);
},
{
color = 3;
glyphname = numbersign_braceleft.liga;
lastChange = "2019-09-28 17:11:23 +0000";
layers = (
{
layerId = "BBAB2DB2-7554-4FB8-925D-17003E4845F8";
paths = (
{
closed = 1;
nodes = (
"-630 0 LINE",
"-510 1420 LINE",
"-686 1420 LINE",
"-806 0 LINE"
);
},
{
closed = 1;
nodes = (
"520 360 LINE",
"520 530 LINE",
"-940 530 LINE",
"-940 360 LINE"
);
},
{
closed = 1;
nodes = (
"-194 0 LINE",
"-74 1420 LINE",
"-250 1420 LINE",
"-370 0 LINE"
);
},
{
closed = 1;
nodes = (
"520 890 LINE",
"520 1060 LINE",
"-940 1060 LINE",
"-940 890 LINE"
);
},
{
closed = 1;
nodes = (
"904 -214 OFFCURVE",
"952 -206 OFFCURVE",
"996 -194 CURVE",
"972 -24 LINE",
"925 -30 OFFCURVE",
"881 -34 OFFCURVE",
"844 -34 CURVE SMOOTH",
"749 -34 OFFCURVE",
"698 35 OFFCURVE",
"698 156 CURVE SMOOTH",
"698 267 OFFCURVE",
"704 367 OFFCURVE",
"704 488 CURVE SMOOTH",
"704 615 OFFCURVE",
"622 695 OFFCURVE",
"482 698 CURVE",
"482 732 LINE",
"622 735 OFFCURVE",
"704 810 OFFCURVE",
"704 942 CURVE SMOOTH",
"704 1058 OFFCURVE",
"698 1158 OFFCURVE",
"698 1274 CURVE SMOOTH",
"698 1383 OFFCURVE",
"749 1446 OFFCURVE",
"844 1446 CURVE SMOOTH",
"881 1446 OFFCURVE",
"925 1442 OFFCURVE",
"972 1436 CURVE",
"996 1606 LINE",
"952 1618 OFFCURVE",
"904 1626 OFFCURVE",
"826 1626 CURVE SMOOTH",
"609 1626 OFFCURVE",
"484 1499 OFFCURVE",
"484 1274 CURVE SMOOTH",
"484 1152 OFFCURVE",
"486 1041 OFFCURVE",
"486 908 CURVE SMOOTH",
"486 816 OFFCURVE",
"334 764 OFFCURVE",
"256 764 CURVE",
"256 666 LINE",
"338 666 OFFCURVE",
"486 634 OFFCURVE",
"486 522 CURVE SMOOTH",
"486 395 OFFCURVE",
"484 278 OFFCURVE",
"484 156 CURVE SMOOTH",
"484 -78 OFFCURVE",
"609 -214 OFFCURVE",
"826 -214 CURVE SMOOTH"
);
}
);
width = 1200;
}
);
},
{
color = 3;
glyphname = numbersign_bracketleft.liga;
lastChange = "2019-09-28 17:11:23 +0000";
layers = (
{
components = (
{
name = bracketleft;
transform = "{1, 0, 0, 1, -36, 0}";
}
);
layerId = "BBAB2DB2-7554-4FB8-925D-17003E4845F8";
paths = (
{
closed = 1;
nodes = (
"-174 0 LINE",
"-54 1420 LINE",
"-230 1420 LINE",
"-350 0 LINE"
);
},
{
closed = 1;
nodes = (
"-610 0 LINE",
"-490 1420 LINE",
"-666 1420 LINE",
"-786 0 LINE"
);
},
{
closed = 1;
nodes = (
"440 360 LINE",
"440 530 LINE",
"-920 530 LINE",
"-920 360 LINE"
);
},
{
closed = 1;
nodes = (
"440 890 LINE",
"440 1060 LINE",
"-920 1060 LINE",
"-920 890 LINE"
);
}
);
width = 1200;
}
);
},
{
color = 3;
glyphname = numbersign_question.liga;
lastChange = "2019-09-28 17:11:23 +0000";
layers = (
{
background = {
components = (
{
name = numbersign;
transform = "{1, 0, 0, 1, 2400, 0}";
},
{
name = question;
transform = "{1, 0, 0, 1, 2400, 0}";
}
);
};
components = (
{
name = period;
transform = "{1, 0, 0, 1, -82, 0}";
}
);
layerId = "BBAB2DB2-7554-4FB8-925D-17003E4845F8";
paths = (
{
closed = 1;
nodes = (
"612 456 LINE",
"612 538 LINE SMOOTH",
"612 616 OFFCURVE",
"654 682 OFFCURVE",
"740 738 CURVE SMOOTH",
"888 834 OFFCURVE",
"962 960 OFFCURVE",
"962 1112 CURVE SMOOTH",
"962 1320 OFFCURVE",
"808 1440 OFFCURVE",
"542 1440 CURVE SMOOTH",
"258 1440 OFFCURVE",
"94 1288 OFFCURVE",
"94 1022 CURVE",
"296 1022 LINE",
"296 1168 OFFCURVE",
"386 1250 OFFCURVE",
"540 1250 CURVE SMOOTH",
"668 1250 OFFCURVE",
"742 1196 OFFCURVE",
"742 1102 CURVE SMOOTH",
"742 1006 OFFCURVE",
"688 924 OFFCURVE",
"580 854 CURVE SMOOTH",
"470 784 OFFCURVE",
"416 684 OFFCURVE",
"416 552 CURVE SMOOTH",
"416 456 LINE"
);
},
{
closed = 1;
nodes = (
"80 360 LINE",
"80 530 LINE",
"-920 530 LINE",
"-920 360 LINE"
);
},
{
closed = 1;
nodes = (
"-610 0 LINE",
"-490 1420 LINE",
"-666 1420 LINE",
"-786 0 LINE"
);
},
{
closed = 1;
nodes = (
"-174 0 LINE",
"-54 1420 LINE",
"-230 1420 LINE",
"-350 0 LINE"
);
},
{
closed = 1;
nodes = (
"296 890 LINE",
"296 1060 LINE",
"-920 1060 LINE",
"-920 890 LINE"
);
}
);
width = 1200;
}
);
},
{
color = 4;
glyphname = numbersign_numbersign_numbersign.liga;
lastChange = "2019-09-28 17:11:23 +0000";
layers = (
{
background = {
components = (
{
name = numbersign;
transform = "{1, 0, 0, 1, 3000, 0}";
},
{
name = numbersign;
transform = "{1, 0, 0, 1, 3000, 0}";
},
{
name = numbersign;
transform = "{1, 0, 0, 1, 3000, 0}";
}
);
};
components = (
{
name = numbersign;
transform = "{1, 0, 0, 1, -2240, 0}";
},
{
name = numbersign;
transform = "{1, 0, 0, 1, -1220, 0}";
},
{
name = numbersign;
transform = "{1, 0, 0, 1, -200, 0}";
}
);
layerId = "BBAB2DB2-7554-4FB8-925D-17003E4845F8";
paths = (
{
closed = 1;
nodes = (
"88 890 LINE",
"88 1060 LINE",
"-1242 1060 LINE",
"-1242 890 LINE"
);
},
{
closed = 1;
nodes = (
"88 360 LINE",
"88 530 LINE",
"-1242 530 LINE",
"-1242 360 LINE"
);
}
);
width = 1200;
}
);
},
{
color = 9;
glyphname = numbersign_numbersign_numbersign_numbersign.liga;
lastChange = "2019-09-28 17:11:23 +0000";
layers = (
{
components = (
{
name = numbersign;
transform = "{1, 0, 0, 1, -3440, 0}";
},
{
name = numbersign;
transform = "{1, 0, 0, 1, -2360, 0}";
},
{
name = numbersign;
transform = "{1, 0, 0, 1, -1280, 0}";
},
{
name = numbersign;
transform = "{1, 0, 0, 1, -200, 0}";
}
);
layerId = "BBAB2DB2-7554-4FB8-925D-17003E4845F8";
paths = (
{
closed = 1;
nodes = (
"88 890 LINE",
"88 1060 LINE",
"-2442 1060 LINE",
"-2442 890 LINE"
);
},
{
closed = 1;
nodes = (
"88 360 LINE",
"88 530 LINE",
"-2442 530 LINE",
"-2442 360 LINE"
);
}
);
width = 1200;
}
);
},
{
color = 3;
glyphname = numbersign_equal.liga;
lastChange = "2019-09-28 17:11:23 +0000";
layers = (
{
components = (
{
name = numbersign;
transform = "{1, 0, 0, 1, -1040, 0}";
}
);
layerId = "BBAB2DB2-7554-4FB8-925D-17003E4845F8";
paths = (
{
closed = 1;
nodes = (
"920 884 LINE",
"920 1060 LINE",
"160 1060 LINE",
"160 884 LINE"
);
},
{
closed = 1;
nodes = (
"920 358 LINE",
"920 534 LINE",
"160 534 LINE",
"160 358 LINE"
);
}
);
width = 1200;
}
);
},
{
color = 3;
glyphname = numbersign_underscore.liga;
lastChange = "2019-09-28 17:11:23 +0000";
layers = (
{
layerId = "BBAB2DB2-7554-4FB8-925D-17003E4845F8";
paths = (
{
closed = 1;
nodes = (
"-188 -176 LINE",
"-54 1420 LINE",
"-230 1420 LINE",
"-364 -176 LINE"
);
},
{
closed = 1;
nodes = (
"80 360 LINE",
"80 530 LINE",
"-920 530 LINE",
"-920 360 LINE"
);
},
{
closed = 1;
nodes = (
"-610 0 LINE",
"-490 1420 LINE",
"-666 1420 LINE",
"-786 0 LINE"
);
},
{
closed = 1;
nodes = (
"960 -176 LINE",
"960 0 LINE",
"-298 0 LINE",
"-300 -176 LINE"
);
},
{
closed = 1;
nodes = (
"80 890 LINE",
"80 1060 LINE",
"-920 1060 LINE",
"-920 890 LINE"
);
}
);
width = 1200;
}
);
},
{
color = 4;
glyphname = numbersign_underscore_parenleft.liga;
lastChange = "2019-09-28 17:11:23 +0000";
layers = (
{
background = {
components = (
{
name = numbersign;
transform = "{1, 0, 0, 1, 2950, 0}";
},
{
name = underscore;
transform = "{1, 0, 0, 1, 2950, 0}";
},
{
name = parenleft;
transform = "{1, 0, 0, 1, 2950, 0}";
},
{
name = parenleft;
transform = "{1, 0, 0, 1, -20, 0}";
}
);
paths = (
{
closed = 1;
nodes = (
"5240 -30 OFFCURVE",
"5066 242 OFFCURVE",
"5066 716 CURVE SMOOTH",
"5066 1182 OFFCURVE",
"5240 1450 OFFCURVE",
"5550 1450 CURVE SMOOTH",
"5558 1450 LINE",
"5578 1640 LINE",
"5530 1640 LINE SMOOTH",
"5096 1640 OFFCURVE",
"4846 1304 OFFCURVE",
"4846 716 CURVE SMOOTH",
"4846 272 OFFCURVE",
"5000 20 OFFCURVE",
"5270 20 CURVE",
"5270 -46 LINE",
"5572 -174 LINE",
"5558 -30 LINE",
"5550 -30 LINE SMOOTH"
);
}
);
};
layerId = "BBAB2DB2-7554-4FB8-925D-17003E4845F8";
paths = (
{
closed = 1;
nodes = (
"960 -30 LINE",
"952 -30 LINE SMOOTH",
"636 -30 OFFCURVE",
"458 242 OFFCURVE",
"458 716 CURVE SMOOTH",
"458 1175 OFFCURVE",
"636 1440 OFFCURVE",
"952 1440 CURVE SMOOTH",
"960 1440 LINE",
"980 1620 LINE",
"932 1620 LINE SMOOTH",
"498 1620 OFFCURVE",
"248 1291 OFFCURVE",
"248 716 CURVE SMOOTH",
"248 272 OFFCURVE",
"440 20 OFFCURVE",
"612 20 CURVE",
"612 -46 LINE",
"974 -176 LINE"
);
},
{
closed = 1;
nodes = (
"-1120 360 LINE",
"-1120 530 LINE",
"-2120 530 LINE",
"-2120 360 LINE"
);
},
{
closed = 1;
nodes = (
"-1810 0 LINE",
"-1690 1420 LINE",
"-1866 1420 LINE",
"-1986 0 LINE"
);
},
{
closed = 1;
nodes = (
"-1388 -176 LINE",
"-1254 1420 LINE",
"-1430 1420 LINE",
"-1564 -176 LINE"
);
},
{
closed = 1;
nodes = (
"-1120 890 LINE",
"-1120 1060 LINE",
"-2120 1060 LINE",
"-2120 890 LINE"
);
},
{
closed = 1;
nodes = (
"974 -176 LINE",
"942 -96 LINE",
"740 0 LINE",
"-1500 0 LINE",
"-1500 -176 LINE"
);
}
);
width = 1200;
}
);
},
{
color = 3;
glyphname = slash_equal.liga;
lastChange = "2019-09-28 17:11:23 +0000";
layers = (
{
components = (
{
name = slash;
transform = "{1, 0, 0, 1, -1080, 0}";
}
);
layerId = "BBAB2DB2-7554-4FB8-925D-17003E4845F8";
paths = (
{
closed = 1;
nodes = (
"922 366 LINE",
"922 552 LINE",
"-218 552 LINE",
"-308 366 LINE"
);
},
{
closed = 1;
nodes = (
"922 866 LINE",
"922 1052 LINE",
"12 1052 LINE",
"-78 866 LINE"
);
}
);
width = 1200;
}
);
},
{
color = 4;
glyphname = slash_equal_equal.liga;
lastChange = "2019-09-28 17:11:23 +0000";
layers = (
{
components = (
{
name = slash;
transform = "{1, 0, 0, 1, -2280, 0}";
}
);
layerId = "BBAB2DB2-7554-4FB8-925D-17003E4845F8";
paths = (
{
closed = 1;
nodes = (
"-278 366 LINE",
"-278 552 LINE",
"-1418 552 LINE",
"-1508 366 LINE"
);
},
{
closed = 1;
nodes = (
"-278 866 LINE",
"-278 1052 LINE",
"-1188 1052 LINE",
"-1278 866 LINE"
);
},
{
closed = 1;
nodes = (
"920 366 LINE",
"920 552 LINE",
"-120 552 LINE",
"-120 366 LINE"
);
},
{
closed = 1;
nodes = (
"920 866 LINE",
"920 1052 LINE",
"-120 1052 LINE",
"-120 866 LINE"
);
}
);
width = 1200;
}
);
},
{
color = 3;
glyphname = slash_greater.liga;
lastChange = "2019-09-28 17:11:23 +0000";
layers = (
{
background = {
components = (
{
name = greater;
transform = "{1, 0, 0, 1, -100, 0}";
}
);
paths = (
{
closed = 1;
nodes = (
"3346 524 LINE",
"3346 794 LINE",
"2128 1268 LINE",
"2128 1048 LINE",
"3186 668 LINE",
"3186 650 LINE",
"2446 384 LINE",
"2446 164 LINE"
);
},
{
closed = 1;
nodes = (
"1776 0 LINE",
"2296 1420 LINE",
"2094 1420 LINE",
"1574 0 LINE"
);
}
);
};
components = (
{
name = slash;
transform = "{1, 0, 0, 1, -1080, 0}";
}
);
layerId = "BBAB2DB2-7554-4FB8-925D-17003E4845F8";
paths = (
{
closed = 1;
nodes = (
"1006 608 LINE",
"1006 810 LINE",
"-226 1317 LINE",
"-226 1102 LINE",
"748 718 LINE",
"748 700 LINE",
"48 434 LINE",
"48 214 LINE"
);
}
);
width = 1200;
}
);
},
{
color = 4;
glyphname = underscore_bar_underscore.liga;
lastChange = "2019-09-28 17:11:23 +0000";
layers = (
{
layerId = "BBAB2DB2-7554-4FB8-925D-17003E4845F8";
paths = (
{
closed = 1;
nodes = (
"920 -176 LINE",
"920 0 LINE",
"-2120 0 LINE",
"-2120 -176 LINE"
);
},
{
closed = 1;
nodes = (
"-500 -120 LINE",
"-500 1760 LINE",
"-700 1760 LINE",
"-700 -120 LINE"
);
}
);
width = 1200;
}
);
},
{
color = 3;
glyphname = underscore_underscore.liga;
lastChange = "2019-09-28 17:11:23 +0000";
layers = (
{
layerId = "BBAB2DB2-7554-4FB8-925D-17003E4845F8";
paths = (
{
closed = 1;
nodes = (
"920 -176 LINE",
"920 0 LINE",
"-920 0 LINE",
"-920 -176 LINE"
);
}
);
width = 1200;
}
);
},
{
glyphname = .notdef;
lastChange = "2019-08-15 16:18:04 +0000";
layers = (
{
layerId = "BBAB2DB2-7554-4FB8-925D-17003E4845F8";
paths = (
{
closed = 1;
nodes = (
"1072 0 LINE",
"1072 1420 LINE",
"860 1420 LINE",
"860 0 LINE"
);
},
{
closed = 1;
nodes = (
"1072 0 LINE",
"1072 176 LINE",
"128 176 LINE",
"128 0 LINE"
);
},
{
closed = 1;
nodes = (
"340 0 LINE",
"340 1420 LINE",
"128 1420 LINE",
"128 0 LINE"
);
},
{
closed = 1;
nodes = (
"1072 1244 LINE",
"1072 1420 LINE",
"128 1420 LINE",
"128 1244 LINE"
);
}
);
width = 1200;
}
);
},
{
glyphname = cent;
lastChange = "2019-09-23 23:44:13 +0000";
layers = (
{
components = (
{
name = c;
}
);
layerId = "BBAB2DB2-7554-4FB8-925D-17003E4845F8";
paths = (
{
closed = 1;
nodes = (
"732 -334 LINE",
"732 1394 LINE",
"594 1394 LINE",
"594 -334 LINE"
);
}
);
width = 1200;
}
);
unicode = 00A2;
},
{
glyphname = currency;
lastChange = "2019-09-24 05:01:09 +0000";
layers = (
{
background = {
components = (
{
name = periodcentered;
}
);
};
layerId = "BBAB2DB2-7554-4FB8-925D-17003E4845F8";
paths = (
{
closed = 1;
nodes = (
"859 300 OFFCURVE",
"1027 459 OFFCURVE",
"1027 700 CURVE SMOOTH",
"1027 941 OFFCURVE",
"859 1100 OFFCURVE",
"603 1100 CURVE SMOOTH",
"347 1100 OFFCURVE",
"179 941 OFFCURVE",
"179 700 CURVE SMOOTH",
"179 459 OFFCURVE",
"347 300 OFFCURVE",
"603 300 CURVE SMOOTH"
);
},
{
closed = 1;
nodes = (
"480 490 OFFCURVE",
"399 573 OFFCURVE",
"399 700 CURVE SMOOTH",
"399 827 OFFCURVE",
"480 910 OFFCURVE",
"603 910 CURVE SMOOTH",
"726 910 OFFCURVE",
"807 827 OFFCURVE",
"807 700 CURVE SMOOTH",
"807 573 OFFCURVE",
"726 490 OFFCURVE",
"603 490 CURVE SMOOTH"
);
},
{
closed = 1;
nodes = (
"784 390 LINE",
"1012 131 LINE",
"1128 263 LINE",
"912 491 LINE"
);
},
{
closed = 1;
nodes = (
"269 470 LINE",
"72 263 LINE",
"188 131 LINE",
"412 384 LINE"
);
},
{
closed = 1;
nodes = (
"419 1008 LINE",
"199 1259 LINE",
"72 1135 LINE",
"272 926 LINE"
);
},
{
closed = 1;
nodes = (
"929 926 LINE",
"1128 1135 LINE",
"1001 1259 LINE",
"786 1014 LINE"
);
}
);
width = 1200;
}
);
unicode = 00A4;
},
{
glyphname = dollar;
lastChange = "2019-08-15 16:18:04 +0000";
layers = (
{
components = (
{
name = S;
}
);
layerId = "BBAB2DB2-7554-4FB8-925D-17003E4845F8";
paths = (
{
closed = 1;
nodes = (
"682 -334 LINE",
"682 1720 LINE",
"544 1720 LINE",
"544 -334 LINE"
);
}
);
width = 1200;
}
);
leftMetricsKey = "=S";
rightMetricsKey = "=S";
unicode = 0024;
},
{
glyphname = euro;
lastChange = "2019-09-26 18:41:32 +0000";
layers = (
{
layerId = "BBAB2DB2-7554-4FB8-925D-17003E4845F8";
paths = (
{
closed = 1;
nodes = (
"19 781 LINE",
"897 781 LINE",
"897 919 LINE",
"19 919 LINE"
);
},
{
closed = 1;
nodes = (
"19 491 LINE",
"897 491 LINE",
"897 629 LINE",
"19 629 LINE"
);
},
{
closed = 1;
nodes = (
"1149 1221 LINE",
"1083 1360 OFFCURVE",
"936 1440 OFFCURVE",
"744 1440 CURVE SMOOTH",
"395 1440 OFFCURVE",
"196 1174 OFFCURVE",
"196 712 CURVE SMOOTH",
"196 224 OFFCURVE",
"391 -20 OFFCURVE",
"778 -20 CURVE SMOOTH",
"897 -20 OFFCURVE",
"1012 2 OFFCURVE",
"1124 48 CURVE",
"1078 224 LINE",
"991 184 OFFCURVE",
"903 164 OFFCURVE",
"812 164 CURVE SMOOTH",
"545 164 OFFCURVE",
"410 350 OFFCURVE",
"410 722 CURVE SMOOTH",
"410 1063 OFFCURVE",
"542 1256 OFFCURVE",
"746 1256 CURVE SMOOTH",
"842 1256 OFFCURVE",
"928 1197 OFFCURVE",
"981 1094 CURVE"
);
}
);
width = 1200;
}
);
unicode = 20AC;
},
{
glyphname = florin;
lastChange = "2019-09-28 19:11:25 +0000";
layers = (
{
background = {
paths = (
{
closed = 1;
nodes = (
"568 1228 OFFCURVE",
"634 1294 OFFCURVE",
"634 1376 CURVE SMOOTH",
"634 1458 OFFCURVE",
"568 1524 OFFCURVE",
"486 1524 CURVE SMOOTH",
"404 1524 OFFCURVE",
"338 1458 OFFCURVE",
"338 1376 CURVE SMOOTH",
"338 1294 OFFCURVE",
"404 1228 OFFCURVE",
"486 1228 CURVE SMOOTH"
);
},
{
closed = 1;
nodes = (
"76 -468 LINE SMOOTH",
"452 -438 OFFCURVE",
"614 -284 OFFCURVE",
"614 94 CURVE SMOOTH",
"614 384 LINE",
"402 384 LINE",
"402 62 LINE SMOOTH",
"402 -156 OFFCURVE",
"310 -254 OFFCURVE",
"96 -274 CURVE SMOOTH",
"-104 -292 LINE",
"-94 -480 LINE"
);
},
{
closed = 1;
nodes = (
"418 884 LINE",
"418 1060 LINE",
"-10 1060 LINE",
"-10 884 LINE"
);
},
{
closed = 1;
nodes = (
"614 350 LINE",
"614 1060 LINE",
"402 1060 LINE",
"402 350 LINE"
);
}
);
};
layerId = "BBAB2DB2-7554-4FB8-925D-17003E4845F8";
paths = (
{
closed = 1;
nodes = (
"614 360 LINE",
"614 900 LINE SMOOTH",
"614 1134 OFFCURVE",
"708 1250 OFFCURVE",
"898 1250 CURVE SMOOTH",
"958 1250 OFFCURVE",
"1018 1246 OFFCURVE",
"1102 1236 CURVE",
"1124 1420 LINE",
"1050 1434 OFFCURVE",
"984 1440 OFFCURVE",
"904 1440 CURVE SMOOTH",
"568 1440 OFFCURVE",
"402 1258 OFFCURVE",
"402 890 CURVE SMOOTH",
"402 360 LINE"
);
},
{
closed = 1;
nodes = (
"156 -468 LINE SMOOTH",
"475 -431 OFFCURVE",
"614 -284 OFFCURVE",
"614 94 CURVE SMOOTH",
"614 384 LINE",
"402 384 LINE",
"402 62 LINE SMOOTH",
"402 -156 OFFCURVE",
"333 -252 OFFCURVE",
"176 -274 CURVE SMOOTH",
"68 -289 LINE",
"78 -477 LINE"
);
},
{
closed = 1;
nodes = (
"68 682 LINE",
"1048 682 LINE",
"1048 820 LINE",
"68 820 LINE"
);
}
);
width = 1200;
}
);
unicode = 0192;
},
{
glyphname = sterling;
lastChange = "2019-09-24 01:29:04 +0000";
layers = (
{
layerId = "BBAB2DB2-7554-4FB8-925D-17003E4845F8";
paths = (
{
closed = 1;
nodes = (
"1096 0 LINE",
"1096 186 LINE",
"192 186 LINE",
"192 0 LINE"
);
},
{
closed = 1;
nodes = (
"448 1440 OFFCURVE",
"292 1294 OFFCURVE",
"292 1036 CURVE SMOOTH",
"292 627 LINE SMOOTH",
"292 474 OFFCURVE",
"240 340 OFFCURVE",
"132 186 CURVE",
"132 0 LINE",
"444 0 LINE",
"344 186 LINE",
"453 338 OFFCURVE",
"506 474 OFFCURVE",
"506 627 CURVE SMOOTH",
"506 1035 LINE SMOOTH",
"506 1173 OFFCURVE",
"586 1248 OFFCURVE",
"702 1248 CURVE SMOOTH",
"802 1248 OFFCURVE",
"891 1192 OFFCURVE",
"947 1094 CURVE",
"1115 1221 LINE",
"1049 1360 OFFCURVE",
"902 1440 OFFCURVE",
"710 1440 CURVE SMOOTH"
);
},
{
closed = 1;
nodes = (
"109 581 LINE",
"897 581 LINE",
"897 719 LINE",
"109 719 LINE"
);
}
);
width = 1200;
}
);
unicode = 00A3;
},
{
glyphname = yen;
lastChange = "2019-09-23 23:46:40 +0000";
layers = (
{
components = (
{
name = Y;
}
);
layerId = "BBAB2DB2-7554-4FB8-925D-17003E4845F8";
paths = (
{
closed = 1;
nodes = (
"162 501 LINE",
"1040 501 LINE",
"1040 639 LINE",
"162 639 LINE"
);
},
{
closed = 1;
nodes = (
"162 191 LINE",
"1040 191 LINE",
"1040 329 LINE",
"162 329 LINE"
);
}
);
width = 1200;
}
);
unicode = 00A5;
},
{
glyphname = logicalnotReversed;
lastChange = "2019-09-27 03:36:39 +0000";
layers = (
{
layerId = "BBAB2DB2-7554-4FB8-925D-17003E4845F8";
paths = (
{
closed = 1;
nodes = (
"292 817 LINE",
"100 817 LINE",
"100 350 LINE",
"292 350 LINE"
);
},
{
closed = 1;
nodes = (
"1100 903 LINE",
"100 903 LINE",
"100 717 LINE",
"1100 717 LINE"
);
}
);
width = 1200;
}
);
unicode = 2310;
},
{
glyphname = plus;
lastChange = "2019-08-25 17:28:07 +0000";
layers = (
{
layerId = "BBAB2DB2-7554-4FB8-925D-17003E4845F8";
paths = (
{
closed = 1;
nodes = (
"696 190 LINE",
"696 1228 LINE",
"504 1228 LINE",
"504 190 LINE"
);
},
{
closed = 1;
nodes = (
"1100 617 LINE",
"1100 803 LINE",
"100 803 LINE",
"100 617 LINE"
);
}
);
width = 1200;
}
);
unicode = 002B;
},
{
glyphname = minus;
lastChange = "2019-08-25 17:27:59 +0000";
layers = (
{
layerId = "BBAB2DB2-7554-4FB8-925D-17003E4845F8";
paths = (
{
closed = 1;
nodes = (
"1100 616 LINE",
"1100 802 LINE",
"100 802 LINE",
"100 616 LINE"
);
}
);
width = 1200;
}
);
unicode = 2212;
},
{
glyphname = multiply;
lastChange = "2019-08-25 18:12:39 +0000";
layers = (
{
background = {
paths = (
{
closed = 1;
nodes = (
"140 776 LINE",
"140 600 LINE",
"1060 600 LINE",
"1060 776 LINE"
);
},
{
closed = 1;
nodes = (
"692 1148 LINE",
"508 1148 LINE",
"508 228 LINE",
"692 228 LINE"
);
}
);
};
guideLines = (
{
position = "{511, 114}";
},
{
position = "{511, 574}";
}
);
layerId = "BBAB2DB2-7554-4FB8-925D-17003E4845F8";
paths = (
{
closed = 1;
nodes = (
"121 1065 LINE",
"249 1188 LINE",
"1079 309 LINE",
"951 188 LINE"
);
},
{
closed = 1;
nodes = (
"121 309 LINE",
"951 1188 LINE",
"1079 1065 LINE",
"249 188 LINE"
);
}
);
width = 1200;
}
);
unicode = 00D7;
},
{
glyphname = divide;
lastChange = "2019-08-25 17:13:36 +0000";
layers = (
{
components = (
{
name = minus;
}
);
layerId = "BBAB2DB2-7554-4FB8-925D-17003E4845F8";
paths = (
{
closed = 1;
nodes = (
"678 944 OFFCURVE",
"741 1007 OFFCURVE",
"741 1085 CURVE SMOOTH",
"741 1162 OFFCURVE",
"678 1225 OFFCURVE",
"600 1225 CURVE SMOOTH",
"522 1225 OFFCURVE",
"459 1162 OFFCURVE",
"459 1085 CURVE SMOOTH",
"459 1007 OFFCURVE",
"522 944 OFFCURVE",
"600 944 CURVE SMOOTH"
);
},
{
closed = 1;
nodes = (
"678 151 OFFCURVE",
"741 214 OFFCURVE",
"741 291 CURVE SMOOTH",
"741 369 OFFCURVE",
"678 432 OFFCURVE",
"600 432 CURVE SMOOTH",
"522 432 OFFCURVE",
"459 369 OFFCURVE",
"459 291 CURVE SMOOTH",
"459 214 OFFCURVE",
"522 151 OFFCURVE",
"600 151 CURVE SMOOTH"
);
}
);
width = 1200;
}
);
unicode = 00F7;
},
{
glyphname = equal;
lastChange = "2019-08-25 17:27:55 +0000";
layers = (
{
layerId = "BBAB2DB2-7554-4FB8-925D-17003E4845F8";
paths = (
{
closed = 1;
nodes = (
"1100 866 LINE",
"1100 1052 LINE",
"100 1052 LINE",
"100 866 LINE"
);
},
{
closed = 1;
nodes = (
"1100 366 LINE",
"1100 552 LINE",
"100 552 LINE",
"100 366 LINE"
);
}
);
width = 1200;
}
);
unicode = 003D;
},
{
glyphname = greater;
lastChange = "2019-08-25 17:34:18 +0000";
layers = (
{
background = {
components = (
{
name = hyphen;
}
);
};
layerId = "BBAB2DB2-7554-4FB8-925D-17003E4845F8";
paths = (
{
closed = 1;
nodes = (
"1104 608 LINE",
"1104 810 LINE",
"146 1204 LINE",
"146 984 LINE",
"846 718 LINE",
"846 700 LINE",
"146 434 LINE",
"146 214 LINE"
);
}
);
width = 1200;
}
);
unicode = 003E;
},
{
glyphname = less;
lastChange = "2019-08-25 17:14:12 +0000";
layers = (
{
layerId = "BBAB2DB2-7554-4FB8-925D-17003E4845F8";
paths = (
{
closed = 1;
nodes = (
"1054 434 LINE",
"314 700 LINE",
"314 718 LINE",
"1054 984 LINE",
"1054 1204 LINE",
"96 810 LINE",
"96 608 LINE",
"1054 214 LINE"
);
}
);
width = 1200;
}
);
unicode = 003C;
},
{
glyphname = plusminus;
lastChange = "2019-09-23 23:47:10 +0000";
layers = (
{
components = (
{
name = minus;
transform = "{1, 0, 0, 1, 0, -430}";
}
);
layerId = "BBAB2DB2-7554-4FB8-925D-17003E4845F8";
paths = (
{
closed = 1;
nodes = (
"696 246 LINE",
"696 1224 LINE",
"504 1224 LINE",
"504 246 LINE"
);
},
{
closed = 1;
nodes = (
"1100 683 LINE",
"1100 869 LINE",
"100 869 LINE",
"100 683 LINE"
);
}
);
width = 1200;
}
);
unicode = 00B1;
},
{
glyphname = asciitilde;
lastChange = "2019-08-15 16:18:04 +0000";
layers = (
{
layerId = "BBAB2DB2-7554-4FB8-925D-17003E4845F8";
paths = (
{
closed = 1;
nodes = (
"304 446 LINE",
"304 476 LINE SMOOTH",
"304 586 OFFCURVE",
"344 640 OFFCURVE",
"424 640 CURVE SMOOTH",
"576 640 OFFCURVE",
"728 580 OFFCURVE",
"880 580 CURVE SMOOTH",
"1028 580 OFFCURVE",
"1100 692 OFFCURVE",
"1100 920 CURVE SMOOTH",
"1100 970 LINE",
"898 970 LINE",
"898 940 LINE SMOOTH",
"898 830 OFFCURVE",
"864 776 OFFCURVE",
"798 776 CURVE SMOOTH",
"652 776 OFFCURVE",
"506 836 OFFCURVE",
"360 836 CURVE SMOOTH",
"186 836 OFFCURVE",
"100 724 OFFCURVE",
"100 496 CURVE SMOOTH",
"100 446 LINE"
);
}
);
width = 1200;
}
);
unicode = 007E;
},
{
glyphname = logicalnot;
lastChange = "2019-09-23 23:48:22 +0000";
layers = (
{
layerId = "BBAB2DB2-7554-4FB8-925D-17003E4845F8";
paths = (
{
closed = 1;
nodes = (
"1100 350 LINE",
"1100 817 LINE",
"908 817 LINE",
"908 350 LINE"
);
},
{
closed = 1;
nodes = (
"1100 717 LINE",
"1100 903 LINE",
"100 903 LINE",
"100 717 LINE"
);
}
);
width = 1200;
}
);
unicode = 00AC;
},
{
glyphname = asciicircum;
lastChange = "2019-08-15 16:18:04 +0000";
layers = (
{
layerId = "BBAB2DB2-7554-4FB8-925D-17003E4845F8";
paths = (
{
closed = 1;
nodes = (
"424 820 LINE",
"590 1260 LINE",
"608 1260 LINE",
"774 820 LINE",
"994 820 LINE",
"734 1420 LINE",
"464 1420 LINE",
"204 820 LINE"
);
}
);
width = 1200;
}
);
unicode = 005E;
},
{
glyphname = percent;
lastChange = "2019-09-28 17:08:23 +0000";
layers = (
{
background = {
paths = (
{
closed = 1;
nodes = (
"1046 -20 OFFCURVE",
"1170 108 OFFCURVE",
"1170 302 CURVE SMOOTH",
"1170 498 OFFCURVE",
"1046 626 OFFCURVE",
"858 626 CURVE SMOOTH",
"668 626 OFFCURVE",
"544 498 OFFCURVE",
"544 302 CURVE SMOOTH",
"544 108 OFFCURVE",
"668 -20 OFFCURVE",
"858 -20 CURVE SMOOTH"
);
},
{
closed = 1;
nodes = (
"750 98 OFFCURVE",
"680 180 OFFCURVE",
"680 302 CURVE SMOOTH",
"680 426 OFFCURVE",
"750 508 OFFCURVE",
"858 508 CURVE SMOOTH",
"964 508 OFFCURVE",
"1034 426 OFFCURVE",
"1034 302 CURVE SMOOTH",
"1034 180 OFFCURVE",
"964 98 OFFCURVE",
"858 98 CURVE SMOOTH"
);
},
{
closed = 1;
nodes = (
"533 794 OFFCURVE",
"657 921 OFFCURVE",
"657 1116 CURVE SMOOTH",
"657 1311 OFFCURVE",
"533 1439 OFFCURVE",
"344 1439 CURVE SMOOTH",
"154 1439 OFFCURVE",
"30 1311 OFFCURVE",
"30 1116 CURVE SMOOTH",
"30 921 OFFCURVE",
"154 794 OFFCURVE",
"344 794 CURVE SMOOTH"
);
},
{
closed = 1;
nodes = (
"237 912 OFFCURVE",
"166 994 OFFCURVE",
"166 1116 CURVE SMOOTH",
"166 1239 OFFCURVE",
"237 1321 OFFCURVE",
"344 1321 CURVE SMOOTH",
"451 1321 OFFCURVE",
"520 1239 OFFCURVE",
"520 1116 CURVE SMOOTH",
"520 994 OFFCURVE",
"451 912 OFFCURVE",
"344 912 CURVE SMOOTH"
);
}
);
};
layerId = "BBAB2DB2-7554-4FB8-925D-17003E4845F8";
paths = (
{
closed = 1;
nodes = (
"1116 976 LINE",
"1024 1106 LINE",
"94 442 LINE",
"186 306 LINE"
);
},
{
closed = 1;
nodes = (
"1042 -20 OFFCURVE",
"1166 108 OFFCURVE",
"1166 302 CURVE SMOOTH",
"1166 498 OFFCURVE",
"1042 626 OFFCURVE",
"854 626 CURVE SMOOTH",
"664 626 OFFCURVE",
"540 498 OFFCURVE",
"540 302 CURVE SMOOTH",
"540 108 OFFCURVE",
"664 -20 OFFCURVE",
"854 -20 CURVE SMOOTH"
);
},
{
closed = 1;
nodes = (
"776 148 OFFCURVE",
"726 210 OFFCURVE",
"726 302 CURVE SMOOTH",
"726 396 OFFCURVE",
"776 458 OFFCURVE",
"854 458 CURVE SMOOTH",
"930 458 OFFCURVE",
"980 396 OFFCURVE",
"980 302 CURVE SMOOTH",
"980 210 OFFCURVE",
"930 148 OFFCURVE",
"854 148 CURVE SMOOTH"
);
},
{
closed = 1;
nodes = (
"556 794 OFFCURVE",
"680 922 OFFCURVE",
"680 1116 CURVE SMOOTH",
"680 1316 OFFCURVE",
"556 1440 OFFCURVE",
"368 1440 CURVE SMOOTH",
"178 1440 OFFCURVE",
"54 1312 OFFCURVE",
"54 1116 CURVE SMOOTH",
"54 922 OFFCURVE",
"178 794 OFFCURVE",
"368 794 CURVE SMOOTH"
);
},
{
closed = 1;
nodes = (
"290 962 OFFCURVE",
"240 1024 OFFCURVE",
"240 1116 CURVE SMOOTH",
"240 1212 OFFCURVE",
"290 1274 OFFCURVE",
"368 1274 CURVE SMOOTH",
"444 1274 OFFCURVE",
"494 1212 OFFCURVE",
"494 1116 CURVE SMOOTH",
"494 1024 OFFCURVE",
"444 962 OFFCURVE",
"368 962 CURVE SMOOTH"
);
}
);
width = 1200;
}
);
unicode = 0025;
},
{
glyphname = perthousand;
lastChange = "2019-09-28 17:09:13 +0000";
layers = (
{
layerId = "BBAB2DB2-7554-4FB8-925D-17003E4845F8";
paths = (
{
closed = 1;
nodes = (
"1103 286 OFFCURVE",
"1197 386 OFFCURVE",
"1197 537 CURVE SMOOTH",
"1197 689 OFFCURVE",
"1103 789 OFFCURVE",
"961 789 CURVE SMOOTH",
"818 789 OFFCURVE",
"724 689 OFFCURVE",
"724 537 CURVE SMOOTH",
"724 386 OFFCURVE",
"818 286 OFFCURVE",
"961 286 CURVE SMOOTH"
);
},
{
closed = 1;
nodes = (
"910 430 OFFCURVE",
"877 473 OFFCURVE",
"877 537 CURVE SMOOTH",
"877 602 OFFCURVE",
"910 645 OFFCURVE",
"961 645 CURVE SMOOTH",
"1011 645 OFFCURVE",
"1044 602 OFFCURVE",
"1044 537 CURVE SMOOTH",
"1044 473 OFFCURVE",
"1011 430 OFFCURVE",
"961 430 CURVE SMOOTH"
);
},
{
closed = 1;
nodes = (
"534 794 OFFCURVE",
"658 922 OFFCURVE",
"658 1116 CURVE SMOOTH",
"658 1316 OFFCURVE",
"534 1440 OFFCURVE",
"346 1440 CURVE SMOOTH",
"156 1440 OFFCURVE",
"32 1312 OFFCURVE",
"32 1116 CURVE SMOOTH",
"32 922 OFFCURVE",
"156 794 OFFCURVE",
"346 794 CURVE SMOOTH"
);
},
{
closed = 1;
nodes = (
"268 962 OFFCURVE",
"218 1024 OFFCURVE",
"218 1116 CURVE SMOOTH",
"218 1212 OFFCURVE",
"268 1274 OFFCURVE",
"346 1274 CURVE SMOOTH",
"422 1274 OFFCURVE",
"472 1212 OFFCURVE",
"472 1116 CURVE SMOOTH",
"472 1024 OFFCURVE",
"422 962 OFFCURVE",
"346 962 CURVE SMOOTH"
);
},
{
closed = 1;
nodes = (
"684 -20 OFFCURVE",
"778 80 OFFCURVE",
"778 231 CURVE SMOOTH",
"778 383 OFFCURVE",
"684 483 OFFCURVE",
"542 483 CURVE SMOOTH",
"399 483 OFFCURVE",
"305 383 OFFCURVE",
"305 231 CURVE SMOOTH",
"305 80 OFFCURVE",
"399 -20 OFFCURVE",
"542 -20 CURVE SMOOTH"
);
},
{
closed = 1;
nodes = (
"491 124 OFFCURVE",
"458 167 OFFCURVE",
"458 231 CURVE SMOOTH",
"458 296 OFFCURVE",
"491 339 OFFCURVE",
"542 339 CURVE SMOOTH",
"592 339 OFFCURVE",
"625 296 OFFCURVE",
"625 231 CURVE SMOOTH",
"625 167 OFFCURVE",
"592 124 OFFCURVE",
"542 124 CURVE SMOOTH"
);
},
{
closed = 1;
nodes = (
"1066 976 LINE",
"974 1106 LINE",
"44 442 LINE",
"136 306 LINE"
);
}
);
width = 1200;
}
);
unicode = 2030;
},
{
glyphname = lowerOneEighthBlock;
lastChange = "2019-09-29 23:23:38 +0000";
layers = (
{
layerId = "BBAB2DB2-7554-4FB8-925D-17003E4845F8";
paths = (
{
closed = 1;
nodes = (
"1200 -750 LINE",
"1200 -431 LINE",
"0 -431 LINE",
"0 -750 LINE"
);
}
);
width = 1200;
}
);
unicode = 2581;
},
{
glyphname = lowerOneQuarterBlock;
lastChange = "2019-09-29 23:23:38 +0000";
layers = (
{
layerId = "BBAB2DB2-7554-4FB8-925D-17003E4845F8";
paths = (
{
closed = 1;
nodes = (
"1200 -750 LINE",
"1200 -111 LINE",
"0 -111 LINE",
"0 -750 LINE"
);
}
);
width = 1200;
}
);
unicode = 2582;
},
{
glyphname = lowerThreeEighthsBlock;
lastChange = "2019-09-29 23:23:38 +0000";
layers = (
{
layerId = "BBAB2DB2-7554-4FB8-925D-17003E4845F8";
paths = (
{
closed = 1;
nodes = (
"1200 -750 LINE",
"1200 209 LINE",
"0 209 LINE",
"0 -750 LINE"
);
}
);
width = 1200;
}
);
unicode = 2583;
},
{
glyphname = lowerHalfBlock;
lastChange = "2019-09-29 23:23:38 +0000";
layers = (
{
layerId = "BBAB2DB2-7554-4FB8-925D-17003E4845F8";
paths = (
{
closed = 1;
nodes = (
"1200 -750 LINE",
"1200 529 LINE",
"0 529 LINE",
"0 -750 LINE"
);
}
);
width = 1200;
}
);
unicode = 2584;
},
{
glyphname = lowerFiveEighthsBlock;
lastChange = "2019-09-29 23:23:38 +0000";
layers = (
{
layerId = "BBAB2DB2-7554-4FB8-925D-17003E4845F8";
paths = (
{
closed = 1;
nodes = (
"1200 -750 LINE",
"1200 848 LINE",
"0 848 LINE",
"0 -750 LINE"
);
}
);
width = 1200;
}
);
unicode = 2585;
},
{
glyphname = lowerThreeQuartersBlock;
lastChange = "2019-09-29 23:23:38 +0000";
layers = (
{
layerId = "BBAB2DB2-7554-4FB8-925D-17003E4845F8";
paths = (
{
closed = 1;
nodes = (
"1200 -750 LINE",
"1200 1168 LINE",
"0 1168 LINE",
"0 -750 LINE"
);
}
);
width = 1200;
}
);
unicode = 2586;
},
{
glyphname = lowerSevenEighthsBlock;
lastChange = "2019-09-29 23:23:38 +0000";
layers = (
{
layerId = "BBAB2DB2-7554-4FB8-925D-17003E4845F8";
paths = (
{
closed = 1;
nodes = (
"1200 -750 LINE",
"1200 1488 LINE",
"0 1488 LINE",
"0 -750 LINE"
);
}
);
width = 1200;
}
);
unicode = 2587;
},
{
glyphname = fullBlock;
lastChange = "2019-09-29 23:23:38 +0000";
layers = (
{
layerId = "BBAB2DB2-7554-4FB8-925D-17003E4845F8";
paths = (
{
closed = 1;
nodes = (
"1200 -750 LINE",
"1200 1808 LINE",
"0 1808 LINE",
"0 -750 LINE"
);
}
);
width = 1200;
}
);
unicode = 2588;
},
{
glyphname = upperHalfBlock;
lastChange = "2019-09-29 23:23:38 +0000";
layers = (
{
layerId = "BBAB2DB2-7554-4FB8-925D-17003E4845F8";
paths = (
{
closed = 1;
nodes = (
"1200 529 LINE",
"1200 1808 LINE",
"0 1808 LINE",
"0 529 LINE"
);
}
);
width = 1200;
}
);
unicode = 2580;
},
{
glyphname = upperOneEighthBlock;
lastChange = "2019-09-29 23:23:38 +0000";
layers = (
{
layerId = "BBAB2DB2-7554-4FB8-925D-17003E4845F8";
paths = (
{
closed = 1;
nodes = (
"1200 1488 LINE",
"1200 1808 LINE",
"0 1808 LINE",
"0 1488 LINE"
);
}
);
width = 1200;
}
);
unicode = 2594;
},
{
glyphname = leftOneEighthBlock;
lastChange = "2019-09-29 23:23:38 +0000";
layers = (
{
layerId = "BBAB2DB2-7554-4FB8-925D-17003E4845F8";
paths = (
{
closed = 1;
nodes = (
"150 -750 LINE",
"150 1808 LINE",
"0 1808 LINE",
"0 -750 LINE"
);
}
);
width = 1200;
}
);
unicode = 258F;
},
{
glyphname = leftOneQuarterBlock;
lastChange = "2019-09-29 23:23:38 +0000";
layers = (
{
layerId = "BBAB2DB2-7554-4FB8-925D-17003E4845F8";
paths = (
{
closed = 1;
nodes = (
"300 -750 LINE",
"300 1808 LINE",
"0 1808 LINE",
"0 -750 LINE"
);
}
);
width = 1200;
}
);
unicode = 258E;
},
{
glyphname = leftThreeEighthsBlock;
lastChange = "2019-09-29 23:23:38 +0000";
layers = (
{
layerId = "BBAB2DB2-7554-4FB8-925D-17003E4845F8";
paths = (
{
closed = 1;
nodes = (
"450 -750 LINE",
"450 1808 LINE",
"0 1808 LINE",
"0 -750 LINE"
);
}
);
width = 1200;
}
);
unicode = 258D;
},
{
glyphname = leftBlock;
lastChange = "2019-09-29 23:23:38 +0000";
layers = (
{
layerId = "BBAB2DB2-7554-4FB8-925D-17003E4845F8";
paths = (
{
closed = 1;
nodes = (
"600 -750 LINE",
"600 1808 LINE",
"0 1808 LINE",
"0 -750 LINE"
);
}
);
width = 1200;
}
);
unicode = 258C;
},
{
glyphname = leftFiveEighthsBlock;
lastChange = "2019-09-29 23:23:38 +0000";
layers = (
{
layerId = "BBAB2DB2-7554-4FB8-925D-17003E4845F8";
paths = (
{
closed = 1;
nodes = (
"750 -750 LINE",
"750 1808 LINE",
"0 1808 LINE",
"0 -750 LINE"
);
}
);
width = 1200;
}
);
unicode = 258B;
},
{
glyphname = leftThreeQuartersBlock;
lastChange = "2019-09-29 23:23:38 +0000";
layers = (
{
layerId = "BBAB2DB2-7554-4FB8-925D-17003E4845F8";
paths = (
{
closed = 1;
nodes = (
"900 -750 LINE",
"900 1808 LINE",
"0 1808 LINE",
"0 -750 LINE"
);
}
);
width = 1200;
}
);
unicode = 258A;
},
{
glyphname = leftSevenEighthsBlock;
lastChange = "2019-09-29 23:23:38 +0000";
layers = (
{
layerId = "BBAB2DB2-7554-4FB8-925D-17003E4845F8";
paths = (
{
closed = 1;
nodes = (
"1050 -750 LINE",
"1050 1808 LINE",
"0 1808 LINE",
"0 -750 LINE"
);
}
);
width = 1200;
}
);
unicode = 2589;
},
{
glyphname = rightBlock;
lastChange = "2019-09-29 23:23:38 +0000";
layers = (
{
layerId = "BBAB2DB2-7554-4FB8-925D-17003E4845F8";
paths = (
{
closed = 1;
nodes = (
"1200 -750 LINE",
"1200 1808 LINE",
"600 1808 LINE",
"600 -750 LINE"
);
}
);
width = 1200;
}
);
unicode = 2590;
},
{
glyphname = rightOneEighthBlock;
lastChange = "2019-09-29 23:23:38 +0000";
layers = (
{
layerId = "BBAB2DB2-7554-4FB8-925D-17003E4845F8";
paths = (
{
closed = 1;
nodes = (
"1200 -750 LINE",
"1200 1808 LINE",
"1050 1808 LINE",
"1050 -750 LINE"
);
}
);
width = 1200;
}
);
unicode = 2595;
},
{
glyphname = lowerLeftBlock;
lastChange = "2019-09-29 23:23:38 +0000";
layers = (
{
layerId = "BBAB2DB2-7554-4FB8-925D-17003E4845F8";
paths = (
{
closed = 1;
nodes = (
"600 -750 LINE",
"600 529 LINE",
"0 529 LINE",
"0 -750 LINE"
);
}
);
width = 1200;
}
);
unicode = 2596;
},
{
glyphname = lowerRightBlock;
lastChange = "2019-09-29 23:23:38 +0000";
layers = (
{
layerId = "BBAB2DB2-7554-4FB8-925D-17003E4845F8";
paths = (
{
closed = 1;
nodes = (
"1200 -750 LINE",
"1200 529 LINE",
"600 529 LINE",
"600 -750 LINE"
);
}
);
width = 1200;
}
);
unicode = 2597;
},
{
glyphname = upperLeftBlock;
lastChange = "2019-09-29 23:23:38 +0000";
layers = (
{
layerId = "BBAB2DB2-7554-4FB8-925D-17003E4845F8";
paths = (
{
closed = 1;
nodes = (
"600 529 LINE",
"600 1808 LINE",
"0 1808 LINE",
"0 529 LINE"
);
}
);
width = 1200;
}
);
unicode = 2598;
},
{
glyphname = upperLeftAndLowerLeftAndLowerRightBlock;
lastChange = "2019-09-29 23:23:38 +0000";
layers = (
{
layerId = "BBAB2DB2-7554-4FB8-925D-17003E4845F8";
paths = (
{
closed = 1;
nodes = (
"1200 -750 LINE",
"1200 529 LINE",
"600 529 LINE",
"600 1808 LINE",
"0 1808 LINE",
"0 -750 LINE"
);
}
);
width = 1200;
}
);
unicode = 2599;
},
